<?xml version="1.0" encoding="utf-8"?>
<!-- Generator: Adobe Illustrator 16.0.3, SVG Export Plug-In . SVG Version: 6.00 Build 0)  -->
<!DOCTYPE svg PUBLIC "-//W3C//DTD SVG 1.1//EN" "http://www.w3.org/Graphics/SVG/1.1/DTD/svg11.dtd">
<svg version="1.1"
	 id="svg2259" sodipodi:docname="Municipios de Coahuila.svg" sodipodi:docbase="C:\Documents and Settings\Juan\Mis documentos\Mis imágenes\Wikipedia\Heraldica" inkscape:version="0.45.1" sodipodi:version="0.32" inkscape:output_extension="org.inkscape.output.svg.inkscape" xmlns:dc="http://purl.org/dc/elements/1.1/" xmlns:cc="http://web.resource.org/cc/" xmlns:rdf="http://www.w3.org/1999/02/22-rdf-syntax-ns#" xmlns:svg="http://www.w3.org/2000/svg" xmlns:sodipodi="http://sodipodi.sourceforge.net/DTD/sodipodi-0.dtd" xmlns:inkscape="http://www.inkscape.org/namespaces/inkscape"
	 xmlns="http://www.w3.org/2000/svg" xmlns:xlink="http://www.w3.org/1999/xlink" x="0px" y="0px" width="683px" height="990px"
	 viewBox="267.697 28.131 683 990" enable-background="new 267.697 28.131 683 990" xml:space="preserve">
<g>
	
		<sodipodi:namedview  id="base" inkscape:pageshadow="2" inkscape:pageopacity="0.0" inkscape:zoom="0.48713196" borderopacity="1.0" bordercolor="#666666" pagecolor="#ffffff" inkscape:cy="529.63062" inkscape:cx="592.19672" inkscape:window-y="-4" inkscape:window-x="-4" inkscape:window-height="712" inkscape:window-width="1024" inkscape:current-layer="layer1" inkscape:document-units="px">
		</sodipodi:namedview>
	<path id="path2410" fill="#FFFFFF" stroke="#000000" d="M706.835,842.944l-12.4,0.318c0,0.424,0,0.848,0,1.271
		c0,1.86-0.02,3.141,0.635,4.45c0.688,1.374,2.549,1.601,3.18,2.86c0.98,1.959,0.084,2.686,1.59,3.814c0.686,0.514,3.857,0,4.77,0
		c0.832,0,2.666,0.636,4.133,0.636c1.279,0,3.346,0.317,5.088,0.317c0.213,0,2.072,2.708,2.227,2.861
		c1.623,1.624,3.18,0.749,3.18,3.814c0,2.263-1.607,1.907-3.498,1.907c-0.98,0-2.332-2.332-2.861-2.861
		c-1.398-1.396-1.314-1.727-2.861-0.953c-0.754,0.377-0.318,3.643-0.318,4.45c0,1.589,0,3.179,0,4.768
		c0,2.062-2.615,1.271-4.451,1.271c-1.908,0-3.816,0-5.725,0c-1.68,0-0.953,1.192-0.953,3.179c0,1.589,0,3.179,0,4.768
		c0,2.349-0.117,2.414-1.908,2.861c-0.164,0.041,0,4.337,0,4.768c0,1.59,0,3.179,0,4.769c0,1.808-2.094,1.271-3.814,1.271
		c-2.117,0-2.514,0.256-3.18,1.59c-0.785,1.569-0.496,1.907-2.863,1.907c-1.695,0-3.391,0-5.086,0c-2.217,0-2.684,0.08-3.18-1.907
		c-0.172-0.683-3.799-0.318-4.451-0.318c-1.803,0-3.604,0-5.406,0c-1.695,0-3.391,0-5.088,0c-1.59,0-3.18,0-4.77,0
		c-2.861,0,0.426,0.213-0.635-0.317l6.359-7.946c-1.098,0-3.547-1.271-5.406-1.271c-2.4,0-2.367-0.247-1.908-2.543
		c0.299-1.493-0.063-3.748-0.316-4.769c-0.438-1.745-1.844-2.034-2.861-2.543c-1.221-0.609-1.215-2.168-2.227-3.179
		c-1.064-1.063-1.285-1.913-2.543-2.542c-1.441-0.721-3.018-0.636-4.77-0.636c-1.678,0-2.92-1.772-3.498-2.543
		c-0.838-1.117-0.982-2.336-1.271-3.497c-0.42-1.675-2.861,0.564-2.861-2.543c0-1.943,0.07-3.116,1.59-3.496
		c1.574-0.394,3.555-0.277,4.451-0.636c1.381-0.553-0.68-3.008-0.318-4.45c0.488-1.957,0.846-3.071,1.908-4.132
		c0.934-0.935,0.367-4.379,0.635-5.722c0.416-2.079-0.455-2.612-1.59-3.179c-1.002-0.501-3.619,0-4.77,0
		c-1.654,0-3.584-0.021-4.77-0.318c-0.916-0.229-2.801-2.513-3.496-2.86c-2.033-1.017-2.49-0.108-1.271-2.543
		c0.541-1.083-1.914-2.548-2.545-3.179c-1.324-1.324,0.166-2.301-1.59-3.179c-0.928-0.464-2.955-0.738-3.814-0.953
		c-1.467-0.367-2.148-1.073-3.18-1.59c-1.387-0.692-1.697-0.742-2.545-1.589c-0.473-0.237-0.848-0.636-1.271-0.954
		c-1.154-0.866,0.861-3.723,0.955-3.814c0.963-0.964,1.906-1.94,1.906-3.179c0-1.683,0.818-2.679-0.635-4.132
		c-1.396-1.395,0.936-1.891,1.906-2.86c0.625-0.623,0-2.905,0-4.133c0-2.106,0.729-2.635,1.59-3.496
		c1.072-1.072,4.168,1.058,4.453,1.271c1.33,0.998,0.264,1.655,2.543,2.225c0.824,0.206,2.004,0,2.861,0
		c0.805,0.201,0.637-4.878,0.637-5.403c0-1.59,0-3.179,0-4.769c0-0.169,3.025-1.436,3.18-1.589c0.602-0.602,0.316-3.8,0.316-4.768
		c0-1.59,0-3.179,0-4.769c0-1.753,0.168-2.875,0.637-3.814l5.406-3.496l17.168,7.629l5.088-8.583l-2.225-6.356l3.496-2.861
		l4.135,6.993l6.041-0.318l6.041,2.543l-17.17,8.9v20.025l22.574-0.317l-8.902-11.762l18.76,1.907l-3.814,12.397l-8.586,7.628
		l9.221,7.629l2.227-5.722l5.086,0.318c-1.582,0.264,1.354-3.334,0.637-4.768c-1.012-2.023,0.777-1.908,2.543-1.908
		c2.588,0,1.494,1.356,2.863,3.179c0.773,1.032,1.033,3.18,1.271,4.133c0.041,0.165,4.338,0,4.77,0c1.59,0,3.18,0,4.77,0
		c2.125,0,2.336-0.532,3.814-1.271c1.574-0.787,2.867,1.283,3.18,1.907c0.844,1.686,1.666,1.271,3.816,1.271
		c1.779,0,2.057,1.153,2.861,2.225c1.484,1.979-2.305,1.59-3.18,1.59c-2.102,0-2.77,0.543-4.133,1.907
		c-0.838,0.836-1.393,2.465-1.908,3.496c-0.6,1.198-0.637,2.317-0.637,4.132c0,1.186,2.342,0.752,3.18,1.59
		c1.266,1.266-2.963,1.456-3.498,1.589c-1.113,0.278-0.635,3.063-0.635,4.133c0,2.318,0.389,2.684-1.59,3.179
		c-1.387,0.347-3.332,0-4.77,0c-1.59,0-3.18,0-4.77,0C706.613,841.355,707.195,841.147,706.835,842.944z"/>
	<path id="path2296" fill="#FFFFFF" stroke="#000000" d="M776.644,145.873c0,0.57-0.225,2.038,0,2.489
		c0.877,1.754,2.611,2.235,3.486,3.982c0.303,0.606,2.813,5.476-0.996,5.476c-3.143,0-2.387-2.764-5.479-1.991
		c-2.49,0.623-4.316,0-6.971,0c-3.025,0-4.98-0.802-4.98,2.489c0,3.292,0.561,4.869-2.986,3.982
		c-2.51-0.627-3.984,0.037-3.984,2.987c0,0.83,0,1.66,0,2.489l-53.781-4.978l0.498-16.926l-19.918,7.467l-8.963-24.891
		l-50.295,18.917l-27.389,52.271L529.154,185.2l-9.959,17.424l-27.887-26.384l-15.934-7.965l-20.418-15.432
		c-1.453-2.906-5.17-1.379-6.473-3.983c-1.41-2.819,0.182-2.174,1.992-3.982c0.754-0.753-0.996-4.862-0.996-6.472
		c0-1.942,1.52-3.592,1.992-5.476c0.564-2.26,4.711,0.067,6.971-0.498c2.16-0.54,0.498-4.281,0.498-5.974
		c0-1.795,3.213-1.718,4.482-2.987c2.273-2.273-1.836-3.904-2.988-4.48c-2.795-1.397-0.414-4.771,0.996-5.476
		c1.707-0.853,2.002-3.992,2.988-4.978c1.113-1.114,0.619-5.465,0.996-6.97c0.533-2.134,2.672-2.173,3.982-3.485
		c1.73-1.729,1.992-2.359,1.992-5.476c0-3.075,2.375-1.609-0.498-4.48c-2.572-2.571,1.93-1.991,3.984-1.991c2.49,0,0-4.979,0-7.467
		c0-0.589,4.08-1.879,4.48-3.485c0.541-2.159,1.48-3.426,1.992-5.476c0.816-3.26-0.979-4.488,1.992-5.974
		c3.336-1.667-0.279-3.982,4.482-3.982c1.592,0,3.871,3.336,3.982,3.485c0.939,0,1.328,1.327,1.992,1.991
		c0.709,0.708,2.49-4.62,2.49-5.974c0-3.344,3.984,0.985,3.984-3.485c0-4.146,1.705-1.78,3.484,0
		c2.129,2.128,2.857,2.987,6.475,2.987c2.842,0,2.023-3.856,1.494-5.974c-0.605-2.42,5.049-0.107,7.469,0.498
		c2.633,0.658,2.969,1.991,5.977,1.991c3.305,0,4.73,0.498,7.469,0.498c2.656,0,0-5.31,0-7.965c0-2.073,1.494-2.86,1.494-5.974
		c0-2.658,2.613-3.796,3.984-4.48c2.402-1.201,2.91-2.345,5.477-2.987c3.432-0.858,3.984,1.716,3.984,4.48
		c0,2.354,6.584,1.494,7.967,1.494c2.379,0,5.348,0.092,6.973,0.498c0.648,0.162,3.912,2.595,5.477,2.987
		c1.771,0.442,4.404,3.904,5.479,4.978c2.598,2.597,1.02,0.865,4.48,0c2.854-0.713,5.002,2.511,5.977,3.485
		c2.24,2.239,3.486,0.938,3.486-1.991c0-3.733,2.314-2.665,3.982-0.996c2.416,2.415,4.172-2.865,4.482-3.485
		c1.836-3.671,6.02,3.074,6.473,3.982c1.846,3.69,4.334,1.817,4.98,1.494c1.92-0.96,0.305-3.409,3.984-2.489
		c4.221,1.055,3.291,3.18,5.477,0.996c2.369-2.367,2.088-1.896,4.98,0.996c0.127,0.128,1.545-3.931,4.48-0.996
		c3.289,3.287,1.197,4.877,3.984,3.485c2.605-1.302,2.395-2.947,4.98,0.498c1.711,2.281,5.855,2.335,8.465,2.987
		c0.482,0.121,0.996,0,1.494,0c3.824,0.956,6.309,2.653,8.465,0.498c1.979-1.979,1.631-1.957,5.479-0.996
		c3.666,0.917,3.447-1.343,3.982-3.485c0.297-1.187,4.465-4.463,4.98-4.978c1.896-1.896,4.98,5.749,4.98,5.974
		c0,1.558-4.877-0.394-1.494,2.987c1.775,1.775,6.42-0.942,6.971-1.494c2.146-2.145,0.084-2.987,4.98-2.987
		c2.33,0-0.068,4.71,0.498,6.969c0.414,1.658,3.273-1.281,4.48-2.489c2.375-2.374,2.49,4.469,2.49,5.476
		c0,2.479,3.486,1.437,3.486,4.979c0,3.644,2.918,1.846,1.992,6.472c-0.906,4.523,1.713,2.05,2.488,0.498
		c1.078-2.154,4.768-0.604,5.977,0c2.029,1.015,1.494,4.031,1.494,6.472c0,1.998-3.998,2.044-4.482,3.982
		c-0.537,2.15,3.486,3.444,3.486,5.974c0,0.95,1.992-3.496,1.992-5.476c0-3.576,0.34-3.825,1.992-5.476
		c1.922-1.922,5.684,2.434,6.473,3.485c1.822,2.428-1.197,5.378-1.992,5.974c-1.945,1.459-2.037,2.805-1.494,4.978
		c0.627,2.501,0.594,5.169,1.494,6.97c1.813,3.621,4.355-1.981,4.482-2.489c0.715-2.855,5.619,0.569,5.975,1.991
		c0.578,2.312,5.264,2.128,5.977,4.979c0.926,3.702,0.652,4.021,4.482,4.978c2.531,0.632,4.363-0.498,6.971-0.498
		c2.156,0,3.277,3.276,4.98,4.978c2.029,2.03,3.982,2.864,3.982,5.477c0,2.885,0.834,3.828,1.494,6.471
		c0.303,1.206,3.402,2.945,4.482,3.485c2.723,1.361,3.871,1.38,5.477,2.987c2.535,2.534,3.568,2.758,6.475,3.485
		c2.617,0.654,3.143,2.146,4.48,3.484C773.419,140.657,776.406,145.396,776.644,145.873z"/>
	<path id="path2298" fill="#FFFFFF" stroke="#000000" d="M700.783,162.216l-1.604,21.112l38.762,5.345l-0.535,33.672l-6.148,16.569
		l7.486-1.069l12.029,4.275l8.82,4.276c0.445,0,0.891,0,1.338,0h9.891l10.691-9.086v-5.879l5.615-3.474l4.275,0.267l3.744-4.81
		c-0.17-1.777,0.143-3.512,0.533-5.078c0.35-1.397,2.539-0.526,2.941-2.138c0.367-1.47,0.803-2.145,1.068-3.207
		c0.145-0.579,3.484-0.267,4.01-0.267c2.1,0,1.73-1.132,3.209-1.871c1.426-0.713,0.152-2.138,3.207-2.138
		c0.926,0,1.195-0.098,1.871-0.267c0.643,0,1.338-5.296,1.338-6.146c0-1.425,0-2.851,0-4.276c0-1.692,0-3.385,0-5.078
		c0-0.358-2.314-1.51-2.674-1.871c-0.902-0.902-1.068-1.722-1.068-3.207c0-1.475,0.199-2.673,0.533-4.008
		c0.443-1.771-0.41-2.959-1.068-4.276c-0.826-1.65-1.342-2.942-2.941-3.742c-1.117-0.558-2.354-0.642-3.207-1.069
		c-1.916-0.958-1.867-2.402-3.475-3.207c-1.561-0.78-1.701-1.919-3.209-2.673c-1.473-0.736-1.949-1.708-2.674-2.672
		c-0.973-1.299-1.217-1.392-1.604-2.94c-0.262-1.048,0.535-2.397,0.535-3.741c0-0.598-1.979-2.245-2.406-2.672
		c-1.225-1.224-1.068-1.974-1.068-4.009c0-2.079-0.313-2.449-1.605-3.741c-0.945-0.947-1.955-0.932-3.207-1.871
		c-0.975-0.731-1.592-1-2.939-1.336c-1.311-0.327-1.289-1.069-3.209-1.069c-0.314,0-1.678,1.944-1.871,2.138
		c-1.336,0,1.461,2.262,2.406,3.207c0.816,0.817,1.449,1.183,2.139,1.871c0.787,0.788,0.535,2.175,0.535,3.474
		c0,1.982,0.143,2.138-1.873,2.138c-1.699,0-2.135-0.265-2.939-1.069c-0.834-0.833-2.434-0.534-3.742-0.534c-1.338,0-2.674,0-4.01,0
		c-1.338,0-2.674,0-4.01,0c-1.68,0-2.674-0.515-2.674,1.336c0,1.336,0,2.673,0,4.009c0,1.462-1.658,1.256-2.406,1.069
		c-1.252-0.313-1.6-0.801-3.207-0.801c-1.174,0-1.24,1.676-1.604,2.405c-0.504,1.007-0.268,2.545-0.268,3.742
		c0,0.178,0,0.356,0,0.534L700.783,162.216z"/>
	<path id="path2302" fill="#FFFFFF" stroke="#000000" d="M795.416,223.146l12.83,18.172l5.881,1.336l-0.533,12.828l2.672,5.345
		l9.357-0.535l9.891,2.138l10.426,5.879c0.178-0.445,0.355-0.891,0.533-1.336c0.426-1.062-0.094-3.586-0.268-4.276
		c-0.191-0.765-1.436-1.704-1.871-2.138c-0.713-0.712-2.762-0.089-3.475-0.802c-0.885-0.884-1.027-1.448-2.406-2.138
		c-1.393-0.697-1.666-1.418-2.406-2.405c-0.777-1.037-1.113-1.958-1.604-2.939c-0.527-1.054,0.234-2.275,0.535-3.474
		c0.297-1.191,1.063-2.391,1.604-3.474c0.732-1.463-1.635-2.896-2.406-3.474c-1.297-0.974-2.043-1.777-2.939-2.672
		c-0.971-0.971-1.604-1.745-1.604-3.207c0-1.115,2.338-2.07,2.939-2.672c0.33-0.331-2.055-2.828-2.139-2.939
		c-0.75-1.001-1.088-1.89-1.871-2.672c-0.813-0.813-2.117-0.802-3.475-0.802c-1.213,0-1.883-1.385-2.139-2.405
		c-0.461-1.843,0.668-2.271-0.535-3.474c-1.051-1.05-1.551-0.854-1.871-2.138c-0.4-1.6,1.018-1.922-0.268-3.207
		c-0.84-0.839-2.232-1.383-3.207-1.871c-1.389-0.693-1.711-1.443-2.674-2.405c-0.834-0.834-1.498-1.45-1.871-2.939
		c-0.031-0.128-0.764-0.763-0.803-0.802c-0.465-1.864-2.932,2.108-2.939,2.138c-0.254,1.012-2.008,0.603-2.941,1.069
		c-1.09,0.545-0.42,1.813-1.604,2.405c-0.557,0.279-3.131-0.267-4.01-0.267c-1.32,0-0.801,2.02-0.801,3.207
		c0,1.369-1.596,1.069-2.941,1.069c-1.322,0-0.803,2.019-0.803,3.207C795.681,221.453,795.658,222.171,795.416,223.146z"/>
	<path id="path2304" fill="#FFFFFF" stroke="#000000" d="M816.8,260.827l-12.029,8.819l-8.287,9.086l-6.148,7.75l-6.684,12.828
		c0.09,0.445,0.18,0.891,0.268,1.336c0.234,1.166,2.635-0.039,3.475,0.802c0.412,0.412,0,3.576,0,4.276
		c0,1.277,0.051,2.869,0.268,3.742c0.326,1.299,2.711-0.058,4.01,0.267c1.418,0.354,1.545,0.534,3.477,0.534
		c1.332,0,2.311,1.413,2.672,2.138c0.424,0.847,1.643-1.219,1.871-2.138c0.057-0.225,5.18,0,5.881,0c1.516,0,3.031,0,4.545,0
		c1.338,0,2.674,0,4.01,0c1.426,0,2.852,0,4.277,0c1.381,0,1.389,1.594,1.604,2.672c0.078,0.385,1.871,0.105,1.871,2.405
		c0,1.336,0,2.672,0,4.009c0,0.624,0,1.247,0,1.871c0,1.764,2.166-2.953,3.744-3.742c1.066-0.533,3.016-1.069,4.543-1.069
		c1.035,0,2.752-0.754,4.01-1.069c1.176-0.293,1.586-1.316,2.406-2.138c0.238-0.238,0.953-3.547,1.07-4.009
		c0.43-1.724-0.023-2.383,1.068-3.474c0.889-0.889,1.641-1.622,2.674-2.138c1.07-0.535,1.326-2.652,1.604-3.207
		c0.773-1.546,1.744-1.361,2.139-2.94c0.264-1.058-1.873-1.871-2.406-2.138c-1.086-0.543-2.824-0.238-4.01-0.534
		c-1.418-0.354-0.453-2.336,0-2.94c0.979-1.304,2.139,0.055,2.139-2.138c0-1.26-0.777-1.77-1.068-2.94c-0.293-1.165,0-2.8,0-4.008
		c0-0.298,2.834-0.909,3.475-1.069c0.891-0.223,0.791-1.604,2.939-1.604c1.779,0,2.406,0.934,2.406-1.336
		c0-1.321,2.02-0.802,3.209-0.802c1.086,0,0.898-2.186,1.871-2.672c1.479-0.739,1.342-2.116,1.068-3.207
		c-0.324-1.299-1.676-1.354-2.674-1.603c-1.453-0.363-2.529-0.063-3.475-0.535c-1.037-0.519-1.529-1.166-2.406-1.604l-10.691-5.879
		l-9.625-2.138L816.8,260.827z"/>
	<path id="path2308" fill="#FFFFFF" stroke="#000000" d="M706.13,336.456l1.068-16.569l14.703-8.284l22.188-1.604l18.98-3.207
		l4.01-5.345c0.355-0.089,0.713-0.178,1.068-0.267c0.898-0.225,1.963-1.249,2.674-1.604c1.461-0.73,0.582-1.336,2.939-1.336
		c2.029,0,1.881-0.938,3.477-1.336c1.82-0.455,2.404-0.033,2.404,1.604c0,1.321,2.021,0.802,3.209,0.802
		c1.266,0,0.779,1.604,2.672,1.604c2.029,0,1.871,0.17,1.871,2.138c0,1.425,0,2.851,0,4.276c0,1.288-0.23,1.799-0.533,2.405
		l-16.842,6.146l-6.684,6.414v3.207l-12.029,10.957l-39.295,3.474l-5.613-0.267L706.13,336.456z"/>
	<path id="path2310" fill="#FFFFFF" stroke="#000000" d="M751.306,336.456l0.268,8.552h24.861l0.268-5.345l3.475-2.672l-6.416-6.681
		l17.377-16.569c0,0.984,2.244-0.963,2.939-0.267c1.451,1.451,1,1.604,3.475,1.604c1.697,0,2.574,0.398,2.941-1.069
		c0.355-1.418-0.268-2.38-0.268-3.742c0-0.592-1.455,1.572-1.604,1.871c-0.775,1.552-1.604-0.354-1.604-1.336
		c0-0.256-3.293-0.489-3.477-0.535c-1.4-0.35-2.031-1.069-3.742-1.069c-0.877,0-1.965,0.268-2.939,0.268l-16.307,6.146l-7.752,6.414
		l0.533,3.474L751.306,336.456z"/>
	<path id="path2330" fill="#FFFFFF" stroke="#000000" d="M851.658,277.592c0,1.476-0.611,3.008,1.471,3.528
		c1.697,0.424,2.059,1.71,2.059,3.528c0,0.659,4.254,0.882,5,0.882c2.158,0,3.111-0.124,4.117,0.882
		c0.711,0.711-1.268,2.985-1.766,3.234c-1.309,0.654-3.551,0.011-4.705,0.588c-1.379,0.689,0.42,3.486,0.588,3.822
		c0.398,0.795,3.371,1.979,4.117,2.352c1.338,0.669,1.639,2.257,2.941,3.234c1.637,1.227-1.506,2.646-2.352,2.646
		c-1.559,0-1.471,1.609-1.471,3.234c0,1.31,0.615,2.996,1.176,4.116c0.727,1.452,2.389,2.094,3.234,2.94
		c1.707,1.706,1.816,1.675,2.354,3.822c0.527,2.108,1.84,2.426,4.412,2.94c1.244,0.249-0.387,4.007-0.588,4.41
		c-0.564,1.127-1.904,1.505-2.941,1.764c-0.252,0.063,3.488,3.375,3.824,3.822c0.719,0.96,0.955,2.942,1.176,3.822
		c0.109,0.439,2.357,1.475,2.646,1.764c1.57,1.57,1.781,1.764,4.412,1.764c2.242,0,3.234,1.204,3.234,3.234
		c0,1.917-0.238,1.82,0.883,2.94c0.754,0.753,3.398,0.294,4.412,0.294c1.289,0,0.012,2.669,0.588,3.822
		c0.471,0.94,3.727,0.686,4.705,0.882c1.91,0.382,3.32,0.63,5,1.47c1.758,0.878,2.158,0.393,3.529,1.764
		c1.135,1.134,2.35,2.054,3.529,3.234c1.15,1.15,1.738,1.658,2.061,2.94c0.408,1.634,0.535,2.438,0.881,3.822
		c0.162,0.65,0.396,0.992,0.588,1.765l-8.822,6.468l5.883,13.525l-16.766,4.117l-0.883,19.112l-22.352,3.822l3.824,15.583
		l-59.117-13.231l9.117-25.58l4.705-2.352l1.178-6.468l3.529,2.352l2.059-7.057l-9.705-6.174l8.529-9.115l-15-2.94l-4.412-8.821
		l-0.588-7.645l5.293-1.764l5-15.583c0.393-0.294,0.785-0.588,1.178-0.882c0.594-0.446,1.236-2.412,1.764-2.94
		c0.439-0.439,3.713,0,4.412,0c1.818,0,2.357-0.592,3.529-1.764c0.98-0.98,1.846-1.257,2.646-2.059
		c1.037-1.037,1.176-1.396,1.176-3.528c0-1.695,0.107-2.861,0.59-3.822c0.553-1.106,1.957-1.369,2.646-2.058
		c1.053-1.052,1.764-0.723,1.764-2.646c0-0.767,1.773-2.949,2.061-3.234c1.193-1.193,1.299-1.222,0.588-2.646
		c-0.459-0.916-2.73-0.588-3.824-0.588c-2.049,0-2.27-0.125-2.941-1.47c-0.688-1.376,0.332-2.067,1.471-2.353
		c1.953-0.488,2.059-0.347,2.059-2.646c0-0.716-1.539-2.043-1.764-2.94c-0.432-1.722,0.424-2.613,0.881-3.528
		c0.543-1.084,2.674-0.025,3.531-0.882c0.93-0.931,1.637-0.966,3.529-0.588c0.828,0.166,1.605-2.31,1.764-2.94
		C849.494,276.832,850.873,277.592,851.658,277.592z"/>
	<path id="path2334" fill="#FFFFFF" stroke="#000000" d="M910.773,362.271c0.271-1.084,0.941,2.646,2.061,2.646
		c1.59,0,3.057,0.059,4.117,0.588c0.283,0.142,0,3.935,0,4.411c0,1.333,1.678,1.678,2.352,2.352c0.439,0.439,0,3.711,0,4.41
		c0,1.831,3.236,1.452,3.236,3.528c0,0.895,3.49,0.588,4.117,0.588c1.945,0,3.088-0.296,3.824,1.176
		c0.766,1.532,1.176,1.757,1.176,3.822c0,1.274-2.629,0.569-3.529,1.47c-1.191,1.191,3.178,2.911,3.824,3.234
		c1.42,0.71,2.541,0.777,3.529,1.764c0.797,0.798,1.443,2.885,1.764,3.528c0.682,1.362,2.236,2.646,0,2.646
		c-2.006,0-2.51,0.043-2.941,1.765c-0.508,2.029,0.527,3.057,2.059,3.822c1.627,0.813,2.771,0.712,4.119,2.059
		c1.262,1.261,1.545,2.048,1.176,3.528c-0.332,1.328-1.176,1.793-1.176,3.527c0,1.441,3.031,1.76,3.822,2.353
		c1.5,1.124,1.766,1.915,1.766,3.822c0,0.31,0.195,0.588,0.293,0.882l-25.293,28.814l-32.059-33.225l-14.412,12.35l-3.234-3.234
		l-3.529-14.995l22.352-4.116l1.178-18.818l17.059-4.117l-6.178-13.525L910.773,362.271z"/>
	<path id="path2336" fill="#FFFFFF" stroke="#000000" d="M812.541,412.549l-45.588-17.641l-2.941-12.055l-10.293-5.292
		l-0.588-14.113l-2.061-1.47l0.295-17.053h25l0.293-5.292l3.236-2.94l-5.883-6.468l17.646-16.76c0.49-0.294,0.98-0.588,1.471-0.882
		c0.787-0.472,2.846,2.561,2.941,2.94c0.039,0.152,4.014,0,4.412,0c1.588,0,0.588-1.968,0.588-3.234
		c0-1.158-0.252-1.092-0.588-1.764l18.234-0.294c0-1.55,1.551,2.727,2.646,3.822c1.025,1.024,1.373,0.983,0.883,2.94
		c-0.277,1.11,0,2.671,0,3.822l-4.705,15.29l-5.588,2.352l0.293,6.763l5,9.409l14.707,3.234l-8.529,8.821l9.998,6.468l-2.059,6.763
		l-4.117-2.058l-0.883,6.174l-5,2.94L812.541,412.549z"/>
	<path id="path2338" fill="#FFFFFF" stroke="#000000" d="M874.654,428.006l-12.02,10.012l-9.443,51.78l-16.311-14.59l-10.875-3.433
		l-0.285-5.149l-17.457,6.579l-15.738,7.725l-7.727-3.433l-6.295,6.007l1.145-8.296h-6.01l-2.576,2.575l-21.461-21.17l2.289-11.443
		l13.734-8.582l7.154,4.863l1.145-17.165l-18.027-13.159l5.723-4.006l-4.293-5.148l4.58-9.155l5.723,2.002l45.5,17.451
		l58.664,12.873L874.654,428.006z"/>
	<path id="path2342" fill="#FFFFFF" stroke="#000000" d="M751.89,445.456l-2.004,11.157l21.176,21.17l2.861-2.575h5.725
		l-1.717,8.582l7.152-6.293l8.014,3.146l15.738-7.724l16.885-6.294l0.285,4.863l10.875,4.005l16.883,14.304l-44.068,12.016
		l-25.756,27.463l2.004,4.005l-0.572,16.593l-9.443,9.44l-6.01-14.59l-4.865-8.296l-13.449-7.724l-0.285-6.008
		c-0.383-0.286-0.764-0.572-1.145-0.858c-0.951-0.713-1.271-2.7-2.004-3.433c-0.846-0.846-1.508-1.508-2.289-2.289
		c-1.092-1.091-1.375-1.891-2.004-3.146c-0.473-0.948-1.965-1.697-3.146-2.289c-1.938-0.969-2.248-1.727-4.58-1.145
		c-2.557,0.64-1.713-1.33-2.861-2.86c-0.941-1.257-1.746-1.746-2.576-2.575c-0.994-0.995-1.541-1.513-2.574-2.288
		c-0.918-0.688-1.895-1.786-2.289-2.575c-0.457-0.911-1.492-1.746-2.576-2.288c-1.189-0.596-2.342-0.741-3.148-1.145
		c-1.16-0.58-1.758-1.022-3.146-1.717c-1.502-0.751-2.516-1.257-4.006-2.002c-1.367-0.684-1.898-0.753-3.148-2.003
		c-0.693-0.692-0.287-3.014-0.287-4.005c0-1.486,0.045-2.969-0.285-4.291c-0.217-0.863-1.805-1.517-2.289-2.003
		c-0.623-0.622-0.152-2.591-0.572-3.433c-0.355-0.709-3.865-0.286-4.58-0.286c-2.283,0-3.613,0.137-4.006-1.431
		c-0.463-1.854,0.398-1.804-1.717-2.86c-1.625-0.813-2.455-0.167-3.434-1.145c-1.219-1.218-1.793-1.145-4.006-1.145
		c-1.813,0-3.625,0-5.438,0c-1.527,0-3.053,0-4.578,0c-1.432,0-2.863,0-4.293,0l-12.877-20.598l-2.004-10.299l16.025-8.296v15.734
		l38.633,0.858l21.176-1.145L751.89,445.456z"/>
	<path id="path2348" fill="#FFFFFF" stroke="#000000" d="M817.015,260.674l-12.4,8.988l-7.75,8.368l-6.51,8.987l-7.441,12.087
		c-0.619,0-1.238,0-1.859,0c-1.695,0-2.369-2.584-2.789-2.479c-1.629,0.407-1.779,1.86-3.41,1.86c-2.357,0-2.094,0.426-3.721,1.24
		c-1,0.5-1.705,2.13-2.791,1.859c-0.412-0.104-0.826-0.207-1.24-0.31l-3.41,5.579l-19.84,3.409l-22.32,1.24l-80.293-23.554
		l-46.813-88.327l27.902-52.066l50.221-19.215l9.301,25.103l19.84-7.438l-0.619,16.425l-1.859,20.764l38.441,5.579l-0.311,33.471
		l-5.891,16.735l7.131-0.93l12.709,4.029l8.371,4.339l10.85-0.31l11.471-8.988l-0.619-5.888l6.51-3.409l3.41,0.31l4.34-4.649
		l13.021,18.285l5.58,0.93l-0.621,12.397L817.015,260.674z"/>
	<path id="path2350" fill="#FFFFFF" stroke="#000000" d="M706.246,339.822l-8.918,1.311v14.685c0.35,0.262,0.699,0.524,1.049,0.787
		c1.203,0.902,1.717,0.667,2.887,1.835c1.098,1.097,2.715,0.347,3.41,0c0.957-0.479,2.561-0.212,3.41,0
		c1.502,0.375,1.584,1.093,1.836,2.098c0.186,0.743-0.264,2.927-0.264,3.933c0,1.808-0.055,2.306,0.787,3.147
		c1.225,1.224,2.672,1.622,3.936,2.885c0.396,0.396,0.799,0.811,1.049,1.311c0.355,0.711,2.74,0.524,3.936,0.524
		c1.359,0,3.199,1.6,4.197,2.098c1.338,0.669,0.529,2.076,0.262,3.146c-0.23,0.919-2.527,0.524-3.41,0.524
		c-1.688,0-1.574,0.722-1.574,2.36c0,2.014,0.127,2.428-1.311,3.147c-1.744,0.871,1.824,1.767,2.098,1.835
		c0.707,0.177,2.41,1.729,3.148,2.098c1.453,0.727,2.172,0.296,2.623,2.098c0.254,1.016,0.787,1.84,0.787,3.409
		c0,1.945,0.141,2.098-1.836,2.098c-1.896,0-1.256,2.059-1.051,2.885c0.25,0.995,2.887-0.378,2.887,2.359
		c0,1.802,0.328,2.476-1.313,2.885c-0.654,0.164-2.748-0.262-3.672-0.262c-1.398,0-2.799,0-4.197,0
		c-1.889,0-2.014-0.178-2.885-1.049c-0.828-0.827-1.857-1.574-3.41-1.574c-1.137,0-2.273,0-3.41,0l2.885,8.654l-8.918-6.031
		l-4.461,2.098l16.789,41.434l21.248-1.049l16.787,0.262l14.428-9.44l7.346,5.507l0.787-17.569l-18.1-13.374l5.508-3.409
		l-4.197-5.507l4.459-9.179l5.246,1.836l-2.885-11.801l-10.492-5.507l-0.264-14.161l-2.359-1.836l0.523-24.912l-38.297,3.409
		H706.246z"/>
	<path id="path2352" fill="#FFFFFF" stroke="#000000" d="M705.722,336.413c-0.68,0-3.107,0.01-4.197-0.263
		c-1.145-0.286-2.748,0-3.936,0c-1.715,0-1.553,0.767-2.359,1.574c-0.393,0.392-3.313,0-3.936,0c-0.941,0-2.068,0.124-2.623,0.262
		l-10.492,8.654l-12.33-7.343l-3.41-0.787l-5.508,3.934l13.641,21.241l5.246,1.049l-0.262,6.294l2.359,4.982l-2.885,4.458
		c-1.488,0,0.262,2.97,0.262,4.458c0,0.229,3.689,0.262,4.197,0.262c1.023,0,0.057-2.636,1.049-2.884
		c1.205-0.301,2.465,0.262,3.674,0.262l11.018,4.721l-3.936,6.556l7.607,0.263l1.049,3.671l8.133,2.622
		c0.432-0.107,0.873-0.175,1.311-0.262c1.379-0.275,2.281-0.021,3.41,0.262c0.611,0.153,1.873,2.135,2.098,2.36
		c0.393,0.392,3.313,0,3.936,0c1.398,0,2.799,0,4.197,0c1.592,0,2.795-0.086,3.672-0.524c1.029-0.514-0.01-2.381-0.523-3.409
		c-0.459-0.915-2.162-0.325-2.887-1.049c-1.045-1.046-0.49-2.131,0.264-2.885c0.266-0.266,3.764-0.219,3.934-0.262
		c0.949-0.237-0.875-1.749-1.311-2.623c-0.809-1.615-0.316-1.889-1.574-3.147c-0.867-0.866-1.635-1.109-2.623-2.098
		c-0.998-0.997-1.301-1.306-2.361-1.836c-1.389-0.694-2.254-0.942-2.623-1.311c-0.658-0.657,1.441-1.179,2.098-1.835
		c0.244-0.243,0.217-3.484,0.264-3.672c0.229-0.918,2.527-0.524,3.41-0.524c2.031,0,2.518-0.153,2.098-1.835
		c-0.316-1.27-0.926-1.542-2.098-1.835c-1.088-0.272-1.637-0.737-2.887-1.049c-1.143-0.286-2.748,0-3.934,0
		c-0.529,0-2.086-2.518-2.361-2.884c-0.877-1.169-1.926-1.401-2.885-2.36c-0.945-0.944-1.367-1.422-1.838-2.36
		c-0.625-1.253,0.777-2.337,1.051-2.884c0.654-1.311-0.361-2.82-0.787-3.671c-0.479-0.957-2.195-0.697-2.887-0.524
		c-1.045,0.261-1.213,1.049-3.146,1.049c-2.068,0-2.658-0.82-3.936-2.098c-0.975-0.975-1.574-0.738-1.574-2.623
		c0-1.311,0-2.623,0-3.934s0-2.623,0-3.934s0-2.623,0-3.934c0-1.9,0.699-1.484,1.574-2.36c0.539-0.539,2.668-0.263,3.672-0.263
		c1.313,0,2.623,0,3.936,0c0.176,0,0-0.35,0-0.524L705.722,336.413z"/>
	<path id="path2354" fill="#FFFFFF" stroke="#000000" d="M675.683,446.132v-15.575l0.389-6.62l-10.906-5.841l-12.074-5.451
		l-24.539-8.177c0,2.693,0.566,3.504-2.336,3.504c-1.891,0-4.422,0.453-6.232,0c-1.547-0.387-4.289-0.394-5.453-1.558
		c-1.082-1.082-1.473-1.777-2.336-3.504c-0.641-1.279-1.387-4.283-3.506-4.283c-2.637,0-2.727-0.866-2.727-3.505
		c0-2.531-0.545-2.881-1.947-4.283c-1.162-1.161-4.674,0.084-4.674-1.558c0-0.533-0.213-6.177,0-6.229
		c2.275-0.569,2.793-0.436,0.777-1.947c-0.816-0.613-2.238-5.184-2.727-5.062c-1.93,0.483-2.93,0.593-4.283,1.947
		c-1.729,1.729-2.4,0.653-3.895-2.336c-1.459-2.917-2.506-1.336-3.896-2.726c-1.109-1.109-4.283-0.379-4.283-1.947l3.895-13.628
		c0-1.039,0-2.077,0-3.115c0-2.194-0.391-3.981-0.391-6.23c0-0.944,0.594-6.175,0-6.619c-1.832-1.375-2.336-1.389-2.336-4.283
		c0-0.926-0.582-5.259,0-5.841c1.363-1.362,2.975-0.563,2.336-3.115c-0.266-1.066,0.295-4.313-0.389-5.451
		c-0.389-0.649-0.779-1.298-1.168-1.947l-1.17-21.805l-11.684-14.796l-6.621-2.336l-11.686-7.788l-12.465-13.239l-7.01-2.726
		l0.389,6.23l-6.232,8.177l-1.168,15.575l-7.4-5.841l-1.947-10.124l-4.285,1.947l-9.348-10.903l3.115-5.062l-14.021-6.23
		l27.266-49.451l10.906-17.522l65.436,14.407l46.35,88.779l79.848,22.974l-14.021,8.566l-1.559,16.743
		c-0.242-0.023-0.484-0.046-0.727-0.069c-0.873-0.083-1.795,0-2.672,0c-0.795,0-1.586-0.173-2.316-0.356
		c-0.66-0.165-1.592-0.178-2.494-0.178c-1.07,0-1.227,0.63-1.426,1.425c-0.158,0.635-1.451,0.534-2.137,0.534
		c-0.891,0-1.781,0-2.672,0c-0.988,0-1.678-0.178-2.494-0.178c-1.068,0-1.449,0.201-1.961,0.712
		c-0.557,0.558-0.928,0.79-1.246,1.425c-0.264,0.529-1.287,0.876-1.781,1.247c-0.813,0.609-1.313,1.134-1.959,1.781
		c-0.586,0.584-0.684,1.395-1.248,1.959c-0.563,0.563-0.988,0.988-1.426,1.425c-0.316,0.318-0.58,0.379-0.891,0.534l-12.291-7.123
		l-3.563-0.891l-5.346,3.918l13.719,21.371l5.166,1.069l-0.18,6.055l2.494,5.165l-3.205,4.452c-0.238,0.178-0.477,0.356-0.713,0.534
		c-0.137,0.103,0.291,2.415,0.355,2.671c0.234,0.933,0.57,1.068,1.781,1.068c1.063,0,1.805,0.356,2.852,0.356
		c1.09,0,0.711-0.996,0.711-1.959c0-1.406,0.273-1.401,1.604-1.068c0.781,0.195,1.619,0.178,2.494,0.178l11.045,4.987l-3.74,6.411
		l7.66,0.356l0.891,3.562l7.305,2.671l3.027,8.727l-8.551-5.877l-4.811,1.781l16.746,41.673L675.683,446.132z"/>
	<path id="path2367" fill="#FFFFFF" stroke="#000000" d="M518.166,281.955l5.684,37.587l-10.057,8.741l8.744,14.423l9.619,26.224
		l0.438,9.616l5.246,8.304l9.617-6.556l11.805,9.615l-6.121,10.053l-7.432,2.186l5.246,6.556l4.809-1.312l6.121,0.874l7.434,6.993
		l-7.434,20.104l3.061,8.305l8.307-7.43l3.498,17.482l6.994,13.986l10.932,8.74l8.307,1.312l5.246-2.622h8.307l16.613,26.66
		l0.438,10.053c-0.15,0.22-0.299,0.439-0.447,0.659c-0.719,1.057,1.166,1.005,1.688,1.266c1.574,0.786,1.969-0.291,1.969,1.546
		c0,1.022,0.896,1.052,1.969,1.266c0.729,0.146,1.508,0.141,2.25,0.141c0.475,0,1.475,1.018,1.969,1.266
		c0.6,0.3,0.742,1.472,0.563,1.828c-0.414,0.829-1.322,1.244-1.969,1.406c-1.455,0.363-0.365,0.85,0.563,1.406
		c0.904,0.541,1.703,1.096,2.25,1.827c0.584,0.777,0.129,1.263,1.268,1.547c1.176,0.294,1.154-0.264,1.406-1.266
		c0.244-0.978-0.164-1.243,0.563-1.968c0.547-0.547,1.938,0.53,2.25,0.843c0.758,0.758,0.355,1.547,1.406,1.547
		c0.939,0,1.924-0.081,2.813,0.141c0.686,0.171,0.703,0.546,0.703,1.406c0,0.921,0.088,1.463,0.984,1.688
		c1.076,0.269,1.969,0.787,2.955,0.983c0.314,0.063-0.188,2.343-0.281,2.531c-0.219,0.438-1.307,0.281-1.83,0.281
		c-0.793,0-1.434,0.014-1.969,0.281c-0.734,0.367-0.754,0.927-1.547,1.125c-0.734,0.184-1.365,0.281-2.25,0.281
		c-0.563,0-1.127-0.846-1.547-1.266c-0.557-0.557-1.139-1.137-1.547-1.547c-0.436-0.435-1.838-0.279-2.531-0.141
		c-0.848,0.17-1.375,0.238-1.83,0.844c-0.557,0.744-1.053,0.417-1.406,1.125c-0.484,0.968,0.703,1.406,1.125,1.828
		c0.785,0.784,2.07,1.045,2.533,1.969c0.275,0.551-0.039,2.022-0.141,2.53c-0.164,0.815,0,1.831,0,2.672
		c0,1.333,0.104,1.247,1.266,1.827c0.188,0.094,0.375,0.188,0.563,0.281c0.828,0.415,1.479,0.71,1.688,1.547
		c0.254,1.019,0.967,1.497,2.109,1.688c0.807,0.135,1.873,0.748,2.391,1.266c0.75,0.748,1.307,1.024,1.969,1.688
		c0.652,0.652,1.367,0.988,2.111,1.546c0.586,0.44,1.385,0.405,1.969,0.844c0.451,0.339,0.961,1.103,1.266,1.406
		c0.408,0.409,0.93,0.563,1.688,0.563c0.844,0,1.688,0,2.531,0c0.924,0,1.373-0.141,2.25-0.141c0.975,0,1.795,0.633,2.674,0.984
		c0.363,0.146,0.398,1.361,0.563,1.688c0.316,0.635,0.111,1.351,0.422,1.968c0.309,0.618,0.957,0.958,1.547,1.547
		c0.447,0.447,1.082,0.66,1.406,0.984l11.533-8.155l5.063-7.452l-7.453-7.733l-6.33-1.546l4.221-11.108l4.318-18.781l-5.738-1.812
		l3.623-10.871l-6.645-9.361v-9.965l-2.115-5.436l-12.988-20.836l-2.113-9.663l16.613-8.455l0.301-6.342l-12.383-6.945
		l-11.479-4.831l-23.563-7.852c-0.201,0.504-0.402,1.007-0.604,1.51c-0.598,1.496,0.436,1.51-2.416,1.51c-1.51,0-3.021,0-4.531,0
		s-3.02,0-4.531,0c-1.93,0-2.092-0.884-3.02-1.812c-0.994-0.993-1.162-1.627-1.512-3.02c-0.346-1.386-1.266-2.192-2.113-3.321
		c-0.502-0.67-2.895-1.083-3.625-1.813c-0.381-0.381-0.361-3.743-0.604-4.228c-0.568-1.135-1.391-1.691-2.115-2.416
		c-0.752-0.752-2.74-0.766-3.625-1.208c-0.926-0.463-0.906-2.944-0.906-3.926c0-2.082-0.063-2.655,0.906-3.624
		c1.381-1.38,0.311-1.505-0.906-2.114c-0.9-0.45-1.297-2.167-1.51-3.02c-0.406-1.625-1.713-1.233-3.021-0.906
		c-0.354,0.088-1.559,2.465-1.813,2.717c-1.141,1.142-1.607-0.4-2.416-1.208c-0.941-0.942-1.318-2.034-1.813-3.02
		c-0.328-0.658-2.527-1.264-3.02-1.51c-1.242-0.621-1.121-1.714-2.719-2.114c-0.512-0.128-1.275,0-1.813,0
		c-0.5-0.125,0.545-4.599,0.604-4.832c0.367-1.465,0.611-2.444,0.906-3.624c0.365-1.461,0.813-2.04,1.209-3.624
		c0.316-1.266,0.604-2.206,0.604-3.925c0-1.51,0-3.02,0-4.53s0-3.02,0-4.529c0-1.515,0.691-2.369,0.303-3.926
		c-0.277-1.104-1.725-1.46-2.115-3.02c-0.328-1.317,0-3.164,0-4.53c0-1.732,0.131-2.979,0.604-3.925
		c0.654-1.306,1.209-1.062,1.209-3.322c0-1.66,0-2.636,0-4.228c0-0.823-1.813-1.235-1.813-3.02c0-1.51,0-3.02,0-4.529s0-3.02,0-4.53
		c0-1.51,0-3.02,0-4.529c0-1.367-0.604-2.324-0.604-3.926c0-1.234-0.1-2.509-0.303-3.322l-11.779-15.099l-6.947-2.113l-11.479-7.852
		l-12.084-13.287l-6.947-3.02l0.303,6.644l-6.344,8.455l-0.906,15.099L518.166,281.955z"/>
	<path id="path2369" fill="#FFFFFF" stroke="#000000" d="M681.033,525.947l8.592,4.108l16.064-15.687l8.221,3.734l5.23,7.47
		l4.855,0.374v6.35l4.484,3.734l1.494,6.35l7.473-6.723l27.646,10.457l5.23-0.747l-5.23-8.59l-13.076-8.217l-0.748-5.976
		c-0.498-0.498-0.996-0.996-1.494-1.494c-1.072-1.071-1.877-2.623-2.988-3.735c-1.166-1.165-2.102-2.708-2.615-3.734
		c-0.838-1.673-1.932-2.304-2.988-3.361c-1.734-1.732-1.758-1.653-4.111-2.241c-1.693-0.424-2.256,2.928-2.988,0
		c-0.234-0.941-2.068-2.44-2.615-2.988c-1.236-1.236-2.049-2.047-3.361-3.361c-1.486-1.485-2.201-1.41-2.99-2.987
		c-0.918-1.837-1.686-2.205-3.736-2.614c-1.428-0.286-2.672-1.337-3.734-1.868c-1.479-0.738-2.508-1.253-3.736-1.867
		c-1.594-0.796-2.715-1.22-3.736-2.241c-0.904-0.903-0.373-3.935-0.373-5.229c0-2.404-0.359-2.974-1.496-4.108
		c-1.426-1.427-1.867-1.522-1.867-4.108c0-1.291-3.584-0.747-4.857-0.747c-2.688,0-2.867-0.253-4.109-1.494
		c-1.689-1.688,1.225-2.987-2.615-2.987c-1.414,0-2.602-1.675-3.736-2.241c-1.176-0.589-4.252,0-5.604,0c-1.867,0-3.736,0-5.604,0
		c-1.744,0-3.486,0-5.23,0l2.242,5.976l-0.375,10.084l7.1,9.711l-3.736,10.458l5.604,1.867L681.033,525.947z"/>
	<path id="path2373" fill="#FFFFFF" stroke="#000000" d="M763.224,645.837l35.492-34.36l10.836,22.782l12.701-13.445l0.375-6.35
		l11.207-15.313c0.125-0.623,0.25-1.245,0.373-1.868c0.055-0.27-3.072-3.07-3.361-3.361c-0.887-0.887-0.223-3.969,0-4.855
		c0.285-1.144,2.711-2.867,3.361-3.734c1.16-1.547-0.078-3.752-0.373-5.229c-0.412-2.063-2.477-2.007-0.373-4.109
		c1.486-1.486,1.107-2.266,0.373-3.734c-1.096-2.189-2.256-1.838-1.121-4.108c1.047-2.093,1.494-2.809,1.494-5.229
		c0-1.992,0-3.984,0-5.976c0-2.166-0.928-1.868-3.734-1.868c-2.922,0-5.76-0.785-8.594-1.494c-1.949-0.486-3.496-2.001-4.482-2.987
		c-1.723-1.723-2.053-1.862-2.99-3.735c-0.895-1.79-2.895-2.521-3.736-3.361c-1.316-1.316-4.012-0.098-4.855,0.747
		c-0.934,0.934-0.561,3.175-1.494,4.108c-1.719,1.717-2.895-1.13-3.736,2.241c-0.02,0.078,2.24,1.728,2.24,3.361
		c0,1.454-3.203,1.253-3.734,1.12c-1.061-0.265-2.525-2.896-2.99-3.361c-1.178-1.179-2.631,0.034-3.361,1.494
		c-1.234,2.466-3.197-1.416-3.363-2.241c-0.15-0.753-2.896-1.635-3.361-1.867l-9.715,10.457l-5.977-13.818h-4.857l-16.064,14.192
		l3.736,8.591l6.725-0.374l11.955,16.06c-0.156-0.781-0.697,1.868-1.494,1.868c-2.289,0-1.494,2.089-1.494,4.108
		c0,2.086-0.693,2.881-2.615,3.361c-1.615,0.403-2.344,1.697-2.99,2.988c-0.627,1.254,0.182,4.457,0.375,5.229
		c0.764,3.054-1.027,2.661-2.615,1.867c-1.885-0.941-2.143-2.173-4.857-1.494c-0.27,0.068-0.25,0.498-0.373,0.747l-15.691,16.434
		l15.691,18.675c-1.645,0.41,4.098-0.021,4.855,1.494c0.998,1.994-1.936,2.971,1.121,3.734
		C763.509,643.668,763.224,643.797,763.224,645.837z"/>
	<path id="path2375" fill="#FFFFFF" stroke="#000000" d="M690.373,545.742l10.834,6.723l11.209,9.711l5.604-0.374l7.473-5.603
		l4.855,5.977l14.945-5.603l4.482,3.361l15.318-13.445l-27.273-11.205l-7.098,6.723l-2.615-5.976l-3.736-3.734l-0.375-6.724h-5.23
		l-4.855-7.47l-8.594-4.108L690,529.682l-8.967-3.734l-4.484,10.084l6.725,1.867L690.373,545.742z"/>
	<path id="path2377" fill="#FFFFFF" stroke="#000000" d="M739.687,619.319l-12.701-8.964v-7.843l-11.209-10.831l-17.559,5.976
		l-6.352-3.361c-0.623,0.498-1.246,0.996-1.867,1.494c-0.424,0.339-3.465-0.629-4.484-0.374c-1.166,0.291-2.359,1.74-3.361,2.241
		c-1.814,0.907-2.262,0.462-4.111,0c-1.605-0.401-2.553-2.023-3.734-2.614c-1.088-0.544-1.232-0.989-2.242-1.494l-0.373-3.735
		l6.35-0.747c-1.547-0.773,2.615-2.752,2.615-4.481c0-1.964,2.846-2.299,4.111-2.614c1.35-0.338,0.883-2.751,1.867-3.735
		c1.209-1.208,0.41-2.845,0-4.481c-0.633-2.529,0.924-2.79,1.867-3.735c1.289-1.288,2.465-1.79,3.363-2.987
		c0.734-0.979,0.826-3.307,1.121-4.482c0.443-1.775,2.08-1.974,3.361-2.614c1.5-0.749,2.506-1.804,2.99-3.735
		c0.469-1.877,1.084-2.096,1.494-3.734l11.582,9.711l5.23-0.374l7.846-5.603l5.604,6.35l14.57-6.35l4.109,3.735l2.988,8.591
		l7.473-0.374l11.209,15.687c0.15-0.604-0.498,1.494-1.121,1.494c-1.848,0-1.121,2.822-1.121,4.481c0,2.463-0.816,2.538-2.615,2.988
		c-1.994,0.498-2.615,1.273-2.615,3.361c0,0.978-0.748,3.132-0.748,4.855c0,2.638-0.158,2.872-0.373,3.735
		c-0.365,1.459-2.764-1.195-4.109-1.868c-1.807-0.902-2.719-2.202-3.363,0.374c-0.324,1.296-1.199,1.233-2.24,1.494L739.687,619.319
		z"/>
	<path id="path2379" fill="#FFFFFF" stroke="#000000" d="M672.066,593.176l-8.967,7.096l-7.098-6.35l-4.857-3.734l1.867-4.855
		l-2.615-10.084l-8.592-8.591l5.604-2.987l5.23,5.602l14.197-0.746l7.846-7.471l11.207-7.843l5.23-7.47l10.088,6.35
		c-0.633,2.532-1.33,2.286-2.242,4.107c-1.109,2.221-0.318,2.668-2.24,4.109c-1.996,1.495-3.363-1.518-3.363,2.24
		c0,2.201-1.143,2.284-1.867,3.735c-0.547,1.092-1.895,2.268-2.615,2.987c-1.369,1.369-1.539,1.955-2.242,3.361
		c-0.051,0.102,0.545,4.172,0.373,4.855c-0.383,1.531-1.494,1.903-1.494,4.482c0,1.457-3.078,0.463-4.109,1.494
		c-1.141,1.141-1.652,2.025-2.615,2.987c-1.787,1.786,0.646,2.614-2.988,2.614c-2.576,0-3.285-0.078-4.484,1.121
		C670.753,590.752,672.009,593.061,672.066,593.176z"/>
	<path id="path2381" fill="#FFFFFF" stroke="#000000" d="M633.21,512.875l0.375-10.831l-16.813-26.892l-8.219-0.373l-4.857,3.361
		l-8.967-2.241l17.559,32.867l5.979,6.723l23.537,42.204l-0.373,9.338l6.725-3.361l4.855,5.602l14.197-1.12l7.1-6.35
		c-1.377,1.376-3.109-2.359-4.484-3.734c-1.051-1.05-0.865-2.733-2.242-4.108c-0.973-0.974-4.197-0.374-5.604-0.374
		c-2.096,0-2.975-1.674-4.855-2.614c-1.725-0.861-2.801-1.306-4.111-2.614c-0.955-0.956-2.406-1.764-3.361-2.241
		c-1.186-0.593-0.385-2.337-2.988-2.987c-1.504-0.376-1.121-2.036-1.121-4.482c0-2.586-0.371-3.173-2.242-4.108
		c-2.488-1.243-1.055-2.273,0.373-2.988c1.268-0.633,3.658-0.299,4.857,0c0.75,0.188,2.637,2.636,2.988,2.988
		c0.695,0.694,1.578-0.457,2.615-1.494c0.955-0.954,3.428-0.746,4.857-0.746c1.658,0-0.461-2.788-0.748-3.362
		c-0.268-0.535-3.199-1.331-3.734-1.867c-1.547-1.546,1.145-2.614-2.615-2.614c-1.271,0-1.662-1.578-2.99-2.241
		c-2.033-1.016-1.746,0.634-2.24,2.614c-0.543,2.17-2.107-0.367-3.363-1.12c-1.281-0.769-1.748-2.367-2.988-2.987
		c-1.201-0.601,2.535-0.895,3.736-1.494c2.043-1.022-2.34-2.92-2.615-2.988c-2.467-0.616-3.463,1.096-4.111-1.494
		C637.085,513.799,634.146,513.108,633.21,512.875z"/>
	<path id="path2383" fill="#FFFFFF" stroke="#000000" d="M653.011,585.332l-17.559,9.337l-7.473-10.458l-10.834-1.12
		c0-0.622,0-1.245,0-1.867c0-1.889,0.043-4.28,0.373-5.603c0.023-0.088,2.74-0.873,2.99-1.867c0.268-1.07-1.443-2.449-1.121-3.735
		c0.316-1.267,2.375-3.868,2.988-4.481c0.934-0.934,0.934-2.801,1.867-3.735c1.143-1.141,2.027-1.652,2.99-2.614
		c1.717-1.717,0.689-2.025,3.361-3.361c1.539-0.77,0.807,0.493,1.869,2.614c0.168,0.339,4.271-0.747,5.23-0.747
		c1.244,0,2.49,0,3.736,0l0.373,8.964l8.967,8.591L653.011,585.332z"/>
	<path id="path2387" fill="#FFFFFF" stroke="#000000" d="M624.619,561.055l-9.715-9.337c1.852,0-2.426,2.8-3.734,4.108
		c-0.559,0.559-4.717,0-5.605,0c-1.393,0-0.623,3.112-1.867,3.734c-1.295,0.647-4.477,0-5.979,0c-2.566,0-3.184-0.017-4.109-1.867
		c-0.859-1.717-1.121-3.303-1.121-4.481c0-0.4,1.959-2.606,2.242-3.735c0.207-0.828-2.246-2.995-2.615-3.734
		c-0.691-1.383-2.016-2.162-2.615-3.361c-0.764-1.525-2.328-2.415-2.988-3.735c-0.732-1.462-0.225-3.81-0.748-4.855
		c-0.289-0.579-4.959-0.679-5.23-0.747c-1.781-0.444-2.242-3.305-2.242-4.855c0-1.867,0-3.734,0-5.602c0-0.872,0-1.743,0-2.615
		c0-2.011,5.523,2.16,5.605,2.241c1.432,1.433,2.625,1.121,4.855,1.121c0.359,0,0.684-4.6,0.748-4.855
		c0.258-1.032,2.043-2.788,2.615-3.361c1.254-1.253,3.438,1.942,4.109,2.614c1.098,1.097,1.117,1.494,2.988,1.494l13.076-9.711
		l7.473,7.47l22.043,40.337c1.584,1.584-4.484,0-6.725,0c-1.795,0-1.611,2.124-3.736,0c-1.428-1.428-0.992-1.249-2.615,0.373
		C627.382,559.039,626.767,559.767,624.619,561.055z"/>
	<path id="path2390" fill="#FFFFFF" stroke="#000000" d="M763.423,645.416l-38.822,34.107l19.117,22.051l2.941,9.409l-6.766,1.765
		l-4.412-6.175c-0.391-0.294-0.783-0.588-1.176-0.882c-1.293-0.97-2.135-1.84-3.234-2.94c-0.943-0.942-2.229-0.788-3.529-1.765
		c-1.139-0.853-1.389-1.681-2.648-2.939c-1.219-1.22-1.887-2.182-2.941-3.234c-1.049-1.049-2.215-0.883-3.822-0.883
		c-1.918,0-2.566-1.282-4.117-2.058c-1.34-0.67-3.729-0.099-4.707-0.588c-2.234-1.117-1.145,0.433-2.941,0.882
		c-1.541,0.385-3.684,0-5.293,0c-1.148,0-0.365,2.423-1.176,3.234c-0.971,0.969-1.514,1.512-2.648,2.646
		c-0.387,0.387-0.566,0.378-0.881,0.588l-11.766-0.294l-8.234-12.056l-4.707-8.232l3.529-1.764l-5.588-4.705l9.117-0.588
		l-16.764-20.582l-15.293-8.526v-5.88l-5.59-4.705l-2.646,3.528l-17.059-28.814l14.117-11.467l17.646-9.409l-2.059,4.999
		l7.059,5.292l5.295,4.999l8.824-7.351c-0.889,0.887,2.053,1.465,2.939,2.352c1.004,1.004,1.318,1.727,2.648,2.059
		c1.281,0.32,3.082,0,4.41,0c2.205,0,1.127-1.764,3.236-1.764c1.471,0,2.941,0,4.412,0c1.717,0,2.031-0.188,2.352-1.471l6.178,3.234
		l17.352-5.586l11.471,11.172v7.352l12.941,9.114l15,18.229c0.49,0,0.98,0,1.471,0c1.559,0,2.902,0.845,3.529,1.471
		c1.188,1.188-0.205,2.557-0.295,2.646c-0.164,0.163,2.891,1.972,3.234,2.059C764.351,644.252,764.644,643.788,763.423,645.416z"/>
	<path id="path2392" fill="#FFFFFF" stroke="#000000" d="M823.525,835.555c1.145-0.543,4.318-0.795,6.758-0.795
		c2.252,0,4.504,0,6.756,0c3.354,0,1.207-1.179,0-2.384c-1.486-1.486-2.02-1.896-3.975-2.385c-2.127-0.531-3.805-0.114-5.166-0.794
		c-1.799-0.899-2.256-1.074-2.783-3.179c-0.521-2.085-2.771-1.59-4.77-1.59c-3.609,0-3.236-1.135-4.768-3.179
		c-1.127-1.5-2.869-2.626-3.975-3.179c-1.641-0.819-2.307-2.703-3.975-4.37c-1.549-1.547-1.961-2.781-4.77-2.781
		c-2.314,0-4.652-0.129-6.758,0.397c-1.195,0.299-2.535-3.082-2.781-3.576c-1.105-2.21,1.42-3.12,0.396-5.165
		c-0.816-1.635-2.406-2.196-3.576-2.781c-1.693-0.847-2.039-2.833-3.18-3.974c-1.723-1.723,1.746-3.197,2.781-3.974
		c1.434-1.074-2.83-3.401-3.18-3.576c-1.426-0.713-2.133-2.133-3.178-3.178c-1.6-1.6-2.217-1.713-2.783-3.974
		c-0.543-2.173,1.127-3.113,1.988-3.974c1.416-1.417,1.191-2.993,1.191-5.165c0-1.686,2.822-2.068,3.576-3.576
		c0.9-1.798,0.334-4.435-0.795-5.563c-1.033-1.034,1.053-3.063,0.398-4.37c-0.871-1.743-2.709-1.59-4.77-1.59
		c-2.508,0-3.58-0.004-4.77-1.191c-1.07-1.071-2.357-1.96-3.576-3.179c-2.322-2.32-0.207-2.575,1.59-4.371
		c1.922-1.922,0.975-2.601-0.398-3.974c-1.826-1.825-2.787-1.976-1.59-4.37c0.662-1.324,0.398-4.126,0.398-5.563
		c0-0.79-2.734-2.585-3.18-3.179c-0.971-1.293-2.723-2.553-3.975-3.179c-2.334-1.167-2.654-0.27-4.373-1.986
		c-1.496-1.496-0.396-4.329-0.396-5.166c0-0.871-3.781-1.839-4.373-1.986c-1.773-0.443-3.145-0.786-4.77-1.192
		c-1.564-0.391-2.613-2.048-3.178-3.178c-0.461-0.918-2.551-2.152-3.18-2.781c-1.318-1.318,0.188,0.374-0.398-0.795l-5.906,1.889
		l-4.814-6.211l-2.643-1.864c-0.154-0.259-0.311-0.518-0.465-0.776c-0.352-0.585-0.949-1.242-1.709-1.242
		c-0.871,0-1.529-0.531-2.02-0.776c-0.488-0.244-1.047-1.046-1.398-1.397c-0.588-0.589-0.861-0.996-1.398-1.397
		c-0.664-0.498-0.814-1.155-1.553-1.709c-0.672-0.503-0.926-1.081-1.398-1.553c-0.496-0.496-0.971-0.951-1.553-1.242
		c-0.74-0.37-0.66-0.621-1.863-0.621c-0.779,0-1.793-0.048-2.33-0.155c-0.727-0.145-1.297-1.054-1.555-1.397
		c-0.363-0.484-0.98-0.634-1.553-0.776c-0.811-0.203-1.232-0.311-2.176-0.311c-0.799,0-1.377,0.166-2.02-0.155
		c-0.66-0.331-1.281-0.311-2.174-0.311c-0.453,0-1.072,1.071-1.242,1.242c-0.68,0.68-1.105,0.369-2.176,0.155
		c-0.701-0.141-1.324-0.155-2.174-0.155c-0.869,0-1.555-0.146-1.555,0.776c0,0.98,0,1.398-0.465,1.863
		c-0.082,0.082-0.104,0.207-0.156,0.311c-0.219,0.438-1.027,1.028-1.398,1.397c-0.445,0.446-0.693,1.03-1.086,1.554
		c-0.262,0.348-0.609,0.466-1.088,0.466l-11.65-0.311l-8.389-12.113l-9.475,12.89l-15.535-10.561l-4.193-14.598l-2.951,18.636
		l-16.934-4.504l-0.154,10.716l1.398,7.92l-11.293,0.492l-4.008,16.02l13.355,4.45l0.891,11.57l4.451,11.125l-6.678,3.561v5.785
		l7.568,8.01l2.225,11.126l4.896-3.115l17.807,7.564l4.896-9.345l-2.227-5.785l3.117-2.67l4.006,6.675l6.678-0.445l6.23,2.671
		l-17.805,8.899l0.445,20.025h22.701l-9.348-12.015l18.695,1.335l-3.561,12.46l-8.457,7.12l8.902,8.011l2.227-4.896l4.896-0.445
		c0.297-0.593,0.594-1.187,0.891-1.779c1.332-2.666-1.949-5.16,2.67-4.006c3.111,0.778,3.531,3.89,4.006,5.785
		c0.059,0.232,6.836,0,7.568,0c2.373,0,4.748,0,7.121,0c1.074,0,1.328,2.226,4.451,2.226c2.467,0,3.516,1.597,4.008,3.56
		c0.254,1.021-4.682,1.504-5.787,1.78c-1.104,0.276-3.438,3.881-4.006,4.45c-1.924,1.922,0.281,4.287,0.889,4.896
		c1.461,1.459,4.361,0.268,0.445,2.225c-2.121,1.061-3.115,0.283-3.115,3.561c0,2.882,0.508,4.449-2.672,4.449
		c-2.225,0-4.451,0-6.676,0c-2.426,0-0.123,4.651,0,4.896c0.215,0.429,5.957,0,6.676,0c2.227,0,4.453,0,6.678,0
		c1.188,0,2.375,0,3.561,0l32.051-9.345c0.594,0,1.188,0,1.781,0c2.129,0,0.432-6.255,2.67-1.78
		c0.719,1.437,0.445,4.133,0.445,6.229c0,0.166,2.898-3.342,3.117-3.56c1.582-1.583,0.197-4.697,3.115-1.78
		c1.598,1.598,0.771,3.798,2.227,0.891c1.156-2.314,2.811-2.372,4.006-2.671c2.141-0.534,2.891,3.336,4.451,4.896
		c1.715,1.714,3.334,0.671,4.451-0.445c1.674-1.674,1.748-2.67,4.896-2.67c2.514,0,4.807-0.018,7.123,0.445
		c3.057,0.611,4.006,0.165,4.006-2.67c0-1.845,4.4-1.78,5.787-1.78c2.885,0,1.684,2.273,4.451,0.89
		c2.553-1.275,3.201-1.479,5.787-0.444c3.043,1.216,1.514,4.071,5.342,3.115C822.035,835.831,822.785,835.708,823.525,835.555z"/>
	<path id="path2408" fill="#FFFFFF" stroke="#000000" d="M825.179,834.95c-0.479,0.594-0.619,2.02-0.619,3.306
		c0,1.333,2.635,1.033,3.512,1.033c1.543,0,0.928,1.226,1.24,2.479c0.383,1.528,0.188,1.437,1.447,2.066
		c1.543,0.771,2.41,1.446,4.133,1.446c1.643,0,3.08,0.198,4.135,0.619c0.674,0.27,0.432,2.143,0.619,2.893
		c0.289,1.155-0.123,2.273,1.447,2.273c1.377,0,2.576,0.206,3.721,0.206c1.408,0,2.383-0.387,2.686,0.826
		c0.123,0.49,3.355,1.301,3.721,1.446c0.893,0.357,1.676,0.918,1.859,1.653c0.311,1.243-1.797,1.909-2.273,3.099
		c-0.459,1.15-0.996,2.198-1.445,3.1c-0.436,0.868-1.336,1.212-2.273,1.446c-1.08,0.27-1.268,0.861-1.861,1.653
		c-1.109,1.479,0.852,1.813,1.861,2.065c1.496,0.374,3.1,0.527,3.1,2.066c0,1.553,2.652,1.016,3.926,1.653
		c1.596,0.797,4.652,0.181,6.408,0.619c1.193,0.299,2.883,0,4.133,0c1.26,0,1.059-0.877,1.447-1.652
		c0.414-0.831,0.895-1.378,1.859-1.859c0.75-0.375,1.844-0.461,2.48-0.62c1.041-0.261,2.438,0,3.514,0
		c0.941,0,1.793,2.251,2.273,2.893c1.246,1.661,2.016,2.002,3.926,2.479c1.418,0.354,2.813,0.062,3.928,0.619
		c0.988,0.495,0.826,2.225,0.826,3.307c0,1.17,0,2.341,0,3.512c0,0.919-1.795,0.397-2.688,0.62c-1.352,0.338-0.24,1.618,0.207,2.066
		c0.594,0.593,2.957,0.206,3.721,0.206c1.568,0,1.543,0.799,1.859,2.066c0.246,0.984-0.031,2.435-0.205,3.306
		c-0.18,0.896-1.854,0.616-2.688,1.033c-1.229,0.613-1.098,1.359-2.273,1.652c-0.943,0.236-2.033,0.207-3.1,0.207
		c-1.135,0-2.166,0.152-3.102,0.62c-1.004,0.502-1.836,1.021-2.686,1.446c-1.199,0.599-1.176,1.12-2.48,1.446
		c-0.662,0.165-0.838,0.055-1.447,0.206c-1.129,0.282-4.117-1.65-5.373-1.859c-0.967-0.161-2.205-0.964-3.307-1.239
		c-1.209-0.302-2.842-1.333-3.721-1.859c-1.295-0.777-2.652-1.062-4.133-1.653c-1.451-0.58-2.898-1.139-4.34-1.859
		c-0.926-0.463-2.27-0.773-3.307-1.033c-1.084-0.271-2.373-0.207-3.514-0.207c-1.15,0-2.49,0.207-3.721,0.207
		c-1.33,0-2.395,0.207-3.721,0.207c-1.338,0-2.65-1.557-3.926-2.066c-1.195-0.479-2.332-0.944-3.514-1.239
		c-1.467-0.367-3.213-0.207-4.754-0.207c-1.24,0-2.48,0-3.721,0c-0.725,0-2.428-1.922-3.307-2.272
		c-1.004-0.402-1.936-0.446-2.893-0.207c-0.795,0.198-1.053,1.279-1.447,2.066c-0.469,0.937-0.412,2.063-0.619,3.099
		c-0.256,1.277-0.672,2.581-1.24,3.72c-0.574,1.147-1.129,2.137-1.859,2.686c-0.963,0.721-0.207,0.784-0.207,2.272
		c0,1.062,0.207,2.328,0.207,3.513c0,1.362-0.08,1.653-1.447,1.653c-1.096,0-1.033-1.133-1.033-2.273
		c0-1.445,0.154-2.53-0.621-3.306c-1.053-1.054-2.156-0.028-2.686,1.033c-0.527,1.051-1.375,2.407-1.861,2.893
		c-0.662,0.662,1.654,1.336,1.654,2.272c0,0.845-1.182,1.594-1.654,2.066c-0.648,0.648-1.307,1.58-1.652,2.272
		c-0.426,0.849-1.318,0.826-1.861,0.826c-0.918,0-1.59-0.397-2.479-0.619c-0.201-0.051-0.414,0-0.621,0
		c-0.537-0.135-3.037-1.415-3.514-1.653c-0.939-0.47-1.689-1.254-2.686-1.652c-1.098-0.439-2.527-0.207-3.721-0.207
		c-1.186,0-2.463-1.02-3.307-1.652c-0.791-0.594-2.291-1.244-3.1-1.446c-0.373-0.094,1.359-2.544,1.445-2.893
		c0.35-1.399-0.51-1.544-1.033-2.066c-0.791-0.791-1.482-1.275-2.273-2.066c-0.883-0.884-0.871-1.889-0.619-2.893
		c0.275-1.102,0.596-1.13,1.859-1.446c1.402-0.351,1.494,0.112,2.066-1.033c0.449-0.896,1.033-1.363,1.033-2.479
		c0-1.072,0.207-2.145,0.207-3.307c0-1.378-0.773-1.6-1.445-2.272c-0.721-0.72-1.689-1.111-2.688-1.859
		c-1.193-0.895-2.047-0.925-3.307-1.239c-1.068-0.268-2.061-0.207-3.307-0.207c-0.822,0,0.561-1.18,0.826-1.446
		c0.715-0.714,0.877-1.265,2.066-1.859c0.645-0.322,0.768-1.38,1.861-1.653c0.404-0.101,3.131,2.452,3.307,2.687
		c0.646,0.862,1.574,1.581,2.686,1.859c1.484,0.371,1.756,0.932,2.688,0c0.539-0.539,1.111-2.017,1.447-2.687
		c0.203-0.406-1.404-1.403-1.654-1.652c-0.566-0.566-1.492-0.838-2.273-1.033c-1.084-0.271-1.375-0.688-2.48-1.239
		c-1.166-0.584-1.625-1.433-2.48-1.86c-0.711-0.355-0.412-1.858-0.412-2.686c0-1.266,2.238-0.379,3.1-0.207
		c1.227,0.246,1.717,0.72,2.688,1.446c1.213,0.911,1.768,1.165,2.893,1.446c1.459,0.365,2.012,0.262,2.688-0.413
		c0.652-0.653-0.078-2.428-0.207-2.686c-0.32-0.642-1.625-1.211-2.066-1.653c-0.965-0.964-1.922-1.094-2.895-2.065
		c-0.703-0.704-1.375-1.169-2.066-1.86c-0.725-0.724-1.176-1.637-1.652-2.272c-0.486-0.646,1.006-1.833,1.24-2.065
		c0.912-0.913-1.326-2.44-1.654-2.687c-0.859-0.645-0.619-1.587-0.619-2.893c0-0.888-1.006-1.831-1.447-2.272
		c-0.65-0.65-1.225-0.812-1.861-1.446c-0.645-0.646-1.166-1.166-1.859-1.859c-0.309-0.31-0.648-1.296-0.826-1.653
		c-0.662-0.662,1.426-1.363,1.652-2.272c0.195-0.774,1.629-1.033,2.48-1.033c1.186,0,2.039,0.09,2.688,0.413
		c0.439,0.22,1.045,1.883,1.24,2.273c0.232,0.464,1.475,1.268,1.859,1.652c0.842,0.842,0.705,1.033,2.273,1.033
		c1.301,0,1.199-0.663,1.447-1.653c0.199-0.796,1.248-1.14,1.859-1.446c0.883-0.44,1.217-0.619,2.48-0.619c1.033,0,2.066,0,3.1,0
		s2.066,0,3.1,0c1.08,0,2.125-0.038,3.102,0.206c1.248,0.313,2.09-0.046,2.479-0.826c0.369-0.737,0.252-2.246,0.414-2.893
		c0.154-0.615,2.225-0.62,2.688-0.62c1.033,0,2.066,0,3.1,0c1.266,0,2.016-0.202,2.273,0.826c0.053,0.212-0.414-0.137-0.619-0.206
		c-0.82-0.272,1.5,0.854,2.273,1.239c0.654,0.328,0.941-1.269,1.652-1.446c1.121-0.28,1.709-0.413,2.893-0.413
		c1.313,0,1.99-0.308,2.273,0.826c0.035,0.136,1.625,1.211,1.861,1.447c1.041,1.041,0.09,1.652,2.066,1.652
		c1.057,0,1.936-0.432,2.688-0.62C823.988,835.609,824.39,835.543,825.179,834.95z"/>
	<path id="path2412" fill="#FFFFFF" stroke="#000000" d="M793.478,903.99c-2.041,0.764-2.336,1.272-2.336,4.005
		c0,2.247,0.334,4.368,0.334,6.676c0,1.668,0,3.337,0,5.006c0,2.118,0.018,2.995-1.336,3.671c-0.322,0.161,0,4.467,0,5.007
		c0,1.977,1.182,2.298,2.67,2.67c1.441,0.36,3.424,1.982,4.342,2.67c1.447,1.085,1.449,2.227,3.004,3.004
		c1.229,0.614,2.611,1.923,3.672,3.338c1.254,1.67,1.67,1.381,1.67,4.005c0,2.171-1.432,0.954-1.002,2.67
		c0.283,1.131,3.178,2.089,4.34,2.67c1.113,0.557-0.746,1.493-1.334,2.67c-0.854,1.703-1.652,2.968-2.338,4.339
		c-1.063,2.123-1.336,1.116-1.336-1.001c0-1.814-0.334-3.193-0.334-5.006c0-1.295-1.898-2.061-3.004-2.337
		c-0.307-0.076-2.248,2.915-2.338,3.004c-1.234,1.234-2.732,2.42-3.672,3.672c-0.813,1.083-2.51,2.048-3.338,2.67
		c-1.389,1.041-1.969,1.531-2.338,3.004c-0.367,1.467,0.4,3.267,0.668,4.339c0.43,1.721,1.035,2.703,2.004,3.671
		c1.016,1.017,2.539,1.77,3.672,2.336c1.385,0.692,2.566,0.897,3.672,2.003c1.201,1.199,1.516,1.849,2.672,3.004
		c1.088,1.088,2.92,0.877,0.668,2.003c-1.314,0.656-2.01,1.675-3.006,2.67c-1.334,1.333-1.52,1.409-3.004,0.667
		c-1.203-0.602-2.234-1.231-3.006-2.002c-1.744-1.744-1.668-0.469-1.668,1.668c0,1.78,0,3.561,0,5.341
		c0,2.323-0.469,3.004,2.002,3.004c2.168,0,3.813,1.203,5.676,1.668c1.252,0.313,1.336,0.999,1.336,3.004
		c0,2.877,0.813,4.193-0.668,5.674c-1.063,1.063-1.311,2.953-2.004,4.339c-0.615,1.231-2.67-1.335-4.006-1.001
		c-0.174,0.043,0,4.555,0,5.007c0,2.301,0.07,2.934-1.002,4.005c-0.498,0.498-4.213,0-5.008,0c-2.668,0-2.668-0.332-4.006-1.669
		c-1.123-1.123-2.246-2.246-3.004-3.004c-1.385-1.384-1.982-1.841-4.006-1.335c-1.414,0.354-2.965,1.961-4.008,3.004
		c-0.969,0.969-2.369,1.335-4.006,1.335c-2.064,0-4.111-0.944-5.676-1.335c-1.631-0.408-3.416-0.282-5.342-0.668
		c-1.869-0.373-3.531-0.548-5.342-1.001c-1.748-0.437-2.875-1.283-4.674-2.002c-1.342-0.537-2.861-1.526-3.672-2.337
		c-0.803-0.803-1.777-1.776-2.672-2.67c-1.219-1.219-2.018-2.019-3.338-3.338c-1.209-1.209-1.432-2.099-2.336-3.004
		c-0.842-0.839-0.789-3.576-1.336-4.672c-0.869-1.739-1.266-2.723-1.67-4.339c-0.367-1.47-0.633-2.867-1.002-4.339
		c-0.398-1.596-1.453-2.789-2.336-3.672c-1.045-1.044-1.945-1.988-3.34-2.336c-0.59-0.147-2.584-2.689-3.004-3.004
		c-1.4-1.051-3.607-1.469-4.674-2.003c-1.111-0.555-2.957-0.738-4.006-1.001c-1.787-0.446-3.07-1.534-4.674-2.336
		c-1.76-0.88-3.459-2.063-4.676-2.67c-1.23-0.615-3.152,1.483-3.672,2.002c-1.006,1.006-2.744,1.372-4.006,2.003
		c-1.053,0.525-3.801,0-5.008,0c-2.141,0-3.184-0.31-4.006,1.335c-0.014,0.026,2.461,1.46,3.004,2.002
		c1.582,1.583,0.422,1.626-1.002,2.337c-1.721,0.86-2.498,2.164-3.338,3.004c-1.1,1.099-1.736,1.669-3.672,1.669
		c-1.67,0-3.34,0-5.008,0c-1.369,0-3.092-1.712-4.34-2.337c-0.945-0.473-2.875,0.668-4.342,0.668c-0.994,0-2.621-1.181-4.674-0.668
		c-2.479,0.62-2.939,1.065-4.674-0.667c-1.416-1.416-0.055-3.074,1.002-3.338c2.385-0.596,3.285-0.642,5.342-1.669
		c1.545-0.772-0.572-3.813-0.668-4.005c-0.344-0.689,0-2.54,0-3.338l7.346-6.675v-8.01l14.021-14.686l-0.334-7.343
		c-1.045-2.09,4.674,0,7.012,0c2.143,0,1.568-1.468,2.336-3.004c0.605-1.211,0.334-3.568,0.334-5.007
		c0-2.183,0.195-3.142-1.002-4.338c-0.498-0.499-4.215,0-5.008,0c-0.586,0-1.537,3.144-1.668,3.671
		c-0.258,1.025-2.455,2.336-3.674,2.336c-1.449,0-1-2.8-1-4.005c0-1.707-2.807-1.001-4.342-1.001c-2.145,0-3.5-0.334-5.342-0.334
		c-2.139,0-2.904,0.284-4.34,1.001c-1.971,0.985,1.422,3.86-2.002,3.004c-2.41-0.602-2.004-2.205-2.004-4.339
		c0-1.446,1.336-2.207,1.336-4.339c0-1.954,0.02-3.298-0.668-4.672c-0.23-0.462-4.5-0.875-5.008-1.002
		c-1.365-0.341-0.707-2.746-1.336-4.005c-0.578-1.158-1.871-0.809-2.336-2.67c-0.191-0.765-0.334-1.409-0.334-2.336
		c-0.289-1.15,5.945-1.002,6.676-1.002c1.893,0,3.688,0.271,5.676,0.668c1.711,0.342,3.916,0,5.676,0
		c2.029,0,2.486,0.633,3.338,2.336c0.547,1.091,2.795,0.668,4.342,0.668c1.668,0,3.338,0,5.008,0c2.289,0,1.668-1.783,1.668-3.672
		c0-0.613,4.41-0.333,5.008-0.333c2.023,0,1.336-2.387,1.336-4.006c0-1.295-0.334-3.15-0.334-4.672c0-2.476,0.09-2.526,2.004-3.004
		c0.717-0.18,0.334-3.988,0.334-4.673c0-1.669,0-3.338,0-5.007c0-1.125,3.436-0.667,4.34-0.667c1.67,0,3.338,0,5.008,0
		c2.023,0,1.336-2.386,1.336-4.005c0-1.669,0-3.338,0-5.007c0-2.409,1.574-1.716,3.004-1.001c0.68,0.34,1.453,3.24,1.67,3.671
		c0.604,1.208,3.512,0.668,4.674,0.668c1.436,0,0.381-4.15,0.334-4.339c-0.264-1.052-2.691-2.013-3.34-2.336
		c-0.996-0.498-1.545-2.213-2.336-3.004c-0.5-0.499-4.215,0-5.008,0c-1.781,0-3.561,0-5.342,0c-2.244,0-2.926,0.157-3.672-1.336
		c-0.789-1.576-0.941-2.274-2.004-3.337c-1.26-1.26-2.004-1.166-2.004-3.338c0-1.514-1-2.551-1-4.339
		c0-1.007,3.088-0.334,4.34-0.334c1.668,0,3.338,0,5.008,0c2.178,0,3.191-0.586,3.672,1.336c0.512,2.048,0.326,2.165,2.004,3.003
		l8.346-1.001l8.346,0.334l31.383-9.679c0.59,2.357,4.225-1.874,4.34-2.337c0.162-0.646-0.268-1.871,1.002,0.668
		c1.223,2.441,2.324,2.683,0.668,4.339c-0.836,0.835-0.117,3.472,0.668,0.333c0.5-1.999,0.902-2.954,2.338-3.671
		c2.346-1.173,1.125-1.21,3.338,1.001c1.246,1.245,1.631,2.187,2.004,3.672c0.205,0.82,2.553,0.535,3.004,2.336
		c0.316,1.267,1.895,3.229,3.004,4.339c1.299,1.297,1.672,1.668,0.334,3.004c-1.217,1.218-1.646,2.092-1.334,3.338
		c0.236,0.947,3.465,2.066,4.006,2.336c1.133,0.566,2.141,1.474,3.004,2.337c1.105,1.105,2.672,0.636,2.672,2.67
		c0,2.533-0.213,2.336-2.672,2.336c-1.758,0-2.939-1.136-4.006-1.669c-1.619-0.809-1.674-1.669-3.672-1.669
		c-1.775,0-1.531,0.449-2.004,2.337c-0.492,1.965,1.502,2.002,3.004,2.002c1.422,0,3.195,1.857,3.674,2.337
		c1.158,1.158,3.004,0.832,3.004,2.67c0,1.813-0.725,3.004-2.336,3.004c-1.77,0-3.086-0.748-4.008-1.669
		c-1.402-1.402-1.787-2.229-3.338-3.004c-1.164-0.582-3.852,1.425-4.34,1.669c-2.021,1.01-2.186,1.061-2.672,3.004
		c-0.404,1.619,3.34,0,5.008,0c0.912,0,2.455,1.451,3.006,2.002c0.879,0.88,1.5,2.126,2.67,3.004
		c1.973,1.479,2.338,0.657,2.338,3.672c0,2.077,0.42,3.232-1.336,3.671s-3.258,0.127-4.34,0.668
		c-1.641,0.819,0.473,3.81,0.668,4.005c1.275,1.274,2.24,1.613,2.67,3.338c0.457,1.827-0.307,2.643-1,3.337
		c0.477,1.913,3.91,0.787,5.674,1.669c1.223,0.61,0.34,1.669,3.34,1.669c1.885,0,3.404,0.367,4.674,1.001
		c2.096,1.048,3.949,2.437,4.674,2.003C795.705,902.655,794.082,903.749,793.478,903.99z"/>
	<path id="path2414" fill="#FFFFFF" stroke="#000000" d="M453.89,151.488c-0.371,1.345,1.432,5.896-1.686,5.896
		c-2.723,0-4.301-0.445-5.898,1.685c-1.494,1.991,0.064,3.07-3.791,2.106c-0.797-0.199-3.398,2.105-4.635,2.105
		c-2.381,0-1.631-2.344-4.635-0.842c-1.252,0.626-1.064,4.68-1.264,5.475c-0.275,1.1-4.205,1.682-5.055,2.106
		c-0.623,0.312-1.498,5.571-1.686,6.318c-0.492,1.967-2.984,1.913-4.213,2.527c-1.307,0.653-2.852,4.956-3.791,5.896
		c-1.912,1.91-2.529-0.553-2.529,3.791c0,2.261,1.719,5.054-1.264,5.054c-1.873,0-0.426,3.8-1.264,5.476
		c-0.371,0.743-3.41,0.502-4.213,2.105c-0.861,1.723-5.102-2.993-5.477-3.369c-1.838-1.838-3.07-1.685-5.898-1.685
		c-2.277,0-2.33,2.416-5.477,0.842c-3.213-1.606-3.318-1.315-5.477,0.842c-1.777,1.777-2.125-2.562-2.527-3.369
		c-0.141-0.281-0.281-0.562-0.422-0.843c-0.068-0.137-1.561,4.088-3.791,6.318c-1.422,1.42-2.488,3.709-3.371,5.475
		c-0.695,1.39-1.775,3.727-2.107,5.054c-0.498,1.995-3.863,3.442-5.055,4.633c-1.646,1.645-2.852,2.977-3.371,5.054
		c-0.043,0.17,2.668,5.52,2.949,5.896c0.908,1.209-3.143,0.616-4.213,1.685c-1.053,1.053-1.475,2.738-2.527,3.791
		c-1.047,1.047-2.051,3.256-2.527,4.212c-1.07,2.141-1.518,4.297-2.527,6.317c-0.828,1.655-1.863,4.027-2.949,5.476
		c-1.309,1.743-1.494,3.956-2.949,5.896c-1.395,1.859-2.025,4.05-2.949,5.896c-1.023,2.045-3.109,3.95-4.213,5.054
		c-1.848,1.846-2.963,0.836-4.635,0c-2.246-1.123-1.498-2.106-4.635-2.106c-2.711,0-0.904,4.15-0.42,4.633
		c1.758,1.759,2.527,1.262,2.527,4.633c0,2.135-3.467,0.842-5.057,0.842c-0.672,0-1.541,4.347-1.684,4.633
		c-0.232,0.464-1.092,1.09-1.266,1.264l36.654,18.531l-35.811,105.293l5.898-3.791l23.592,13.478l-7.584,7.581l3.371,4.633
		l-5.898,58.543l24.436,6.317l-16.852,21.9h-10.953l-2.107,18.531l12.639,24.428l18.537,13.899l21.908,0.421l31.176,0.421
		l5.055,3.369l1.686-3.369l29.49,18.953l-1.264-38.327l6.32,7.16l5.477-0.843l0.422-5.896l7.162,2.526l8.846-16.004l13.482,9.266
		l6.74,0.421l11.375,11.793l24.014,4.212l-5.055-21.48l-13.482-12.213l7.584-12.215l9.689,6.318l2.527-3.37l-3.791-4.633h27.805
		l7.584,5.896c-0.656,1.312,3.334,0.091,4.213,1.264c1.635,2.179,1.049,2.106,4.635,2.106c2.787,0,2.533-1.664,2.105-3.37
		c-0.635-2.54-0.602-3.279,1.266-4.212c2.01-1.004,1.746-0.616,4.213,0c2.348,0.588-0.014,3.37,3.791,3.37
		c1.1,0,2.416-2.837,2.949-3.37c0.625-0.624,3.975-1.355,4.635-1.685c1.529-0.765,2.682-1.762,4.213-2.526
		c1.424-0.713,1.525-0.947,2.105-2.106l-18.115-33.272l-10.533-8.423l-8.004-14.741l-2.949-16.426l-8.004,6.739l-3.371-7.581
		l7.162-20.638l-6.74-7.16l-6.32-0.842l-4.635,2.105l-5.477-6.738l7.584-2.948l5.898-9.687l-11.375-9.266l-9.27,5.896l-6.318-7.581
		v-10.95l-9.689-26.112l-8.848-13.478l10.953-9.266l-5.898-36.221l-2.949-10.95l-3.791,1.685l-9.689-11.372l3.369-4.212
		l-13.902-6.317l27.385-49.698l-27.385-26.534l-16.852-8.002L453.89,151.488z"/>
	<path id="path2416" fill="#FFFFFF" stroke="#000000" d="M327.343,278.091v9.405l-21.952,40.309l-23.745,53.745l7.617,5.375
		l-3.137,7.614l-9.408-6.27l-1.344,20.154l8.064,2.687l-5.377,4.479l8.513,9.853l-1.792,19.707l5.376,8.51v28.216l-2.239,22.394
		l7.168,4.479l4.031,10.749v21.05l8.064,8.51v9.854l-6.721,0.896v7.166l-10.752,7.166l-0.447,5.822l11.199,11.645l4.929,3.583
		l5.376,8.958l0.896,6.271c0.447,0.597,0.895,1.193,1.344,1.791c0.133,0.177,6.523,1.021,7.168,1.344
		c1.746,0.873,2.734,4.215,3.137,5.822c0.545,2.181,3.545,2.22,5.375,3.135c1.77,0.885,6.076,0.959,7.617,1.344
		c2.471,0.618,4.328,4.254,5.824,5.375c1.758,1.318,2.922,1.626,5.375,2.239c1.541,0.385,2.045-2.751,3.584-3.136
		c1.287-0.321,4.779,3.584,7.168,3.584c3.123,0,3.457,0.191,4.48,2.238l8.961-8.509l30.912-16.571l19.713-11.197l-28.225-29.56
		l-20.609-0.896l-18.367-13.437l-12.992-24.633l3.135-18.811h9.857l17.92-21.946l-25.537-6.27l6.721-58.225l-4.033-5.374
		l8.064-7.166l-23.295-12.988l-6.721,4.031l36.289-106.146L327.343,278.091z"/>
	<path id="path2418" fill="#FFFFFF" stroke="#000000" d="M402.238,608.734l19.482,19.136l8.203-14.01l3.076,2.733l-10.254,21.869
		l5.811,8.885l-5.469,4.783l6.836,5.467l2.393,11.618l3.076-5.809l0.684-14.01l25.637-20.844l8.887,1.024l11.621,20.503
		l10.254,7.176l18.799-1.709l22.219-17.769h5.811l-28.029,58.432l21.877,0.684c0.455-0.114,0.91-0.229,1.367-0.342
		c1.975-0.494,2.734,2.625,2.734-0.684c0-1.709,0-3.417,0-5.126c0-0.228,0-0.455,0-0.683l5.811,9.909l-13.672,28.02l17.773-5.468
		l1.709,10.252l3.418,3.758c0-0.509,0.912,0.456,1.367,0.684l20.508-7.176l-1.709-8.542l0.342-6.834l15.723-6.835l4.443,2.051
		l0.344,7.518l7.178,1.367l-2.051-14.352l-29.055-33.829l18.799,9.226l13.674-3.758l3.76,7.517l7.178,1.025
		c0-1.808,2.916-4.685,3.76-5.809c1.699-2.267-0.563,1.123,0.342-0.684l2.051,15.035l8.203-5.81l16.748,4.784l3.076-17.427
		l4.443,13.668l15.383,10.251l8.887-12.643l-3.76-7.859l3.076-1.367l-5.127-5.125l9.229-0.342l-17.434-21.186l-15.381-8.543v-5.467
		l-5.127-5.126l-2.734,3.759l-17.432-29.045l15.039-11.618l-7.861-10.251l-11.279-1.024l0.342-6.493
		c0.398-0.531,0.684-1.139,1.025-1.708c0.828-1.38,2.359-1.301,3.076-2.733c0.48-0.962-1.449-1.691-1.709-2.734
		c0-0.001,1.709-2.453,1.709-3.759c0-1.149,1.748-2.088,2.393-2.733c0.789-0.788,0.684-1.075,0.684-2.392l-9.229-8.201
		c1.025-1.025-1.67,2.724-3.076,3.075c-1.457,0.364-2.521,0.737-4.102,0.342c-2.508-0.627-2.734,0.286-2.734,2.392
		c0,1.633-2.115,1.367-3.76,1.367c-1.709,0-3.418,0-5.127,0c-1.951,0-2.01-1.325-3.076-2.392c-1.553-1.552-1.748-1.974-1.027-3.417
		c1.025-2.048,2.197-1.268,2.736-3.417c0.119-0.478-1.553-2.788-1.709-3.417c-0.246-0.979-1.838-2.179-2.395-2.734
		c-1.104-1.104-1.801-1.893-2.393-3.075c-0.92-1.842-1.709-1.247-1.709-3.759c0-2.507-0.066-2.596-1.709-3.417
		c-1.287-0.644-3.256-0.341-4.785-0.341c-1.332,0-0.77-2.566-1.367-3.76c-0.643-1.287-0.342-3.254-0.342-4.783
		c0-1.595,0-3.189,0-4.784l-7.52-5.809l-28.027-0.684l4.443,5.468l-2.734,3.416l-9.912-6.492l-7.52,12.985l13.672,11.618
		l4.785,22.21l-23.586-5.125l-11.963-11.96l-6.836-0.342l-13.672-9.226l-8.545,16.401l-7.178-3.417l-0.342,6.492l-5.127,0.684
		l-6.494-7.176l1.367,38.271l-29.738-18.451l-1.709,4.1l-4.785-4.441h-32.813l28.027,29.728L402.238,608.734z"/>
	<path id="path2420" fill="#FFFFFF" stroke="#000000" d="M665.373,961.969l-0.969-9.695h-20.367v5.817l-12.121-4.363l-12.123-18.42
		l0.486-6.302l-24.246-13.088l-5.332,5.332l-35.398-11.634l-23.758-1.454l-16.002,0.97l-14.547-23.268l-6.789-2.908l-16.486-20.845
		l-0.484-18.904l-14.063-2.424l1.455-7.271l-19.395-5.332l2.424-12.604l13.576,3.878l7.76-14.542h13.092
		c0.322-0.808,0.646-1.615,0.969-2.424c0.65-1.623-3.127-1.673-4.363-2.908c-1.756-1.755-4.459-3.198-5.818-3.878
		c-2.641-1.32-3.037-2.424,0.484-2.424c3.764,0,4.85,1.029,4.85-2.424c0-3.342-0.102-4.262,1.453-5.816
		c1.861-1.86,5.127,1.454,7.76,1.454c2.424,0,4.848,0,7.273,0c0.969,0,1.939,0,2.908,0l6.305-18.42l12.605,0.484l3.879,17.936h7.273
		l0.971-10.664l10.668,0.969l1.453,8.726l4.85-0.484l6.789-25.691l-1.939-6.787c0.869,0,0.646-1.615,0.969-2.423l5.334-10.665
		l24.73-0.484l7.273-7.756l19.879,8.24l8.244-5.332l-3.879-3.878h-6.305v-7.756l2.426-3.878l-10.668-14.542l-27.639-33.447
		l17.941,9.21l13.092-3.878l4.363,7.756l6.303,0.484l4.365-5.332l2.424,14.058l8.729-5.816l-0.971,11.148l2.426,8.241h-11.639
		l-4.848,16.966l13.576,3.878l0.484,10.18l4.85,12.604l-6.305,3.393v4.848l6.789,9.21l2.424,11.149
		c-0.295,0.067-0.592,0.135-0.889,0.202c-0.428,0.097-0.201,2.421-0.201,2.827c0,1.01,0,2.02,0,3.029
		c0,1.266,0.201,2.387,0.201,3.636c0,1.01,0,2.021,0,3.03c0,0.573-1.777,1.191-2.223,1.413c-1.156,0.579-1.615,0.13-1.615,1.616
		c0,1.01,0,2.02,0,3.029c0,1.046,0.201,1.932,0.201,3.03c0,1.169,0.061,2.389-0.201,3.434c-0.082,0.325-3.17-0.187-3.232-0.202
		c-0.717-0.179-1.359-1.304-1.617-1.818c-0.432-0.862-1.141-1.359-2.02-2.02c-0.914-0.686-1.848-0.648-2.828-0.403
		c-0.434,0.107-1.342,1.175-1.818,1.413c-0.977,0.488-0.809,1.213-0.809,2.424c0,0.993,0.027,2.13,0.201,2.828
		c0.273,1.089,0.652,1.436,0.404,2.424c-0.055,0.223-2.287,0.319-2.627,0.403c-0.941,0.235,0.93,1.737,1.617,2.424
		c0.406,0.406,0.201,2.075,0.201,2.828c0,1.008-0.771,1.971-1.414,2.827c-0.611,0.816-1.191,1.595-1.818,2.222
		c-0.563,0.563-0.738,0.881-0.402,2.222c0.205,0.822,1.18,1.355,2.221,1.616c1.287,0.321,2.721,1.484,3.436,2.02
		c0.953,0.714,2.111,0.753,3.031,1.212c0.809,0.404,2.053,0.319,2.625,0.605c0.717,0.358,0.643,2.167,0.809,2.828
		c0.219,0.876,2.512,1.486,3.031,1.616c1.072,0.268,0.084,2.054,0,2.222c-0.561,1.12-1.086,1.143,0.807,1.615
		c1.125,0.281,1.033,0.83,1.617,1.414c0.795,0.795,0.672,1.144,1.617,1.616c0.674,0.337,2.461,0,3.232,0c1.076,0,2.154,0,3.232,0
		c1.145,0,2.289,0,3.434,0c1.438,0,1.617,0.285,1.617,1.615c0,1.01,0,2.02,0,3.03c0,1.145,0,2.289,0,3.434
		c0,1.388-0.133,1.548-1.213,1.817c-0.699,0.175-1.166,1.121-1.414,1.616c-0.496,0.99,0.281,2.381,0.605,3.029
		c0.438,0.873,0.16,2.188,0,2.827c-0.23,0.924-1.875,0.404-2.828,0.404c-0.896,0-2.016,0.503-2.627,0.808
		c-0.352,0.177-0.402,2.059-0.402,2.626c0,0.404,0,0.808,0,1.212c0,1.676,1.43,1.165,2.424,1.414
		c0.984,0.246,0.605,1.526,0.605,2.625c0,0.489,1.301,1.502,1.617,1.818c0.828,0.828,1.184,1.356,2.223,1.615
		c0.908,0.228,1.461,0.404,2.625,0.404c1.227,0,2.227-0.1,3.232,0.404c1.025,0.512,1.504,1.188,2.021,2.222
		c0.369,0.739,1.594,1.654,2.02,2.222c0.824,1.098,0.141,1.281,1.617,2.02c1.119,0.56,1.207,1.202,1.615,2.02
		c0.607,1.215,1.395,1.913,1.617,3.03c0.215,1.073-0.133,2.084-0.404,2.625c-0.422,0.844-1.01,1.035-1.01,2.222
		c0,0.373,2.953,0.202,3.232,0.202c1.154,0,2.08-0.071,3.031,0.404c1.15,0.575,2.658,0.286,1.211,1.01
		c-0.506,0.253-1.227,2.034-1.615,2.424c-0.869,0.868-1.211,1.209-1.617,2.02c-0.314,0.63-1.205,1.003-1.615,1.414
		c-0.994,0.992-1.666-0.01-2.021,1.414c-0.32,1.278,0.676,2.112,1.213,2.827c0.836,1.115,0.807,1.969,2.223,3.03
		c0.887,0.665,0.605,1.714,0.605,2.827c0,0.93,2.268,0.819,3.031,1.01c1.518,0.38,2.432,0.121,3.029,1.616
		c0.432,1.079,0.404,2.012,0.404,3.231c0,1-0.676,1.553-1.01,2.222c-0.383,0.764-0.768,1.133-1.213,2.02
		c-0.342,0.683,0.051,2.421,0.203,3.03c0.369,1.475-0.164,1.423,1.414,1.817c0.92,0.229,2.02,0.981,2.02-0.404
		c0-1.303,0.791-1.8,1.617-2.625c0.697-0.697,1.172-0.606,2.424-0.606c1.078,0,2.156,0,3.232,0c1.01,0,2.021,0,3.031,0
		c1.078,0,2.154,0,3.232,0c1.553,0,2.223,1.061,2.223,2.424c0,1.086-0.926,0.946-0.605,2.222c0.209,0.837,2.504,0.752,3.232,0.606
		c1.285-0.258,1.615-1.064,1.615-2.222c0-0.8,0.203-1.781,0.203-2.828c0-1.299,0.408-1.616,1.818-1.616
		c1.055,0,2.076-0.036,3.029,0.202c1.836,0.459,1.764,0.794,2.223,2.626c0.252,1.004,0,2.401,0,3.434
		c0,0.918-0.201,1.717-0.201,2.827c0,0.896-0.512,2.03-0.809,2.626c-0.775,1.552-1.504,0.808-3.232,0.808
		c-0.867,0-2.074-0.936-2.627-1.212c-1.016-0.507-1.717-0.454-2.627,0c-0.479,0.24-0.693,1.906-1.01,2.223
		c-0.096,0.095-0.27,0-0.404,0l0.605,7.877l-13.535,13.532l0.404,8.079L665.373,961.969z"/>
	<path id="path2422" fill="#FFFFFF" stroke="#000000" d="M392.564,790.307c-0.563-1.968,0.855-4.478,1.844-6.453
		c1.162-2.324,1.258-3.059-0.922-4.148c-1.984-0.991-3.367-1.288-2.768-3.687c0.5-1.995,1.801-3.929,2.307-6.453
		c0.49-2.457,0.461-5.312,0.461-7.835c0-3.041,2.094,1.171,2.766,1.844c0.305,0.304,3.105-4.487,3.227-4.609
		c1.207-1.205-2.695-2.27-3.688-2.766c-0.336-0.168,1.971-3.732,2.305-5.069c0.842-3.365,2.42-0.347,3.229,0.461
		c0.928,0.928,2.375,1.383,3.688,1.383c0.072,0,2.07-5.053,2.305-5.992c0.547-2.186-0.559-4.539-0.922-5.991
		c-0.646-2.585-5.365-2.305-7.377-2.305c-3.355,0-4.609,0.804-4.609-2.766c0-2.305,0-4.609,0-6.914c0-3.005-0.836-3.313,0.922-5.069
		c0.313-0.312,4.453,3.107,4.611,3.227c1.316,0.988,1.844,5.425,1.844,0.921c0-2.304,0-4.608,0-6.913
		c0-0.059,6.191-0.461,6.916-0.461c2.09,0,0.246-5.991-1.846-5.991c-1.871,0-3.766-1.653-5.07-2.305
		c-1.537-0.769,0.922-3.353,0.922-5.07l31.813,3.688c-1.91-0.955,5.531,1.092,5.531,3.227c0,3.479,3.504,2.765,5.994,2.765
		c1.502,0-0.922-3.568-0.922-5.069c0-2.673-0.004-4.616-0.922-6.453c-0.842-1.683-0.734-3.604,0.461-5.991
		c0.941-1.884,2.068-3.527,3.227-5.07c1.631-2.175-3.125-1.383-4.609-1.383c-3.244,0-3.568-0.341-5.072-1.844
		c-0.559-0.559-0.67-5.487-0.922-5.991c-0.91-1.82-2.855-2.943-3.689-4.609c-1.002-2.003-0.48-4.991,0-6.913
		c0.92-3.673,0.896-2.793-1.383-5.07c-0.152-0.153-0.307-0.308-0.461-0.461l4.15-5.069l0.461-13.827l25.357-20.741l9.221,0.922
		l11.525,20.28l10.604,7.374l18.902-2.305l21.209-17.053h6.455l-28.125,58.995h23.514c-0.652-0.651,1.844,0,2.766,0l-0.461-6.913
		l6.455,10.601l-14.293,28.114l18.443-5.991l0.461,9.679l5.07,5.07l21.209-7.836l-1.846-7.835l-0.461-7.374l16.598-6.914l4.15,3.688
		v5.991l7.377,1.844l-1.846-13.366l10.605,12.444l-2.768,3.688v8.757h6.455l5.072,3.688l-10.143,5.531l-18.904-8.758l-7.377,7.836
		l-24.434,0.922l-6.916,12.905l2.766,7.374l-7.377,25.35h-4.609l-1.844-8.296l-10.605-0.922l-0.922,11.062h-6.916l-4.609-18.897
		h-11.986l-6.455,17.515c-0.168-0.167-7.477,0.461-8.299,0.461c-3.105,0-3.83-0.141-5.533-1.844
		c-2.252-2.252-3.951,0.066-4.609,1.383c-0.941,1.882-0.461,5.771-0.461,7.835c0,2.31-4.605-0.461-6.916-0.461
		c-0.77,0-0.188,1.56,0,2.305l10.604,6.453c0,0,0,2.67,0,3.226l-13.369-0.921l-7.838,15.209l-13.832-4.147l-23.975-1.844
		l-4.609-2.305l-4.611,4.148l-6.916-5.992l-11.064-4.608L392.564,790.307z"/>
	<path id="path2424" fill="#FFFFFF" stroke="#000000" d="M392.564,788.924l-9.682,11.983l-4.15-3.227
		c-2.156,0,1.064-4.928-0.461-6.452c-1.119-1.119-2.566,2.304-4.148,2.304c-1.643-1.641-0.924-5.685-0.924-7.835
		c0-1.609,1.385-3.498,1.385-5.992c0-0.697-2.652-3.841-3.229-4.608c-1.463-1.95,0.107-3.972,1.383-4.609
		c1.609-0.804-0.572-3.798-1.844-5.069c-1.479-1.479-3-1.395-3.688-4.148c-0.494-1.978-0.461-4.209-0.461-6.453
		c0-1.382,0-2.765,0-4.147c0-1.17,2.398-0.556,3.227-1.383c1.803-1.802,1.383-3.765,1.383-6.453c0-2.304,0-4.608,0-6.913
		c0-2.207,0.922-4.109,0.922-6.914c0-0.915,1.568-4.423,1.846-5.53c0.672-2.692,1.221-3.502,1.844-5.992
		c0.641-2.567,1.383-4.021,1.383-6.913c0-2.178,2.232-3.859,2.766-5.992c0.244-0.971,3.061-4.693,3.689-5.53
		c2.02-2.692,3.227-3.519,3.227-5.992c0-1.556-0.461-4.229-0.461-6.452c0-1.033-2.664-3.022-3.227-4.148
		c-0.793-1.584-3.252-2.79-4.15-3.688c-1.592-1.591-2.775-2.325-3.688-4.147c-1.408-2.815-0.215-2.979-2.307-5.07
		c-1.152-1.152-2.074-2.535-3.227-3.688c-0.455-0.455,1.844-4.463,1.844-5.991c0-2.548-0.859-3.625-2.305-5.07
		c-1.686-1.686-0.561-3.948,0.461-5.991c0.957-1.913,0.461-4.776,0.461-6.914c0-1.315-3.225-3.992-3.688-4.608
		c-1.326-1.769-2.623-2.464-4.15-3.227l10.604-9.218l29.969-16.132l18.441,18.896l8.299-13.826l3.688,3.226l-10.143,21.663
		l5.072,8.296l-5.072,5.069l6.455,5.531l2.766,10.601c-1.414-0.707,2.307,2.566,2.307,4.148c0,3.042-0.883,3.146-1.846,5.069
		c-1.297,2.595,1.07,4.295,1.846,5.07c1.941,1.941,1.518,2.388,2.305,5.531c0.717,2.867-0.086,3.435,2.766,4.147
		c2.131,0.533,5.152,0,7.377,0c1.557,0,2.125,4.309-0.922,5.07c-2.115,0.528-1.383,3.96-1.383,5.991c0,2.305,0,4.609,0,6.914
		c0,1.603,0.561,4.552,0.922,5.992c0.41,1.639-3.561,0.755-5.072,0c-1.059-0.53-2.996-3.456-3.688-4.148
		c-1.469-1.469-4.387-0.922-6.455-0.922c-1.678,0-4.553-0.461-6.916-0.461c-1.809,0-3.959-0.922-5.992-0.922
		c-2.105,0-3.764-1.401-5.533-1.844c-1.709-0.427-4.117-0.461-6.455-0.461c-3.283,0-2.631,1.247-4.148,2.766
		c-2.662,2.66,2.65,3.428,3.688,3.688c2.375,0.594,2.635,1.578,3.689,3.687c1.654,3.308-2.199,2.766-4.15,2.766
		c-3.436,0-2.766,0.96-2.766,4.148c0,2.615-0.23,4.608-0.922,5.991c-0.281,0.563-3.824-4.174-4.15-4.608
		c-1.973-2.63-1.824-0.076-2.305,1.844c-0.443,1.771-0.922,3.44-0.922,5.991c0,3.212,0.197,3.556,2.305,4.609
		c0.973,0.485,2.141,0.461,3.227,0.461c1.953,0.976,6.008,0.237,7.377,0.922c0.445,0.222,0,6.168,0,6.913
		c0,2.202-0.084,4.948-0.461,6.453c-0.389,1.556-3.475-0.249-4.609-1.383c-1.33-1.33-2.035-3.39-2.768-0.461
		c-0.449,1.802-1.955,2.528-2.766,4.147c-0.979,1.958,3.045,2.584,4.611,4.148c2.041,2.041-1.666,3.51-2.307,4.148
		c-1.283,1.283-3.859-2.476-4.148-2.766c-0.627-0.627-0.922,5.239-0.922,5.992c0,2.857-0.217,4.436-1.383,5.991
		c-1.35,1.797-1.449,2.969-0.922,5.07c0.395,1.584,2.496,2.227,3.227,3.687C395.546,783.828,394.283,788.064,392.564,788.924z"/>
	<path id="path2426" fill="#FFFFFF" stroke="#000000" d="M373.978,793.23l-4.547,9.091l2.623,4.721l-2.973,8.042l14.166,2.272
		l2.273,5.77l-7.52,0.35l-4.723,22.901l5.596,10.665l6.297-3.847h10.842l13.115,4.546l2.973-14.511l2.975-4.895l-2.273-18.707
		l5.42-0.175l5.596-6.293l-4.721-2.273l-4.371,4.021l-7.346-5.77l-10.842-4.545l-4.373-14.86l-9.268,11.014l-4.896-3.496
		c0-0.292,0-0.583,0-0.874c0-0.9,0.533-1.408,1.049-1.924c0.594-0.593,0.35-1.791,0.35-2.622c0-0.98-0.795-0.874-1.748-0.874
		c-0.936,0-1.334,0.394-1.75,1.224c-0.59,1.18-1.105,0.641-2.623,1.398"/>
	<path id="path2430" fill="#FFFFFF" stroke="#000000" d="M369.257,802.671l-22.91,28.497l25.357,26.049
		c0.117,0.232,0.234,0.466,0.35,0.699c0.449,0.895-0.328,1.727-0.699,2.098c-0.633,0.634-1.717,0.365-2.447,0
		c-1.176-0.587-2.201-1.388-3.148-2.098c-0.68-0.509-1.348-0.861-2.098-1.049c-0.854-0.213-1.84-0.175-2.799-0.175
		c-1.113,0-2.475-0.037-3.322,0.175c-1.303,0.325-1.77,1.419-2.623,2.272c-0.617,0.616-1.018,1.192-1.574,1.748
		c-0.563,0.562-1.096,1.16-1.924,1.573c-0.742,0.371-1.662,2.102-1.924,2.623c-0.527,1.055-1.176,2-1.748,3.146
		c-0.568,1.136-1.102,2.306-1.4,3.497c-0.314,1.26-1.223,1.921-1.748,2.972c-0.32,0.641-1.154,1.432-1.398,1.923
		c-0.455,0.909-0.801,0.925-1.051,1.923c-0.305,1.222,1.074,2.071,1.75,2.973c0.646,0.863,1.881,1.706,2.623,2.447
		c1.135,1.134,2.184,1.625,3.672,1.923c1.557,0.312,2.443,1.22,3.498,2.272c0.768,0.769,1.146,1.614,1.398,2.623
		c0.309,1.232,0.609,2.117,1.75,2.972c0.961,0.721,1.965,2.097,2.623,2.973c0.576,0.77,1.184,1.009,1.748,1.573
		c0.838,0.837,1.289,2.179,1.574,3.321c0.127,0.506,0.387,0.981,0.699,1.398c0.336,1.34,2.369,2.288,2.973,3.497
		c0.527,1.055,0.139,1.555,1.225,2.098c0.83,0.415,2.037,1.162,2.623,1.748c1.031,1.031,2.25,1.999,3.498,2.622
		c1.334,0.667,1.418,1.36,2.973,1.749c1.029,0.257,2.348,1.28,2.973,1.748c1.096,0.82,2.195,1.494,3.148,2.447
		c0.635,0.636,0.582,0.934,0.174,1.748c-0.338,0.678-1.225,0.07-1.225,1.399c0,1.108,0.352,1.914,0.352,2.972
		c0,1.604,0.227,1.394,1.398,2.272c1.098,0.823,1.809,1.458,2.797,2.447c1.068,1.067,1.051,1.671,1.051,3.147
		c0,1.084-0.35,1.737-0.35,2.797c0,1.217,0.092,1.666,0.699,2.272c0.75,0.75,2.844,0.532,3.848,0.7
		c1.316,0.219,2.021,1.186,3.146,1.748c1.334,0.666,2.629,1.883,3.848,2.797c1.271,0.953,1.793,1.051,2.1,2.272
		c0.246,0.987,0.072,2.069,0.523,2.973c0.6,1.196,1.744,2.182,2.799,2.972c0.578,0.435,1.078,0.914,1.574,1.573
		c0.783,1.044-0.891,1.407-1.225,1.573c-0.707,0.354-0.699,1.308-0.699,2.099c0,1.255-0.066,1.567,0.873,2.272
		c0.703,0.527,2.021,1.161,2.973,1.398c1.033,0.258,1.863,0.931,2.799,1.398c1.242,0.621,2.314,1.409,3.672,1.748
		c1.223,0.306,2.463,0.223,3.674,0.525c1.197,0.299,2.352,0.588,3.496,0.874c1.297,0.323,2.422,1.115,3.498,1.923
		c0.818,0.613,2.049,1.019,2.973,1.573c0.936,0.562,2.141,0.092,2.449-0.524c0.322-0.646-0.064-2.351-0.176-2.797
		c-0.252-1.012-0.006-1.919,0.699-2.448c0.691-0.518,2.424-0.175,3.324-0.175c0.84,0,0.523-1.481,0.523-2.272
		c0-1.165,0-2.331,0-3.496c0-1.069,0.066-2.182-0.174-3.147c-0.127-0.503-1.65-0.912-2.273-1.224
		c-1.342-0.67-2.691-1.694-3.848-2.272c-1.15-0.575-1.957-1.152-2.799-1.573c-1.088-0.545-1.951-1.238-2.973-1.749
		c-1.086-0.543-1.619-1.109-2.098-1.748c-0.67-0.891-0.525-2.05-0.525-3.146c0-1.267-0.049-1.699,0.699-2.447
		c0.824-0.824,1.621-0.36,1.924-1.574c0.264-1.053-0.924-1.686-1.748-2.098c-1.254-0.626-1.09-0.704-0.176-1.923
		c0.688-0.915-0.344-1.567-0.699-1.923c-0.838-0.839-1.422-1.422-2.273-2.273c-0.85-0.849-1.75-1.085-2.797-1.923
		c-0.672-0.536-1.275-1.099-1.924-1.748c-0.75-0.75-0.701-1.194-0.701-2.272c0-0.933,0-1.865,0-2.798c0-1.165,0-2.331,0-3.496
		c0-1.049,0-2.098,0-3.146c0-1.2-0.039-2.002-0.523-2.973c-0.234-0.468-1.514-1.193-1.924-1.398
		c-1.133-0.566-2.209-1.716-3.322-2.272c-1.322-0.661-2.502-1.426-3.848-2.098c-0.861-0.432-1.592-1.281-2.449-1.924
		c-1.012-0.759-2.418-1.209-3.496-1.748c-0.801-0.399-0.701-1.194-0.701-2.098c0-1.049,0-2.098,0-3.146
		c0-1.267-0.344-1.743-0.873-2.273c-0.48-0.479-1.213-0.391-1.75-0.524c-0.66-0.66-1.863-0.175-2.797-0.175
		c-0.959,0-2.68-1.526-3.672-1.923c-1.217-0.486-2.367-0.524-3.674-0.524c-1.148,0-1.973,0.35-3.146,0.35
		c-1.338,0-2.404-0.271-3.674-0.524c-1.186-0.237-1.887-0.838-2.623-1.573c-0.768-0.768-1.398-0.817-1.398-2.099
		c0-1.403-0.135-2.016-0.699-3.146c-0.414-0.826-2.088-1.391-2.799-1.923c-0.861-0.646-1.602-1.288-2.447-1.923
		c-0.584-0.438-1.141-1.171-1.574-1.749c-0.533-0.709-1.156-0.951-1.398-1.923c-0.227-0.903,0.25-1.901,0.523-2.447
		c0.316-0.632,0.967-0.874,1.748-0.874c0.953,0,1.754-0.35,2.799-0.35c0.926,0,1.939-0.484,2.799-0.699
		c1.117-0.279,1.6-0.888,2.623-1.399c0.828-0.414,1.689-2.019,2.273-2.797c0.568-0.759,1.396-1.745,1.748-2.447
		c0.422-0.843,1.123-1.169,1.398-2.272c0.191-0.763,0-1.832,0-2.623c0-0.874,0-1.748,0-2.622c0-0.751-0.168-0.687-0.35-1.049
		l-5.42-10.489l4.896-23.252l7.344-0.175l-2.797-6.119l-13.641-1.923l2.973-8.217L369.257,802.671z"/>
	<path id="path2432" fill="#FFFFFF" stroke="#000000" d="M430.115,968.071l21.572,7.677l28.887-57.756l37.664,12.429l-1.83-21.202
		l-15.357-23.395l-6.947-2.924l-16.088-20.471l-0.732-20.105l-13.895-1.827l1.828-6.945l-20.109-5.849l2.924-12.794l-24.133-1.828
		l-5.119,6.215h-5.85l2.559,18.276l-3.656,5.483l-2.926,14.622l-13.529-4.387h-10.604l-5.484,3.29
		c-0.031,0.17-0.063,0.34-0.094,0.51c-0.102,0.552,0,1.223,0,1.785c0,0.675,0,1.349,0,2.023c0,0.595,0,1.19,0,1.785
		c0,0.687-0.043,1.158-0.238,1.547c-0.252,0.504-0.592,0.828-0.951,1.31c-0.342,0.455-0.5,0.618-0.953,1.071
		c-0.398,0.398-0.746,0.897-0.953,1.309c-0.291,0.583-0.705,1.056-0.951,1.548c-0.238,0.474-0.672,0.789-0.953,1.07
		c-0.33,0.33-0.916,0.398-1.309,0.596c-0.576,0.287-0.811,0.595-1.549,0.595c-0.453,0-1.145,0.465-1.666,0.596
		c-0.5,0.124-1.117,0.339-1.668,0.476c-0.58,0.146-1.168,0.119-1.785,0.119c-0.705,0-1.178,0.354-1.666,0.476
		c-0.518,0.13-0.73,0.612-1.191,1.071c-0.396,0.396-0.238,1.23-0.238,1.785c0,0.682,0.912,1.381,1.072,2.023
		c0.166,0.668,1.104,1.342,1.428,1.666c0.363,0.362,0.838,0.837,1.311,1.19c0.367,0.274,0.936,1.173,1.309,1.547
		c0.482,0.481,0.658,0.686,1.43,1.071c0.563,0.281,0.813,0.218,1.309,0.714c0.316,0.316,0.494,1.139,0.596,1.548
		c0.168,0.67,0.42,1.196,0.715,1.785c0.26,0.521,0.854,0.699,1.189,0.952c0.5,0.375,0.896,0.939,1.549,1.428
		c0.525,0.395,1.232,0.445,1.904,0.714c0.721,0.289,1.561,0.357,2.262,0.357c0.559,0,1.266,0.238,1.904,0.238
		c0.715,0,1.43,0,2.143,0c0.701,0,1.412,0.119,2.145,0.119c0.744,0,1.773,0.889,2.5,1.07c0.887,0.222,0.979,0.988,1.785,1.19
		c0.549,0.137,1.412,0.005,1.904-0.119c1.049-0.262,2.133,0.495,2.977,0.833c0.758,0.304,0.834,0.846,0.834,1.666
		c0,0.319,0.592,1.534,0.713,2.023c0.158,0.63,0.477,1.516,0.477,2.262c0,0.833,0.256,1.373,0.953,1.547
		c0.52,0.13,1.609,1.117,2.023,1.429c0.402,0.301,0.869,0.749,1.191,1.07c0.646,0.647,1.617,1.047,2.381,1.429
		c0.883,0.441,1.381,1.047,2.143,1.428c0.723,0.361,1.775,0.875,2.5,1.31c0.486,0.291,1.549,0.953,1.785,1.071
		c1.088-0.036,1.881,0.809,2.5,1.428c0.496,0.495,0.477,0.754,0.477,1.547c0,0.675,0,1.35,0,2.023c0,0.596,0,1.19,0,1.785
		c0,0.618,0.02,1.235-0.119,1.785c-0.131,0.523-0.119,1.025-0.119,1.667c0,0.714,0,1.428,0,2.142c0,0.635,0,1.27,0,1.904
		c0,0.576,0.328,1.428,0.596,1.785c0.422,0.563,0.494,0.852,0.953,1.31c0.537,0.538,0.9,0.782,1.428,1.309
		c0.539,0.539,1.334,0.965,2.023,1.31c0.781,0.39,1.174,0.731,1.787,1.19c0.502,0.376,0.9,1.02,1.189,1.309
		c0.887,0.886,0.697,0.851,0.357,1.19c-0.389,0.389-0.736,0.57-1.311,0.714c-0.578,0.145,0.602,1.043,0.715,1.071
		c0.434,0.108,0.941,0.558,1.311,0.833c0.592,0.444,0.598,0.836,1.07,1.31c0.43,0.43,0.176,1.133-0.119,1.428
		c-0.238,0.239-1.262,0.631-1.666,0.833c-0.549,0.274-0.689,0.735-0.834,1.31c-0.139,0.56,0,1.323,0,1.904c0,0.516,0,1.031,0,1.547
		c0,0.613,1.99,1.611,2.381,1.904c0.65,0.487,1.18,0.709,1.906,1.071c0.854,0.427,1.635,0.974,2.5,1.19
		c0.555,0.139,1.16,0.758,1.785,1.07c0.582,0.291,1.068,0.563,1.428,0.833c0.537,0.402,1.141,0.767,1.549,1.071
		c0.592,0.445,1.387,0.754,2.023,1.071c0.674,0.337,0.631,0.787,0.953,1.429c0.281,0.562,0.238,1.139,0.238,1.785
		c0,0.674,0,1.349,0,2.022c0,0.635,0,1.27,0,1.904s0,1.27,0,1.904c0,0.673,0.082,0.575-0.477,0.714c0,0.219-1.951,0.119-2.262,0.119
		c-0.586,0-1.256,0.017-1.668,0.119c-0.52,0.13-0.477,0.751-0.477,1.31c0,0.442,0.111,1.155,0.238,1.666
		c0.172,0.685,0.33,1.197,0.477,1.785C430.443,967.646,430.205,967.854,430.115,968.071z"/>
</g>
</svg>
