<?xml version="1.0" encoding="utf-8"?>
<!-- Generator: Adobe Illustrator 16.0.3, SVG Export Plug-In . SVG Version: 6.00 Build 0)  -->
<!DOCTYPE svg PUBLIC "-//W3C//DTD SVG 1.1//EN" "http://www.w3.org/Graphics/SVG/1.1/DTD/svg11.dtd">
<svg version="1.1"
	 id="svg2259" sodipodi:docname="Municipios de Durango.svg" sodipodi:docbase="C:\Documents and Settings\Juan\Mis documentos\Mis imágenes\Wikipedia\Heraldica" inkscape:version="0.46" sodipodi:version="0.32" inkscape:output_extension="org.inkscape.output.svg.inkscape" xmlns:dc="http://purl.org/dc/elements/1.1/" xmlns:cc="http://creativecommons.org/ns#" xmlns:rdf="http://www.w3.org/1999/02/22-rdf-syntax-ns#" xmlns:svg="http://www.w3.org/2000/svg" xmlns:sodipodi="http://sodipodi.sourceforge.net/DTD/sodipodi-0.dtd" xmlns:inkscape="http://www.inkscape.org/namespaces/inkscape"
	 xmlns="http://www.w3.org/2000/svg" xmlns:xlink="http://www.w3.org/1999/xlink" x="0px" y="0px" width="976.452px"
	 height="1031.949px" viewBox="120.811 11.748 976.452 1031.949" enable-background="new 120.811 11.748 976.452 1031.949"
	 xml:space="preserve">
<defs>
	
	
		<inkscape:perspective  id="perspective2769" inkscape:vp_z="1184.3934 : 529.63062 : 1" sodipodi:type="inkscape:persp3d" inkscape:vp_x="0 : 529.63062 : 1" inkscape:vp_y="0 : 1000 : 0" inkscape:persp3d-origin="592.19672 : 353.08708 : 1">
		</inkscape:perspective>
</defs>
<sodipodi:namedview  id="base" inkscape:pageshadow="2" inkscape:pageopacity="0.0" inkscape:zoom="0.51262142" borderopacity="1.0" bordercolor="#666666" pagecolor="#ffffff" inkscape:cy="529.63062" inkscape:cx="592.19672" inkscape:window-y="-8" inkscape:window-x="-8" inkscape:window-height="750" inkscape:window-width="1280" inkscape:current-layer="layer1" inkscape:document-units="px" showgrid="false">
	</sodipodi:namedview>
<path id="path2348" fill="#FFFFFF" stroke="#000000" d="M796.16,48.528l-17.293,26.261l10.889,5.124l-7.045,13.451l14.09,5.124
	l-9.607,16.653l-3.203,15.372l57.646,70.457l13.451,39.712l8.967-0.641l24.34,19.216l12.17-11.529l8.967,6.405l8.969-1.281
	l-8.969-20.497l9.609-23.699l3.842-26.261l15.373-21.777l-23.059-37.15l0.641-30.104l-72.379-43.555L796.16,48.528z"/>
<path id="path2350" fill="#FFFFFF" stroke="#000000" d="M887.753,325.871l-21.777-12.811l-20.496-32.666l11.529-3.843l14.092-30.745
	l16.652,12.811l12.811-11.529l8.967,7.686l8.969-1.921l3.842,14.731c-0.213,0.854-0.426,1.708-0.641,2.563
	c-0.709,2.839-2.506,6.971-4.482,9.607c-2.318,3.09-2.758,4.678-5.125,7.046c-2.32,2.321-3.842,4.845-3.842,8.327
	c0,4.356,0.377,5.575-2.563,7.045c-2.041,1.02-5.285,3.363-6.406,4.484c-2.24,2.241-4.047,0.815-5.123,5.124
	c-0.771,3.087-3.203,2.604-3.203,7.045C890.957,322.936,891.208,323.28,887.753,325.871z"/>
<path id="path2352" fill="#FFFFFF" stroke="#000000" d="M845.48,279.754l-12.17-3.843l-33.947-0.641l-11.529,13.451l7.686,2.562
	l16.654,37.791l-13.451,4.484l-10.889-3.843l-10.889-16.013l-10.248,5.765l-14.092-2.562l-8.967-9.608l7.686-35.869h-16.012
	l-7.688,10.249l-6.404-12.811l1.922-10.248l-12.811-11.529H696.88l-5.123-5.765l-21.139-1.922l-8.967-13.451l8.967-3.843
	l-3.201-26.901l12.811-1.922l4.482-26.901l-12.17-12.811l-5.764-16.013l17.293-15.372l-1.281-11.529l16.014-26.902l21.137-16.013
	l7.045-13.451l-3.201-17.934l8.967-8.327l12.811,17.935l17.293-1.921l10.889,8.327l14.092-10.889l8.967,7.686l-17.934,25.621
	l10.889,5.765l-7.686,12.811l13.449,5.124l-8.326,16.013l-2.563,15.373l56.365,70.457l13.451,39.712h9.607l7.047,5.124
	l-13.451,31.386L845.48,279.754z"/>
<path id="path2354" fill="#FFFFFF" stroke="#000000" d="M887.185,325.637l23.588,29.364h-10.109l-19.736,26.957l4.814,8.184
	l-12.998,8.184l-10.59-0.963l-9.146,7.221l-21.662-0.963l-14.924-38.992l6.74-9.146l-9.146-11.553l-11.072,1.926l-9.146,0.963
	l-5.775-17.33l11.072,4.333l13.479-5.295l-17.33-37.547l-8.184-3.37l12.516-13.479l33.697,1.444l12.516,4.333l19.736,32.734
	L887.185,325.637z"/>
<path id="path2356" fill="#FFFFFF" stroke="#000000" d="M885.742,390.623l46.693,44.287l-3.852,9.627l20.699,15.886l0.482,13.479
	l15.404,15.403l40.916,13.479l-13.479,15.403l-17.328-0.481l-1.445,8.184l17.811,25.514l13.961,12.997l3.369,9.628l-4.813,8.664
	l-14.441-15.885l-5.297,8.184l-8.664-8.665L961.8,583.176l-17.33-5.296l-2.408-27.438h-10.107l-14.441-10.59l-20.701-35.623
	l8.184-17.811l-0.963-13.479l-7.221-10.591l11.072,0.963l-0.963-9.628l-18.291-5.295l14.441-16.367l-10.592-3.369h-11.07
	l-9.146,8.184l-14.441-8.665l22.143-19.256l-7.221-3.369l-0.48-8.184L885.742,390.623z"/>
<path id="path2358" fill="#FFFFFF" stroke="#000000" d="M1003.679,582.693l50.545,2.889l15.404-7.221h18.773l-0.48-43.324
	l-18.293-10.59l14.441-15.886l-8.664-39.955l-27.439-28.883l-14.441,17.812l-16.367,31.289v13.961h-11.072l-12.996,14.922h-18.773
	l-0.482,8.665l17.811,25.514l13.48,12.516l3.85,9.628L1003.679,582.693z"/>
<path id="path2172" fill="#FFFFFF" stroke="#000000" d="M944.685,577.753l-3.152-27.499l0,0l-9.738,0.573l0,0l-14.322-10.599l0,0
	l-20.623-35.805l-9.74,16.327l-10.598,4.583l-4.297,65.596l-24.92,12.03l-0.572,9.166l4.869,6.015l12.029,1.433l1.719-13.749
	l12.318-0.573l15.182-12.316l0.572-19.192L944.685,577.753z"/>
<path id="path2174" fill="#FFFFFF" stroke="#000000" d="M822.851,381.445l-8.139,2.96l-4.811,14.429l-16.279,16.279l8.139,13.32
	l-12.209,9.619v14.43l-5.92,1.479l-7.029,9.99l12.209,25.529l12.949-0.37l6.66-5.55l12.949,20.349l-12.209,5.55l-1.109,19.979
	l-20.719,13.32v14.059l7.029,8.51l-0.371,16.649l-20.719-9.989l-1.109,9.989l24.789,12.95l-2.221,22.938l-7.77,5.92l3.33,13.319
	l-9.25,9.99l7.77,14.43h7.4l-1.109-14.06l6.289-7.771l19.979,17.02l21.461-17.02l8.879,9.25l13.32-17.02l-0.74-12.579l-12.58-1.11
	l-5.551-5.92l0.74-9.249l25.529-11.84L876.5,525l11.469-4.44l8.881-15.539l8.51-19.239l-1.48-12.58l-7.029-11.1l11.84,0.74
	l-1.852-8.88l-18.129-5.55l14.061-16.279l-10.73-4.069l-11.469,0.37l-8.141,8.51l-14.799-8.88l22.568-19.239l-7.77-3.7l-0.369-7.03
	l-9.621-1.109l-9.248,7.029l-21.459-0.739L822.851,381.445z"/>
<path id="path2176" fill="#FFFFFF" stroke="#000000" d="M786.123,641.256l-17.764-7.182l-12.85-18.52l-10.203,4.158l-0.758,14.739
	l9.449,4.157v7.938l-26.078,13.983l-4.535,8.692l8.693,10.583l7.559-1.134l1.889,14.361l22.299,3.402l-0.377,10.204l10.205,4.535
	l11.338,0.378l21.164-10.96l4.535-12.851l-5.291-9.826v-10.582l16.252-10.583l-20.031-17.008l-6.426,7.56l0.756,13.983h-6.803
	l-7.936-13.605L786.123,641.256z"/>
<path id="path2178" fill="#FFFFFF" stroke="#000000" d="M803.509,741.032l-30.236,4.535l-12.85,13.229l-13.984,1.89l-11.338-3.023
	l27.211-17.764l1.512-17.385l9.449-11.339l11.717,0.378l21.543-10.96l6.047,13.228l-6.803,9.071L803.509,741.032z"/>
<path id="path2180" fill="#FFFFFF" stroke="#000000" d="M728.298,660.53l-12.096-6.803L706,680.184l-16.631-1.512l3.023,17.764
	l-3.023,28.346l18.52,0.378l12.852,29.479l14.738,2.646l26.834-17.386l1.135-17.007l9.449-11.717l-9.449-4.535l0.377-10.582
	l-22.676-3.402l-1.891-14.739l-7.559,1.89l-8.691-10.96L728.298,660.53z"/>
<path id="path2182" fill="#FFFFFF" stroke="#000000" d="M744.927,619.713l-6.426-9.071l4.914-9.07l-15.117-1.512l-5.291-6.047
	l9.447-6.804l7.182-3.023l-4.535-8.692l4.535-5.669l-13.984-31.748l4.158-5.669l-4.158-7.559l12.094-7.559l13.984,0.378
	l9.826,12.094l6.803-11.338l7.182,11.716l-0.756,14.74l-2.645,7.181l5.291,13.229l9.826-8.693l7.18,9.07v15.874l-21.164-9.826
	l-1.133,9.826l24.188,13.229l-1.512,23.433l-8.314,5.291l3.4,13.228l-3.4,4.536l-18.52-7.182l-12.473-18.52L744.927,619.713z"/>
<path id="path2184" fill="#FFFFFF" stroke="#000000" d="M803.076,740.236l12.209,1.182l-0.787,15.361l-14.18-5.908l-11.027,16.936
	l-24.42,19.693l-8.271,12.604l-9.451,24.813l-0.789,21.269l-7.877,16.542l-22.844-5.908l-11.422,8.271l-7.482-7.09l-3.939-17.724
	l17.33-19.692l-4.727-31.902l14.967-34.66l14.967,3.151l10.635,3.15l14.572-1.575l12.996-12.997L803.076,740.236z"/>
<path id="path2179" fill="#FFFFFF" stroke="#000000" d="M696.531,246.722l-5.729,12.413l-31.51,11.935l14.801,14.799l-4.297,6.207
	h-14.801l-9.547,17.187h-17.188l-28.643-34.851l-27.69-63.017l-21.961-21.96l-6.684,5.729l-20.051-26.257l45.354-44.398v-14.322
	l10.979-6.206v-12.89l18.619-1.432l11.936,10.503l11.936-10.025h10.502v13.367l21.006,27.212l12.891,7.161l6.205,16.231
	l11.936,11.935l-4.773,27.212l-12.412,1.432l3.342,27.689l-9.072,3.819l8.594,13.367l21.484,1.433L696.531,246.722z"/>
<path id="path2183" fill="#FFFFFF" stroke="#000000" d="M533.259,181.317l-23.393,16.232l7.639,19.574l-8.116,14.799l10.98,18.141
	l10.503,0.955l-2.388,16.709l4.774,14.799l14.8-1.91l6.684-9.548l6.684,10.503l0.478,42.489l16.709,16.232l10.98-11.936
	l5.729,11.458l10.502-0.478l18.141,19.573l18.143,7.161l15.277-19.573l-0.479-25.78l-11.457-10.98l-17.664-0.955l-27.689-34.373
	l-28.167-63.972l-21.961-21.483l-6.684,6.206L533.259,181.317z"/>
<path id="path2185" fill="#FFFFFF" stroke="#000000" d="M657.861,346.499l11.457,9.548l22.439-3.819l8.592-18.141l9.549,9.071
	h11.936l5.25,7.638l18.143-15.754l-3.82-17.664l10.98-0.478l-9.547-10.025l8.115-35.328h-15.277l-8.115,10.503l-6.684-13.845
	l2.387-9.071l-12.412-12.413h-13.846l-5.729,11.935l-31.986,12.89l14.801,13.845l-4.297,6.684l-14.322-0.478l-10.504,18.619
	l11.936,10.025L657.861,346.499z"/>
<path id="path2187" fill="#FFFFFF" stroke="#000000" d="M669.796,356.047l34.85,25.78l23.871,1.432l7.16-11.935l16.232,0.955
	l1.432-22.438l-8.115-14.8l-18.143,15.277l-5.729-7.639h-10.98l-10.025-8.593l-8.592,17.664L669.796,356.047z"/>
<path id="path2189" fill="#FFFFFF" stroke="#000000" d="M509.389,197.072C509.548,197.072,509.707,197.072,509.389,197.072z"/>
<path id="path2191" fill="#FFFFFF" stroke="#000000" d="M509.866,197.549l-10.98-12.89l-6.684,5.729l9.071,12.413l-19.097,26.257
	h-8.116l-4.296,20.528l6.206,6.207l-18.619,31.031l4.297,13.367l11.458,8.116l14.799,36.76l6.684,6.684l6.685,13.844l9.07-10.025
	h12.412l18.619,17.664l7.161,29.599h19.573l10.503-13.367l20.528,17.186l7.162-16.709l14.799,8.594l0.955-7.161l-8.117-12.89
	l20.529-4.774v-10.025l-10.504-4.774l-17.662-19.573l-10.504,0.478l-6.683-12.413l-10.503,13.367l-17.664-17.187l0.955-42.011
	l-7.161-10.025l-7.161,9.07l-13.845,1.433l-5.252-13.845l2.865-17.187l-10.503-0.955l-11.936-18.141l8.594-15.277L509.866,197.549z"
	/>
<path id="path2193" fill="#FFFFFF" stroke="#000000" d="M704.216,381.719l-0.592,32.603l-3.557,14.227l12.447,13.634h15.412
	l7.707-8.299l13.041,11.855l11.262-11.263l6.521,18.969l16.004,0.593l7.707-2.371l-0.594-13.041l12.449-11.263l-8.893-13.041
	l16.598-14.819l5.336-15.413l7.705-2.964l-6.52-16.005l6.52-10.077l-8.891-11.263l-20.154,2.964l-5.336-16.598l-11.262-16.005
	l-10.078,5.335l-14.227-2.371l-11.262-0.593l4.148,18.969l7.707,14.819l-1.779,21.34l-15.412-0.593l-7.705,12.448L704.216,381.719z"
	/>
<path id="path2195" fill="#FFFFFF" stroke="#000000" d="M724.964,537.619l-13.041-18.376l10.67-4.149l4.148-10.077l-13.041-1.186
	l9.484-10.67l-0.592-29.046l-6.521,3.557l-3.557-24.896l14.82-0.593l8.299-8.299l13.041,11.855l11.855-11.263l5.928,17.783
	l16.598,2.371l-5.928,8.892l11.855,26.082l13.041-1.186l5.928-5.928l13.633,21.34l-13.041,5.928v18.969l-21.34,14.227v13.634
	l-10.076,8.299l-5.336-12.448l3.557-7.113v-15.412l-7.705-11.263l-5.928,11.263l-9.484-11.855l-14.227-0.593l-11.855,7.113
	l2.963,8.299L724.964,537.619z"/>
<path id="path2197" fill="#FFFFFF" stroke="#000000" d="M620.636,399.503v7.706l20.746,1.186l11.855,19.562l3.557,24.304
	l27.861-15.412l27.859,4.742l-13.041-13.041l4.15-13.634l0.592-32.01l-34.381-26.675l-12.447-9.484l-15.412,18.969l-7.113-2.964
	v10.67l-21.34,4.742l8.891,13.634L620.636,399.503z"/>
<path id="path2199" fill="#FFFFFF" stroke="#000000" d="M657.388,452.853l-15.412,44.458l-15.412,2.371l-0.594-44.458h-13.633
	l-17.783-17.19h-7.707v-7.706l-17.19-13.634L559.58,403.06l8.892-0.593l10.077-13.042l21.339,17.784l6.521-17.784l14.818,9.485
	v7.706l20.154,1.186l11.264,18.969L657.388,452.853z"/>
<path id="path2201" fill="#FFFFFF" stroke="#000000" d="M626.564,499.089l13.041,16.598l19.561,1.186l-5.928,16.598l14.227,7.113
	h15.412l1.186-12.448l11.855-8.299l-8.891-14.819l11.262,0.593l7.113,5.335l7.707-6.521l9.484-11.263v-28.453l-7.113,2.371
	l-2.965-24.304l-27.268-5.928l-27.859,14.819l-15.412,46.236L626.564,499.089z"/>
<path id="path2203" fill="#FFFFFF" stroke="#000000" d="M722.593,593.933l-4.742,10.077l-8.893-0.593l-7.705-18.376l-21.34-0.593
	l-12.449,7.113l-8.891-5.928l16.598-13.041h8.299l-1.186-9.484h-11.855l-2.965-23.118l15.412,0.593l0.594-12.448l12.447-7.706
	l-8.299-16.005l12.449,1.186l5.334,5.928l8.893-7.706l11.855,1.186l-2.965,9.484l-11.855,4.149l13.635,18.376l14.227,32.603
	l-4.15,5.335l4.742,8.892l-6.52,2.371L722.593,593.933z"/>
<path id="path2205" fill="#FFFFFF" stroke="#000000" d="M658.574,585.634l-10.078,8.892l-14.227,5.928h-18.375l-13.635,21.34
	l-12.448-24.304l3.557-7.113l-27.861-0.593l-13.635-20.747H538.24l-4.15,12.448l8.299,10.67l-7.705,7.113l-8.893-10.077
	l-8.299,5.335l-17.189-4.742l-13.042-11.263h-11.855l7.113-18.376l-13.634-18.969l21.34,1.186l4.149-13.634l8.3-6.521l15.412,1.186
	l17.783-10.67l29.639,31.417l26.675-28.453l-11.263-8.299l2.964-17.19l29.045-12.448h13.635v21.34l13.041,16.598l18.969,1.186
	l-5.928,17.19l14.227,5.928l3.557,23.118h11.855l0.592,9.484h-6.52L658.574,585.634z"/>
<path id="path2207" fill="#FFFFFF" stroke="#000000" d="M568.977,416.725l-18.133-2.395l-11.633,14.712l0.684,10.264l-7.869,15.739
	l11.633,1.025l-5.132,9.58H518.34l3.079,15.396l-14.027,10.606l5.475,17.791l10.606,10.265l13.001-7.186L565.897,544l26.003-28.055
	l-10.949-8.554l3.079-16.423l28.397-13.686l14.713,0.342l-1.369-22.238l-13.344-0.342l-18.475-17.107l-6.843,0.342l-0.342-8.211
	L568.977,416.725z"/>
<path id="path2209" sodipodi:nodetypes="cccccccccccccccccccccccccccccccccccc" fill="#FFFFFF" stroke="#000000" d="M568.121,110.34
	l-9.237-13.856l-44.649,11.29l-8.725-12.83l-31.818-6.672l-8.725-18.475l-18.476,3.079l-10.777-22.581l-10.265,13.856L408,41.057
	l-22.067-7.698l-15.396-14.37l-9.237,13.343l-18.476-0.513l9.751,16.936l-21.042,12.317l-0.513,16.422l-10.265,9.238l4.105,12.316
	l24.121,5.132l9.751,15.396l14.883,7.185l13.856-19.501l8.725,8.211l24.121-23.607l12.83,8.211l16.936,39.003l10.265-10.777
	l21.041,14.37l1.54,23.094l15.909,18.476l11.303,13.391l22.844-16.208l-9.512-12.066l45.162-44.649L568.121,110.34z"/>
<path id="path2212" fill="#FFFFFF" stroke="#000000" d="M395.934,114.962l5.018,11.191l-11.577,0.386l-1.93,20.838l10.419,9.262
	l-12.349,8.104l8.876,11.191l11.191,1.158l14.664,15.822l14.664,41.677l21.61,11.963l9.647-19.295l8.104,1.929h7.332l19.682-26.627
	l-8.876-11.577l6.561-6.56l-15.822-19.295l-2.315-22.382l-20.453-14.665l-10.033,11.191l-16.979-39.362l-13.507-8.104
	L395.934,114.962z"/>
<path id="path2214" fill="#FFFFFF" stroke="#000000" d="M487.811,344.769l-34.91,35.841l3.258,13.033l-10.705,3.258l-12.103-10.706
	l-24.204-6.051l4.654,33.513l-17.688,15.826l-6.517-18.153l-47.013,0.466l0.466,9.31h-9.774L334.671,436l-13.498-0.931l-8.379,6.981
	l-12.102-15.36l5.12-11.171l-18.619,0.931l-11.637,15.36l-10.24-2.327v12.103h-10.24l-1.396-9.31l-8.844-0.931l-3.724,10.705
	l21.412,27.929l-3.258,17.688l4.654,7.447l12.103-13.033l8.378,7.913l15.826-0.465l4.655-9.31l18.153,9.774l3.259-11.637
	l40.961-5.12l19.084-21.411l27.929,14.43l12.567,13.032h13.498l1.396,9.775l-10.705,20.015l-3.259,12.568l21.411-6.982l10.241,7.913
	l26.997-2.793l11.171-7.913l5.586,10.24l14.895,1.396l6.052-3.724l-11.637-10.24l-4.655-17.223l13.499-11.171l-3.259-15.36h20.015
	l5.586-9.774l-12.102-0.932l8.378-16.291l-1.396-10.24l12.567-14.896l18.619,2.793l-10.24-13.498l-11.171-0.466l-6.982-30.255
	l-18.618-16.757h-11.637l-9.775,9.775l-6.982-13.964L487.811,344.769z"/>
<path id="path2218" fill="#FFFFFF" stroke="#000000" d="M240.718,442.11h-5.943l-8.255-18.491l4.623-8.585l-6.274-16.841
	l23.114-7.264l34.341,0.661v9.576h9.576l11.227-15.19l7.925,19.152l8.585,6.935l8.256-11.558l14.858,11.558v8.585h-9.575
	l1.65,15.189l-12.548-0.99l-9.245,7.264l-12.218-15.188l5.283-11.228l-19.482,0.33l-10.897,16.181l-10.236-2.643l-0.33,12.218
	l-9.906-0.66l-1.651-8.255l-8.585-1.651L240.718,442.11z"/>
<path id="path2220" fill="#FFFFFF" stroke="#000000" d="M224.869,398.523l-36.983,6.274l0.991-10.236l7.265-9.906l-29.718-15.52
	l11.227-7.265l6.935-8.585h8.585l-3.962-12.878l12.218-5.283l25.756-0.331l6.274,8.585l22.454-3.302l39.294,28.397l30.048-4.953
	l10.897,11.227l-17.831,17.831l-6.604,12.878l-8.915-19.482l-11.227,15.52l-9.576-0.661l0.661-9.245l-35.001-0.661L224.869,398.523z
	"/>
<path id="path2223" fill="#FFFFFF" stroke="#000000" d="M427.952,521.053l-4.687,13.813l-8.387-5.92l-16.279,0.247l-12.826,8.14
	l-7.646-3.946l-12.086,1.727l-0.494,13.319l-9.126-9.373l-26.393,0.246l-12.579-35.025l15.539-9.619l-9.373-4.934l2.713-11.593
	l41.192-4.687l18.993-21.706l27.625,14.8l12.826,13.073l13.32-0.494l1.479,9.373l-10.606,20.966L427.952,521.053z"/>
<path id="path2225" fill="#FFFFFF" stroke="#000000" d="M461.752,300.445l-21.368,9.381l-23.452-33.354l-64.624-6.775
	l-19.283-21.889l-8.339,18.762l-22.41-13.55l-45.341,20.325l3.648-57.328l22.931-1.042l-5.733-37.003h13.029l-2.605-26.058
	l29.186-26.58v-9.902l7.296-16.156l24.495,5.211l9.381,15.114l15.113,7.296l14.071-20.325l8.86,8.86l4.169,10.944h-11.986
	l-1.043,21.368l9.902,9.381l-12.508,7.817l9.381,10.945l10.944,1.042l14.593,16.156l14.593,41.693l21.368,11.465l9.901-18.762
	l7.817,1.042l-4.169,19.804l6.254,8.338l-18.241,30.228L461.752,300.445z"/>
<path id="path2227" sodipodi:nodetypes="ccccccccccccccccccccccccccccccc" fill="#FFFFFF" stroke="#000000" d="M227.228,334.842
	l10.424-35.439l19.283-26.58l45.863-20.326l21.889,14.072l8.339-19.804l19.804,22.931l64.104,6.254l23.452,33.875l21.89-9.902
	l10.944,8.86l14.071,35.96l-34.396,35.439l3.647,13.55l-10.944,3.648l-12.508-11.465l-23.974-6.254l4.69,34.917l-17.72,14.593
	l-6.774-17.72h-46.905l-14.071-10.944l-8.86,11.987l-7.817-7.297l6.254-12.508l18.241-17.719l-10.944-10.945l-29.707,4.169
	l-39.625-28.034l-22.285,3.171L227.228,334.842z"/>
<path id="path2229" fill="#FFFFFF" stroke="#000000" d="M707.63,725.183l-46.693-0.963l10.59,11.554l19.736,5.776l-27.439,12.997
	l-10.107,12.997h-9.146l-11.555,13.479l-31.77,1.925l-3.852,13.479l5.295,7.702l7.221-7.221l6.74,6.258l-12.035,15.404
	l-3.369,19.256l7.221,18.292l-19.737,21.181l-24.069,10.109l-8.665,12.997l4.813,28.401l16.367,1.444l-2.406,18.774l4.332,6.258
	l-38.029,11.553l20.699,13.96l4.814,18.293l25.031-31.29l12.035,0.481l0.963,21.181l23.105-0.481l1.926,22.625l10.59-0.481
	l19.256,25.994l18.773-18.773h21.182l-0.482-19.255l13.48-16.849l-6.26-7.702l14.441-27.92l27.922,2.888l-5.297-30.326
	l-8.664-12.517l3.852-43.806l-22.625-6.258l-11.553,9.146l-8.184-8.184l-3.852-17.811l18.293-19.256l-4.814-31.771l14.922-35.141
	L707.63,725.183z"/>
<path id="path2231" fill="#FFFFFF" stroke="#000000" d="M516.801,593.781l1.026,20.528l-31.819,2.054l-31.306,33.871l-3.079,20.528
	l13.344,5.132l21.555,21.042l13.343-0.514l12.831,21.042l-5.133,47.215l12.83-8.211l3.593,12.83h7.698l6.158-9.751l25.66,18.476
	l30.792-9.751v12.83l7.186,1.54l31.818-1.54l11.291-13.856h9.238l9.75-12.317l28.227-13.856l-20.527-5.646l-10.266-11.29
	l28.227,0.513l3.08-29.766l-3.08-16.937L706.173,680l10.266-26.173l11.803,7.185l25.66-14.369l0.514-8.212l-9.75-4.105l0.512-14.883
	l-6.158-8.725l4.619-8.725l-15.396-2.053l-5.131-6.159l-5.133,10.777l-9.752-1.539l-7.184-17.963L680,584.03l-12.316,7.186
	l-8.725-5.646l-11.291,9.238l-13.855,6.158h-18.988l-12.83,21.041l-12.831-24.634l4.618-7.698l-28.226,0.514l-14.369-21.042h-12.317
	l-4.105,12.317l7.185,10.777l-7.697,7.185l-8.725-10.264L516.801,593.781z"/>
<path id="path2235" fill="#FFFFFF" stroke="#000000" d="M451.146,670.496l-26.178,8.912l-6.684,14.48l6.684,15.596l-10.582,6.684
	v15.038l-13.367,10.582l-1.671,12.254l16.152,41.216v18.38l12.81,11.696l-1.113,23.393l11.139,17.823l22.279-7.798l13.924,22.279
	l3.899-11.697h10.025l5.569,29.52l61.267,1.114l10.582-13.367l22.836-8.911l20.05-22.279l-7.24-17.823l3.342-18.937l12.254-15.596
	l-6.127-5.569l-7.797,6.684l-5.57-7.798l3.898-13.367l-7.797-2.228l0.557-13.367l-30.633,10.582l-26.734-18.937l-4.456,11.139
	l-8.911-1.113l-3.342-13.367l-12.811,8.354l5.569-46.229l-13.367-21.165h-13.367l-21.164-20.607L451.146,670.496z"/>
<path id="path2237" fill="#FFFFFF" stroke="#000000" d="M329.209,539.091l0.497,42.271l14.422,14.919l16.908,29.34v20.39
	l15.913,16.41l0.994,6.465l8.952,9.946v9.448l-11.936-4.973l-6.465,9.448l5.968,26.854l2.486,29.34l13.924,0.995l7.957,3.48
	l1.492-11.935l14.422-10.94v-14.919l9.945-6.465l-5.968-14.422l6.962-15.416l25.859-8.454l2.984-21.881l31.826-33.318l31.33-1.989
	l-0.497-19.395l-16.411-4.476l-13.427-11.438l-11.935-0.497l6.962-17.902l-13.427-18.897l20.886,1.492l4.974-13.924l8.951-7.46
	l-5.968-9.448l-10.94,7.459l-27.849,2.984l-9.448-7.46l-21.881,7.46l-4.477,13.427l-7.459-6.962l-16.908,0.497l-13.924,8.454
	l-6.465-4.974l-12.433,1.989l-0.995,13.925l-8.453-9.449H329.209z"/>
<path id="path2239" fill="#FFFFFF" stroke="#000000" d="M237.604,299.833C237.437,299.833,237.269,299.833,237.604,299.833z"/>
<path id="path2241" fill="#FFFFFF" stroke="#000000" d="M237.604,299.332l-8.522-7.519l-12.532,6.517l-23.56,1.002l-9.524-18.547
	h-11.529l-27.57,20.051l-15.54-2.005l1.002,8.522l9.524,13.534l-12.031,10.527l7.018,40.102l0.501,35.591l14.036,1.504l2.005,24.563
	l21.555,23.56l0.501,10.526l17.545,1.504l37.595,52.133l9.524,22.056l9.524-0.501l2.506,11.529l-8.021,12.03l26.066,30.076
	l23.059-5.514l9.524-11.529l9.524,10.025l19.549-7.018v-43.611l-11.529-34.086l15.54-9.524l-10.025-5.514l-18.046-9.524
	l-5.514,10.025h-15.038l-8.522-8.021l-12.03,13.033l-5.514-7.018l4.01-18.548l-21.555-27.068h-6.015l-8.522-19.55l5.514-8.521
	l-7.018-15.539l-37.595,6.015l1.504-10.025l7.018-10.025l-29.575-15.54l11.529-7.018l7.519-9.524l8.021,0.501l-4.511-12.532
	l13.534-5.514l25.064-0.501L237.604,299.332z"/>
</svg>
