<?xml version="1.0" encoding="utf-8"?>
<!-- Generator: Adobe Illustrator 16.0.3, SVG Export Plug-In . SVG Version: 6.00 Build 0)  -->
<!DOCTYPE svg PUBLIC "-//W3C//DTD SVG 1.1//EN" "http://www.w3.org/Graphics/SVG/1.1/DTD/svg11.dtd">
<svg version="1.1"
	 id="svg2" sodipodi:docname="Municipios de Sinaloa.svg" sodipodi:docbase="C:\Documents and Settings\Juan\Mis documentos\Mis imágenes\Wikipedia\mapas" inkscape:version="0.46" sodipodi:version="0.32" inkscape:output_extension="org.inkscape.output.svg.inkscape" xmlns:dc="http://purl.org/dc/elements/1.1/" xmlns:cc="http://creativecommons.org/ns#" xmlns:rdf="http://www.w3.org/1999/02/22-rdf-syntax-ns#" xmlns:svg="http://www.w3.org/2000/svg" xmlns:sodipodi="http://sodipodi.sourceforge.net/DTD/sodipodi-0.dtd" xmlns:inkscape="http://www.inkscape.org/namespaces/inkscape"
	 xmlns="http://www.w3.org/2000/svg" xmlns:xlink="http://www.w3.org/1999/xlink" x="0px" y="0px" width="808.46px"
	 height="1003.45px" viewBox="188.054 32.375 808.46 1003.45" enable-background="new 188.054 32.375 808.46 1003.45"
	 xml:space="preserve">
<defs>
	
	
		<inkscape:perspective  id="perspective3113" inkscape:vp_z="1183.8877 : 530.76001 : 1" sodipodi:type="inkscape:persp3d" inkscape:vp_x="0 : 530.76001 : 1" inkscape:vp_y="0 : 1000 : 0" inkscape:persp3d-origin="591.94385 : 353.84001 : 1">
		</inkscape:perspective>
	
		<inkscape:perspective  id="perspective4399" inkscape:vp_z="744.09448 : 526.18109 : 1" sodipodi:type="inkscape:persp3d" inkscape:vp_x="0 : 526.18109 : 1" inkscape:vp_y="0 : 1000 : 0" inkscape:persp3d-origin="372.04724 : 350.78739 : 1">
		</inkscape:perspective>
</defs>
<sodipodi:namedview  id="base" inkscape:pageshadow="2" inkscape:pageopacity="0.0" inkscape:zoom="0.51153063" borderopacity="1.0" bordercolor="#666666" pagecolor="#ffffff" inkscape:cy="530.76001" inkscape:cx="591.94385" inkscape:window-y="-8" inkscape:window-x="-8" inkscape:window-height="750" inkscape:window-width="1280" inkscape:current-layer="layer1" inkscape:document-units="px" showgrid="false">
	</sodipodi:namedview>
<g>
	
		<path id="path2206" sodipodi:nodetypes="csssssssssssssssssssssssssssssssssssssssssssssssssssssssssssssssssssssssc" fill="#FFFFFF" stroke="#010000" d="
		M476.153,174.118c0.243-5.23,2.87-4.917,7.637-6.109c2.456-0.614-2.512-2.936-1.527-6.873c0.285-1.138,6.239-4.711,6.874-5.345
		c0.119-0.119-5.129-5.892-5.347-6.109c-1.966-1.966-3.595-4.899-4.582-6.873c-1.563-3.124-3.43-4.193-6.11-6.873
		c-3.195-3.195-0.369-3.911-6.109-5.345c-3.629-0.907,3.635-6.109,6.873-6.109c2.402,0,1.671-5.035,3.819-6.109
		c5.079-2.539,0.502-4.843-1.527-6.873c-0.713-0.712,3.453-7.703,3.818-9.163c0.443-1.774-4.829-2.83-3.818-6.873
		c0.945-3.781-3.134-6.951-4.583-8.4c-2.656-2.656-4.627-3.144-6.109-6.109c-1.683-3.366-5.959-2.291-9.929-2.291
		c-3.134,0-1.527-4.364-1.527-8.4c0-2.953-6.205,1.933-7.638,2.291c-3.358,0.84-6.533-2.375-9.928-3.055
		c-2.261-0.452,1.322-4.636,0.764-6.872c-0.947-3.786,2.82-6.374,5.346-7.636c4.231-2.116,4.581-1.533,3.055-7.636
		c-0.952-3.811-2.824-5.403-6.109-4.582c-4.788,1.197-3.266-1.04-6.874,0.764c-3.606,1.803-5.647,1.758-9.164,0
		c-1.11-0.555-4.146,2.836-6.11,3.818c-2.293,1.146-6.26-2.291-9.929-2.291c-5.093,0-6.358-1.775-9.164-4.582
		c-2.772-2.771-5.508-0.723-8.401,0c-3.232,0.808-2.496,4.684-5.346,6.109c-2.546,1.272,5.624,1.806,7.637,3.818
		c2.982,2.982,2.168,5.949-1.527,6.873c-3.199,0.8-3.172,5.462-5.346,7.636c-2.927,2.926-4.693,5.566-6.11,8.4
		c-1.486,2.973-0.676,7.286-1.527,10.69c-1.092,4.365-7.185-0.311-2.291,4.582c3.203,3.203-0.484,7.357-1.527,8.399
		c-2.16,2.16-6.433-1.366-9.165,0c-2.953,1.477-2.291,7.108-2.291,10.691c0,5.425-3.055,2.993-3.055,8.4
		c0,3.125-6.543,1.095-1.527,6.109c3.069,3.07,7.947-1.837,2.291,3.818c-3.379,3.378-4.657,12.571-2.69,14.045
		c2.012,1.509,7.087,9.226,7.579,11.198c0.761,3.04,11.356-8.707,9.622-12.262c-2.104-4.311,6.965,6.069,5.445-0.006
		c-0.896-3.582,1.877-2.743,1.877-6.466c0-1.077,2.653-3.266,3.37-0.4c1.127,4.507,4.8,5.645,8.45,4.732
		c1.991-0.498,0.251-7.289,2.241-7.786c3.506-0.876-0.625-5.502,6.11-3.818c2.198,0.55-1.472,3.919-1.063,5.552
		c0.723,2.89-3.039,0.134-5.146,2.241c-1.855,1.855-0.539,10.284-1.428,12.062c-0.273,0.548-13.319,4.824-4.325,7.072
		c5.434,1.358,11.84-2.384,11.199,1.327c-1.398,8.104-1.216,9.923,3.262,12.161c3.211,1.605,5.739-5.889,8.194-8.343
		c2.573-2.573,5.776,4.013,6.109,5.345c1.094,4.375,1.64,4.693,4.583,7.636c1.548,1.548-3.819,3.155-3.819,5.345
		c0,4.125-6.523,6.073-5.131,8.856c0.534,1.068,14.848,4.842,15.823-1.22c1.256-7.804,6.952,14.037,2.506,17.6
		c-6.143,4.922,3.604-9.039,3.604-5.382c0,3.367,3.715,4.582,7.637,4.582c3.454,0,2.759,7.865,5.396,2.591
		c0.729-1.458,8.213,0.047,9.878,0.463c2.863,0.715,0.813,4.099,7.381,1.571c4.295-1.654,6.473,1.367,8.808,0.2
		c4.576-2.288,4.205-10.141,2.134-12.211c-3.224-3.223-3.173-7.43,1.885-7.43C486.184,185.265,479.333,179.417,476.153,174.118z"/>
	
		<path id="path2208" sodipodi:nodetypes="cssssssssssssssssssssssssssssssssssssssssssssssssssssssssssssssssscsssssssssssssssssssssssssssssssssssssssssssc" fill="#FFFFFF" stroke="#010000" d="
		M299.731,177.172c3.6,0-7.2-2.4-10.692-1.527c-0.082,0.021-7.797-1.527-9.928-1.527c-5.264,0-6.559,1.871-9.165,5.345
		c-1.738,2.317-0.764,7.694-0.764,10.691c0,2.041-3.819,4.597-3.819,9.164c0,3.579,9.124,0.041,3.819,5.345
		c-3.289,3.289-6.326-1.628-4.583,5.345c0.931,3.723,2.204,5.76,3.055,9.163c0.531,2.125-3.222,3.287-5.346,3.818
		c-3.055,0.764-0.883-6.347-2.291-9.164c-1.686-3.371-2.685-4.304-6.11-6.873c-3.369-2.525,0.034-5.379,1.527-6.872
		c2.894-2.894-2.575-7.92-3.055-8.4c-1.513-1.512-2.871-6.505-3.818-8.399c-1.732-3.464-4.032,1.616-4.583,3.818
		c-0.833,3.33,0,8.001,0,11.455c0,3.753-0.104,8.051-0.764,10.69c-0.707,2.826-3.592,5.202-4.583,9.164
		c-0.746,2.984-6.555,1.357-8.401,3.818c-0.635,0.847-3.055,11.042-3.055,3.055c0-4.384,0.775-6.917,1.528-9.927
		c0.845-3.38,2.943-4.897,3.818-8.4c1.102-4.404,1.539-5.368,3.055-8.399c1.518-3.036,3.818-1.385,3.818-7.636
		c0-4.376-7.119,0.504-7.637,0.763c-2.113,1.057-3.28,6.248-3.819,8.4c-0.909,3.636-1.202,7.748-2.291,9.927
		c-1.233,2.465-3.373,4.454-4.582,6.873c-1.438,2.876-1.105,6.792-2.292,9.164c-1.854,3.706-2.147,4.128-6.11,6.109
		c-2.271,1.135-4.181,5.306-5.346,7.636c-1.395,2.79-2.442,5.646-3.818,8.399c-1.488,2.975-3.918,5.545-5.346,8.4
		c-1.7,3.399-3.819,5.275-3.819,9.927c0,0.975,5.103,5.102,6.11,6.109c1.142,1.141,0,9.64,0,11.454c0,4.89,0.059,7.578-3.055,10.691
		c-3.177,3.176,1.032,4.939,3.055,7.636c1.887,2.516,0.246,7.09,0.764,9.164c1.128,4.511,6.646-5.197,6.874-6.109
		c1.203-4.81,0.161-6.229,1.527-0.764c1.191,4.766,5.595,1.278,6.874,0c2.099-2.099,1.613,7.636,4.583,7.636
		c5.168,0,5.767,1.37,4.582,6.109c-0.966,3.865,0.916,6.264,0,9.927c-1.134,4.535,3.997,5.39,6.874,6.109
		c3.762,0.94,1.841,7.949,4.583,10.69c1.901,1.9,6.378,2.291,9.165,2.291c0.456,0-4.389-8.078-4.582-8.4
		c-1.54-2.566-3.019-4.438-3.819-7.636c-0.814-3.256-2.291-4.293-2.291-9.163c0-6.004,3.606-1.188,4.582,0.763
		c2.598,5.194,6.11,2.293,6.11,8.4c0,5.204,2.104,8.212,5.346,11.454c3.285,3.285,4.211,6.48,8.401,2.291
		c3.915-3.914,6.488,7.651,8.401,0c1.233-4.933,1.644-2.511,6.874-3.818c0.976-0.244,3.287-5.238,7.637-6.108
		c3.423-0.685,4.958-3.721,8.401-4.582c4.16-1.04,5.458,4.263,6.11,6.873c0.781,3.124-6.888,0.778-9.165,3.055
		c-3.533,3.533-4.583,1.398-4.583,8.4c0,5.198-0.629,5.974-3.055,8.399c-2.013,2.013-2.546-5.091-3.819-7.636
		c-2.811-5.62-4.582,3.416-4.582,5.345c0,2.576-7.859,1.527-9.929,1.527c0,5.377-2.014,4.721,3.818,7.636
		c3.224,1.612,3.458,3.903,4.583,8.4c1.098,4.391,6.265,1.832,8.401,0.764c2.037-1.018-2.503-3.9-3.055-6.109
		c-0.173-0.691,9.542-1.527,10.692-1.527c5.858,0,6.874,1.382,6.874,6.873c0,2.747-1.298,3.321,3.819,0.764
		c3.516-1.758,3.437-3.723,9.165-2.291c4.087,1.022,8.805-0.583,10.691-1.527c3.902-1.95-7.285-3.054-8.4-3.054
		c-4.981,0-7.302,1.342-8.401-3.054c-0.684-2.735-1.391-4.8-2.291-8.4c-0.744-2.973,6.19-1.507,9.165-0.763
		c4.817,1.204,6.402,0.235,8.4-0.764c0.478-0.239-5.921-7.384-6.109-7.636c-0.967-1.289-0.514-9.69-0.764-10.69
		c-0.841-3.363-2.893-4.695-3.819-8.4c-0.589-2.356,2.407-7.869,3.055-9.164c2.261-4.521,6.109-1.207,6.109-6.873
		c0-4.794-1.472-7.636,3.818-7.636c5.089,0,2.847,1.302,7.638-2.291c3.125-2.343,3.818-2.113,3.818-7.636
		c0-5.071-4.055-3.818-8.401-3.818c-2.395,0-5.75,3.639-7.637,4.582c-3.926,1.962-2.479,1.339-6.109-2.291
		c-2.415-2.414-3.189-4.682-6.11-6.873c-3.643-2.732-5.635,0.578-6.874,3.054c-2.354,4.707-4.645-0.062-6.11-1.527
		c-2.416-2.416,0-7.433,0-9.927c0-1.686-6.375-4.266-7.637-4.582c-2.543-0.636,4.331-3.183,6.874-3.818
		c0.689-0.173-2.223-7.293-2.291-7.637c-0.671-3.355,1.912-3.721-2.292-6.872c-2.906-2.18,5.593,0.759,7.937-1.584
		c3.163-3.162-0.459-8.789,1.228-12.161c0.907-1.814-0.051-5.29-0.871-6.109c-2.766-2.766-1.328-1.686-1.328-6.416
		c0-2.518,1.487-8.546,1.934-10.333c1.059-4.234,2.848-3.162-1.727-7.736c-3.444-3.444-4.49,1.384-1.785-4.025
		c2.156-4.311-3.458-5.852,2.249-5.852c2.778,0,10.592,1.053,12.776,0.507c2.482-0.621-4.756-7.382-3.611-9.67
		C301.289,187.04,300.524,181.138,299.731,177.172z"/>
	
		<path id="path2210" sodipodi:nodetypes="cssssssssssssssssssssssscsssssssssssssssssssssssssssssssssssscsssssssssssssssssssssc" fill="#FFFFFF" stroke="#010000" d="
		M330.699,295.762c1.272,0.255,2.52,0.764,3.818,0.764c3.348,0,14.301,5.985,15.112,2.737c0.767-3.065,0.095-8.627,4.137-9.637
		c6.176-1.544-4.264-1.976-5.156-5.546c-1.085-4.34-0.176-4.407,3.055-7.636c0.626-0.625,6.61-5.583,6.874-6.109
		c1.173-2.346,0.544-5.995,1.527-9.927c1.48-5.92-3.819-0.045-3.819-6.108c0-6.651,2.739-3.187,4.583-6.873
		c0.406-0.812,6.236-1.483,7.529-1.483c3.146,0,3.16-9.208,6.218-7.68c1.209,0.604,11.434,9.625,10.485,4.882
		c-0.169-0.841-6.332-14.219-5.14-13.282c6.074,4.773,7.638,3.446,7.638,2.291c0-5.963,1.386-0.905,3.818,1.527
		c2.013,2.013,7.711,4.288,8.401,1.527c0.746-2.983-0.971-6.046,0-9.927c0.731-2.927,10.485,3.188,10.485,2.691
		c0-5.976-2.074-9.563,3.262-9.563c5.576,0,12.385,9.323,13.84,3.504c0.689-2.761-2.912-10.749-0.093-11.141
		c4.456-0.62,1.877-2.168,1.877-6.109c0-3.818,0.407-3.161,0.407-6.979c0-3.462-1.499-17.499-3.048-14.402c-1.272,0-2.546,0-3.818,0
		c-2.376,0-3.056-7.942-3.056-8.4c0-1.967,4.883-0.927,2.291-6.109c-1.709-3.418-3.818-2.215-3.818-7.636
		c0-4.016-4.795-4.337-6.873-3.818c-4.859,1.214-0.36,4.884-6.874,0c-3.781-2.836-3.168-4.229-7.638-5.346
		c-1.771-0.443-5.063-3.677-6.873-4.582c-2.1-1.049,4.777-2.305,5.346-4.582c1.297-5.187,1.276-4.33,4.583-7.636
		c3.241-3.241,5.97,1.808,8.4-3.055c1.273-2.545-2.545-5.09-3.818-7.636c-2.088-4.175-7.318,2.417-7.638,3.055
		c-1.373,2.746-3.27,4.247-4.582,6.873c-1.623,3.247-6.658-5.13-6.873-5.345c-2.064-2.064-6.525-3.644-8.401-4.582
		c-4.329-2.164,1.101,4.919,1.527,5.346c3.299,3.298,0.283,6.992-2.291,7.636c-3.349,0.837-4.827,2.536-6.874,4.582
		c-3.279,3.279-3.262,3.405-5.346-0.764c-2.272-4.545,0.815-6.261-3.055-9.164c-2.861-2.145,0.521-7.395,1.527-8.4
		c1.375-1.374-6.191-4.834-6.874-5.345c-2.645-1.983-6.146,3.854-6.873,4.582c-1.142,1.141,0,9.64,0,11.454
		c0,5.491-3.019,1.164-5.347,0c-2.877-1.438-7.274-0.764-10.691-0.764c-1.352,0-3.885,3.834-6.874,4.582
		c-3.047,0.762-3.227,2.291-7.638,2.291c-5.451,0-6.109-0.172-6.109,5.345c0,4.687-1.08,5.885-4.582,7.636
		c-2.862,1.431-8.579,2.291-1.528,2.291c4.475,0,8.374-0.014,11.456,1.527c3.086,1.542-4.263,3.499-5.346,4.582
		c-1.283,1.283-1.909,8.398-2.291,9.164c-1.386,2.77-6.975-0.663-9.165,1.527c-0.456,0.456-1.241,2.48-1.527,3.054
		c-1.317,1.316,1.274,9.41,0.764,11.454c-0.813,3.25,1.527,5.759,1.527,9.927c0,2.638-7.328,1.527-9.929,1.527
		c-4.847,0-7.353-1.138-8.401,3.054c-1.159,4.633-0.605,7.636,3.819,7.636c3.348,0-0.715,6.679-1.527,9.927
		c-0.818,3.272-2.292,5.454-2.292,9.164c0,5.034,1.667,5.189,5.346,6.109c3.987,0.997,3.055,4.25,3.055,8.4
		c0,2.846-5.625,1.806-7.637,3.818c-2.64,2.64-2.586,3.991-0.764,7.637c1.346,2.691,2.292,5.624,2.292,9.163
		c0,2.673,5.718,2.961-0.764,4.582c-1.979,0.495-4.863,4.175-5.346,6.108c-0.69,2.761,5.625,1.806,7.637,3.818
		c0.947,0.947,0.764,9.382,0.764,10.69c0,3.148,6.938-0.064,9.165-2.291c3.256-3.255,5.879,1.474,7.637,3.818
		c1.62,2.159,5.283,3.755,6.874,5.346c2.146,2.146,7.921-2.575,8.4-3.055c3.041-3.04,4.803-2.181,7.638-0.764
		C331.53,293.867,330.699,303.906,330.699,295.762z"/>
	
		<path id="path2212" sodipodi:nodetypes="csssssssssssssssssssssssssssssssssssssssssssssssssssssssscsssssssc" fill="#FFFFFF" stroke="#010000" d="
		M311.951,354.332c0.801,4.674,3.163,5.345,9.164,5.345c5.097,0,4.685-0.662,7.638,2.291c2.222,2.221-4.103,6.392-4.582,6.872
		c-4.034,4.033,3.406,6.579,4.582,6.873c5.456,1.364,0.694,3.818-3.055,3.818c-5.663,0-6.11-0.409-6.11,5.345
		c0,5.289-4.028,2.238-6.873,1.527c-2.482-0.621-6.021-4.133-7.637-5.345c-2.494-1.87-8.42-0.764-11.456-0.764
		c-3.819,0-7.637,0-11.456,0c-4.884,0-8.318,0.764-1.527,0.764c3.145,0,6.414,1.527,10.692,1.527c2.853,0,6.599,1.771,9.165,3.055
		c3.155,1.578,4.852,3.324,6.874,5.345c1.931,1.931,6.848,1.897,9.164,3.055c3.171,1.585,6.827,0.752,9.929,1.527
		c4.419,1.105,6.909,3.054,12.22,3.054c4.596,0,6.648,1.033,10.692,3.055c3.047,1.523,5.945,3.777,9.165,4.582
		c3.365,0.841,6.785,3.604,10.691,4.581c3.392,0.848,5.067,2.776,6.874,4.582c3.063,3.063,4.784,4.021,6.874,6.108
		c2.448,2.449,4.859,4.235,7.637,5.346c4.735,1.894,5.688,0.603,6.874,5.346c0.884,3.538,3.693,7.9,2.291,2.291
		c-1.057-4.227,1.527-6.528,1.527-10.691c0-3.26,5.332-3.804,7.638-6.108c1.374-1.374-5.642-3.351-6.874-4.582
		c-2.162-2.161,4.859-1.769,3.818-7.636c-0.47-2.65,8.854,0.609,9.867-1.415c0.025-0.051,1.845-8.768,2.353-9.276
		c2.037-2.037,4.201-3.426,6.238-5.462c1.567-1.567-1.655-10.702-1.655-13.628c0-5.663-0.063-1.271,5.691-1.271
		c1.088,0,5.832,0.142,7.292,0.507c3.243,0.811,4.701-2.653,3.975-4.107c-1.995-3.989,0.256-6.711,3.4-8.283
		c1.152-0.576-7.96-7.105-8.139-7.464c-2.227-4.45,3.339-6.393,4.582-7.636c3.536-3.536,3.34-7.117,0.056-7.938
		c-3.23-0.808-10.253,0.34-12.593-0.245c-2.746-0.687-6.391-3.87-8.084-5.563c-3.195-3.195-4.222-3.235,0-5.346
		c2.816-1.408,1.664-8.665-0.563-10.891c-3.314-3.314-4.183-4.396-8.675-5.518c-4.88-1.22-5.251-1.887-10.993-6.193
		c-5.021-3.765-6.613,7.07-8.256,0.502c-0.936-3.743-1.299,7.017-1.299,9.119c0,4.678-12.048,0.29-16.178,0.29
		c-3.918,0,0.844,3.543-2.152,4.292c-1.926,0.481-3.044,2.459-6.873,3.416c-2.113,0.528-8.001-2.045-11.256-2.045
		c-4.998,0-7.389,2.896-10.129,0.157c-3.203-3.203-2.471-5.75-0.764-9.164c2.208-4.416-2.407-7.318-4.481-7.837
		c-2.646-0.661-3.833-8.324-5.938-8.01c-0.913,0.137-1.14-2.659-2.564,1.338c-0.764,1.018-1.391,2.155-2.291,3.054
		c-2.157,2.158-5.815,0.464-9.956,1.5c-4.708,1.177-2.405,5.645-3.746,10.301c-1.258,4.364-2.799,0.191-4.627,5.763
		c-0.338,1.028-4.343,6.304-3.819,8.4c1.021,4.081,2.874,4.876,3.546,7.564c0.66,2.639,0.764,6.246,0.764,9.999
		C308.623,347.8,311.127,357.626,311.951,354.332z"/>
	<path id="path2214" fill="#FFFFFF" stroke="#010000" d="M476.917,175.645c2.842-2.842,6.961,4.669,9.929,7.636
		c2.399,2.399,3.818,4.721,3.818,9.163c0,1,4.438,5.057,5.346,6.873c2.08,4.16,0.917,6.261,3.819,9.163
		c2.377,2.377,3.231,4.172,4.582,6.873c1.439,2.879,0.545,7.962,1.527,9.927c1.549,3.097,7.48,0.606,9.929,3.054
		c1.909,1.909,1.909,5.727,3.818,7.636c3.196,3.196,6.147-2.328,7.638-3.818c2.568-2.568,7.246-1.998,10.692-4.582
		c2.416-1.812,3.504,1.449,6.873,2.291c4.575,1.144,1.926,4.764,6.874,2.291c3.206-1.603,8.178-0.899,10.692-1.527
		c2.815-0.704,2.529,6.168,5.346,6.873c0.929,0.232,1.423,9.51,1.527,9.927c1.006,4.021-1.993,4.814-4.582,6.109
		c-4.769,2.384,4.178,5.244,4.582,5.345c2.998,0.75,1.834,8.703,1.527,9.927c-0.813,3.248-6.68,0.715-9.929,1.527
		c-1.935,0.484-4.222,4.985-5.346,6.109c-1.695,1.695-1.814,8.019-2.291,9.927c-0.833,3.33,0,8.001,0,11.454
		c0,2.657-4.108,6.688-5.347,9.164c-2.104,4.207-3.418,4.018-6.873,2.291c-5.054-2.526-6.27,2.165-6.874,4.582
		c-0.866,3.466-7.226-0.103-10.692,0.763c-2.443,0.611-4.712,3.087-7.637,3.818c-3.754,0.938-2.333,3.818-7.638,3.818
		c-3.311,0-5.918,2.099-7.637,3.818c-1.909,1.909-1.909,5.727-3.819,7.636c-1.909,1.909-6.113-1.529-7.637-2.291
		c-4.478-2.238-5.522,2.995-6.11,5.345c-0.605,2.423-4.181,4.582-6.873,4.582c-4.154,0-2.743-1.075-6.11,2.291
		c-1.909,1.909-2.673,4.964-4.582,6.873c-0.36,0.36-1.019,0-1.527,0c-2.527,2.526-7.226-0.103-10.692,0.764
		c-3.124,0.781-5.944-3.054-9.165-3.054c-3.708,0-2.72-3.912-3.818-6.109c-0.368-0.735-10.221,0-11.456,0
		c-4.445,0-4.729-2.438-6.874-4.582c-2.256-2.256-4.023-4.023-6.109-6.109c-1.947-1.947,4.582-4.119,4.582-6.873
		c0-1.811-4.549-6.574-5.346-7.636c-2.518-3.355-3.368-3.549-8.401-2.291c-4.01,1.003-6.031-2.212-7.637-3.818
		c-2.209-2.208-4.448-3.088-7.638-2.291c-2.891,0.722-0.948,6.293-3.055,8.399c-1.142,1.141-9.642,0-11.456,0
		c-5.584,0-5.094,2.044-6.11,6.109c-0.835,3.341-5.781,2.291-9.164,2.291c-3.454,0-6.164-2.291-10.692-2.291
		c-4.729,0-6.915-0.042-9.165-2.291c-2.313-2.313-2.291-5.283-2.291-9.164c0-3.896-0.293-3.347-3.818-6.873
		c-2.99-2.99-3.773-3.728-5.347-6.873c-1.816-3.632,1.205-4.853,5.347-3.818c4.105,1.026,7.414,0.652,10.691,2.291
		c2.037,1.018,1.445-4.499,3.056-6.109c3.105-3.105,3.605-1.74,0.764-4.582c-3.15-3.15-1.016-6.621,0.764-8.4
		c2.362-2.361,2.776-3.679,6.109-5.345c2.633-1.316,1.528-6.871,1.528-9.927c0-4.512-1.259-5.032-2.292-9.163
		c-0.55-2.201,3.6-4.908,4.583-6.873c1.693-3.386,2.092-4.481,5.346-6.108c3.492-1.746,6.73-1.563,9.929-0.764
		c4.771,1.192,5.346,2.674,5.346-3.818c0-1.298-0.509-2.545-0.764-3.818c-0.521-2.606,5.758-0.412,7.638-2.291
		c1.125-1.125,5.893,5.128,6.109,5.345c3.413,3.412,5.347,1.5,5.347-3.054c0-5.264-0.159-6.713,2.291-9.164
		c3.512-3.511,5.273,1.816,6.874-4.582c0.805-3.22,6.708,0.041,9.928-0.764c4.195-1.048,3.028-3.818,8.401-3.818
		c1.313,0-2.763-6.288-3.055-6.873c-1.233-2.465-0.764-7.093-0.764-10.69c0-4.152,2.291-4.588,2.291-9.163
		c0-4.622,3.999-2.819,6.109-2.291c1.146,0.286,2.008,3.818,7.638,3.818c3.418,0-1.115,5.224-1.527,6.873
		c-1.343,5.368,3.869,3.818,7.637,3.818c3.128,0,1.506-3.066,6.11-0.764c1.552,0.776,5.972,2.917,7.637,4.582
		c1.106,1.106,1.967-2.729,3.819-4.582c0.707-0.707,10.146-0.627,10.691-0.764c2.949-0.737-1.149-8.661-1.527-9.164
		c-3.122-4.163-0.864-3.054,4.583-3.054C482.458,184.809,478.123,178.66,476.917,175.645z"/>
	
		<path id="path2216" sodipodi:nodetypes="csssssssssssssssssssssssssssssssssssssssssssssssssssssssssssssssssssc" fill="#FFFFFF" stroke="#010000" d="
		M546.416,310.805c4.081,0-0.764,8.137-0.764,12.218c0,3.389,1.837,4.872,0.764,9.164c-0.823,3.294,6.634,1.467,9.929,2.291
		c3.654,0.913-0.764,5.709-0.764,8.399c0,4.294-0.338,2.878-1.527,7.636c-1.285,5.141,0.594,6.279-2.291,9.164
		c-2.64,2.639-4.634,1.628-6.874,6.109c-2.727,5.453,1.527,2.412,1.527,7.636c0,3.21,1.34,6.355-0.342,8.037
		c-1.281,1.282,3.854,8.048-4.785,8.048c-2.741,0-7.054-0.89-7.856,0.714c-0.479,0.958,6.549,9.221,5.934,11.679
		c-0.823,3.295-7.659,1.35-10.697,2.868c-2.936,1.468-5.352-0.629-5.929,2.253c-0.354,1.775-1.85,5.513-2.836,6.498
		c-3.232,3.232-3.944,1.308,0.765,1.308c4.062,0,6.19,2.524,7.632,2.885c2.199,0.55,4.316,7.761,5.346,8.79
		c3.412,3.411,0.314,2.25,4.962,3.411c4.117,1.029,1.89,2.285,7.039,2.285c2.347,0,5.229-3.686,6.89-5.345
		c2.34-2.34,7.394,6.317,10.703,6.317c2.714,0,2.656,7.428,3.434,8.981c2.047,4.092,3.247,3.032,3.247,8.966
		c0,4.664-2.29,8.63-3.813,11.675c-1.182,2.363-4.381,1.52-5.912,4.581c-1.503,3.006-3.569,1.755-4.972,4.56
		c-1.331,2.661-1.148,8.442-1.148,12.037c0,0.834-8.374-1.545-9.187,1.703c-0.899,3.598-3.582,4.4-4.582,8.399
		c-0.658,2.63-6.836,1.527-9.929,1.527c-1.328,0-3.867-0.813-6.874-3.818c-2.422-2.422-7.718-1.527-11.455-1.527
		c-2.847,0-1.273-6.363-3.819-7.636c-2.392-1.195-3.251-5.368-3.818-7.637c-0.813-3.247-6.68-0.715-9.929-1.526
		c-3.15-0.788-3.818-4.188-3.818-7.637c0-2.413-5.347-2.377-5.347-6.872c0-4.244,0.534-5.346-5.346-5.346
		c-3.027,0-5.979-4.451-6.11-4.582c-1.938-1.938,5.699-4.992,7.638-3.054c3.281,3.28,1.017-1.702,2.27-4.208
		c2.398-4.796-2.037-9.002,4.017-10.516c5.247-1.312,3.538,3.721,6.473,0.786c2.881-2.88-0.244-4.889-1.303-5.153
		c-0.168-0.042-3.522-7.34-3.818-7.636c-1.801-1.8-4.88-2.294-4.263-4.764c0.69-2.761,3.753-3.891,1.208-5.164
		c-4.75-2.374,1.019-7.972,1.511-8.218c1.627-0.813-1.259-5.282-1.511-6.291c-0.635-2.538,4.352-4.112-2.297-2.45
		c-4.111,1.027-1.464-0.575-6.104-2.895c-3.538-1.769-2.159-5.61-0.764-8.4c1.161-2.322-2.157-5.118-1.527-7.636
		c0.471-1.884-6.133-5.899-6.9-8.971c-1.065-4.258,4.662-7.279,5.372-10.119c0.751-3.003-6.602-2.605-8.4-3.055
		c-2.762-0.69,2.546-5.091,3.818-7.636c1.712-3.423,3.958-3.054,8.401-3.054c3.668,0,4.86-2.848,6.109-5.345
		c1.931-3.86,2.813-5.084,6.874-3.055c6.848,3.423,5.802-0.294,6.873-4.582c0.528-2.11,6.537-4.795,7.638-5.345
		c2.71-1.355,8.202-0.665,9.929-1.527c2.746-1.373,4.812-3.284,6.873-5.346c2.251-2.25,6.215-1.527,9.929-1.527
		c2.884,0,0.697-5.345,6.11-5.345C542.417,308.515,542.153,309.101,546.416,310.805z"/>
	
		<path id="path2218" sodipodi:nodetypes="cssssssssssssssssssssssssssssssssssssssssssssssssssssscssssssssssssssssssssssssssssssssc" fill="#FFFFFF" stroke="#010000" d="
		M566.273,454.365c3.633,0,4.393,3.499,6.286,7.285c1.19,2.382,8.379,4.002,11.087,5.355c3.645,1.822,4.032-1.563,8.594-0.423
		c6.387,1.597,8.631,3.104,8.631-0.726c0-6.418-3.836-9.53,0.533-8.438c5.607,1.401,12.52,4.496,11.691,1.187
		c-0.428-1.711-7.604-9.354-8.982-10.734c-3.242-3.241-4.701-2.923-6.49-6.499c-2.834-5.667-1.215-0.16,2.645-0.16
		c2.174,0,1.279,3.489,3.225,2.517c2.547-1.272,4.277-2.601,5.549-0.055c1.154,2.309,7.168,2.291,10.693,2.291
		c5.465,0,6.586,0.378,5.346-4.582c-0.727-2.905,3.674-3.184,2.9-6.279c-0.715-2.856-9.238-8.686-10.537-11.284
		c-1.26-2.52-3.023-5.167-1.111-4.57c8.023,2.505,7.068,8.093,8.012,8.636c2.811,1.62,4.221,0,7.627,1.703
		c5.889,2.944,4.844-6.16,2.273-9.587c-2.014-2.685-3.4-5.272-4.582-7.636c-1.447-2.896-4.438-7.563,1.527-4.581
		c4.51,2.254,7.057,4.184,3.818-2.291c-1.75-3.5-1.17-5.065-5.346-6.109c-4.775-1.193,0.494-8.131,0.764-8.4
		c2.848-2.846,3.107-3.054,8.402-3.054c3.912,0,3.055-4.553,3.055-8.4c0-5.944,0.311-5.649-4.584-6.873
		c-3.426-0.856-2.291-5.186-2.291-9.163c0-2.576,7.859-1.527,9.93-1.527c4.479,0,7.447,0.094,10.691-1.527
		c3.055-1.527,5.908-3.616,7.637-5.346c2.344-2.341,4.594-3.06,7.639-4.582c3.324-1.662,3.791-3.929,3.055-6.873
		c-0.953-3.809-3.438-4.391,1.527-6.873c4.961-2.48-2.678-5.824-3.818-6.109c-1.564-0.391-6.242,3.278-8.402,3.818
		c-0.898,0.225-4.596-6.124-5.346-6.873c-2.412-2.412,0.014-4.528-0.764-7.636c-0.605-2.424-5.141-3.715-6.873-4.582
		c-2.736-1.368-5.984-5.824-8.4-7.636c-3.006-2.254-4.373-4.477-7.639-6.109c-2.855-1.428-5.506-4.742-7.637-6.872
		c-2.605-2.604,0.096-4.152-5.346-6.873c-5.711-2.855-4.957-4.971-1.527-8.399c2.947-2.948-0.469-8.105-1.527-9.164
		c-3.01-3.009-3.795-2.241-4.582-3.818c-1.574-3.148-0.055-4.636-3.057-7.636c-2.313-2.313-2.291-5.283-2.291-9.164
		c0-2.632-8.145-0.764-9.928-0.764c-6.598,0-2.604-0.485-3.818-5.345c-0.697-2.79-4.585-3.821-6.11-5.345
		c-2.81-2.809-6.245-1.078-8.401,0c-3.419,1.709-2.216,3.818-7.638,3.818c-1.018,0-2.036,0-3.055,0
		c0.063,0.316,1.078,4.09,0.764,5.345c-0.668,2.671-5.813,4.41-4.582,6.873c0.539,1.078,0.742,1.506,3.818,4.582
		c2.355,2.355,2.291,4.154,2.291,9.164c0,5.29-2.842,3.818-7.637,3.818c-7.238,0-4.042,0.986-7.638,4.582
		c-2.354,2.354-3.055,3.392-3.055,8.4c0,2.762,1.203,9.047,0,11.454c-1.093,2.184-3.905,4.927-4.583,7.636
		c-0.607,2.432-3.187,6.344-3.055,6.873c0.714,2.853,0.782,6.801,0,9.927c-1.051,4.205,2.291,5.968,2.291,8.399
		c0,7.678,0.673,1.436,4.583,5.346c2.639,2.639,2.006,2.668,0.764,7.636c-0.846,3.382-1.527,6.428-1.527,9.927
		c0,3.688,0.632,7.702-2.292,9.164c-1.751,0.875-6.231,3.328-5.346,6.873c0.918,3.672,3.745,4.655,0,8.4
		c-2.295,2.295-3.364,4.891-5.346,6.872c-0.207,0.207-6.304,6.485-6.11,6.873c0.511,1.02,5.557,6.031,5.347,6.872
		c-0.854,3.411-1.223,3.055-7.638,3.055c-2.085,0-8.307,1.338-9.165,3.055c-0.397,0.795-2.151,7.496-3.055,8.399
		c-0.956,0.956-7.311,5.346-0.764,5.346c4.276,0,6.702-0.172,9.165,2.291c2.257,2.257,2.999,3.707,4.582,6.872
		c1.437,2.872,3.193,5.415,6.11,6.873c0.62,0.31,7.868,3.587,9.928,1.527c0.48-0.48,5.069-6.386,6.11-5.346
		c0.876,0.876,6.6,4.249,6.873,5.346c0.691,2.765,4.54,5.938,5.347,9.163C566.376,447.141,562.7,454.365,566.273,454.365z"/>
	<path id="path2220" sodipodi:nodetypes="cssssssssssssssssssssssssssssssssssssssssssc" fill="#FFFFFF" stroke="#010000" d="
		M477.681,445.202c1.739-6.955,0.627-1.005-2.687-7.631c-2.395-4.788,3.021-6.114-4.188-6.114c-1.988,0-6.385-4.54-7.273-6.318
		c-1.211-2.42,8.693-0.984,8.037-3.609c-1.16-4.64-2.96-3.695-5.741-6.477c-2.511-2.511-5.438-6.036-6.318-9.559
		c-0.704-2.816,4.048-4.085,5.347-6.681c2.177-4.354,1.28-5.147-1.88-5.147c-4.429,0-10.554,1.167-11.521-2.697
		c-0.773-3.096-0.345-8.534-2.798-9.147c-0.271-0.068-1.472,9.703-1.528,9.927c-0.812,3.248-5.716,2.621-9.064,2.621
		c-0.28,0-7.122,0.126-7.737,0.434c-3.727,1.863-2.778,8.134-4.9,10.256c-2.403,2.403-6.265-1.211-8.847-1.856
		c-2.416-0.604-0.764-6.999-0.764-9.927c0-2.401,5.527-1.488,6.109-3.818c0.833-3.33,0-8.002,0-11.455
		c0-5.316-1.068-6.873,4.583-6.873c5.307,0,5.935,0.589,8.401,3.055c4.592,4.591,2.384-6.687,2.291-6.873
		c-1.8-3.599-4.061-2.421,1.527-3.818c5.441-1.36-2.141-7.486-2.291-7.637c-3.92-3.919-1.516-4.593,0.764-6.872
		c3.219-3.219,3.038-4.598,6.873-0.764c1.166,1.165,6.797,0.22,8.747,0.707c3.595,0.899,8.49,1.383,12.22,1.383
		c3.648,0,7.854,1.869,10.347,2.492c0.649,0.163-3.672,8.106-3.819,8.4c-1.747,3.494,2.431,7.43,3.056,9.927
		c0.72,2.88,1.451,5.805,2.291,9.164c0.812,3.244,1.391,7.363,2.291,9.164c1.145,2.288,5.349-1.908,7.638-0.764
		c1.039,0.52-0.329,6.544,0.764,7.636c3.475,3.475,3.252,4.385,0.764,6.873c-2.855,2.854-1.527,5.945-1.527,6.872
		c0,2.16,4.059,2.486,4.582,4.582c0.475,1.899-2.609,4.71-0.764,8.399c1.852,3.702,3.047,3.811,5.346,6.109
		c1.822,1.821,8.799,2.764,1.527,4.582c-3.23,0.807-8.352,0.178-10.691,0.764c-0.396,0.099,0,10.419,0,11.454
		C486.846,449.938,478.455,445.356,477.681,445.202z"/>
	<path id="path2222" sodipodi:nodetypes="csssssssssssssssssssssssssssssssssssssssssc" fill="#FFFFFF" stroke="#010000" d="
		M473.098,487.201c0,3.075,7.825,1.181,10.901,1.181c3.648,0,7.238-0.909,9.73-1.532c2.504-0.626,1.348-11.493,8.23-11.493
		c1.106,0-8.819-4.453-9.769-5.719c-2.347-3.129-1.267-5.215-4.582-6.872c-2.693-1.347-2.527-7.055-3.055-9.164
		c-0.765-3.055-6.938-0.064-9.165-2.291c-3.591-3.59-3.242-3.818,2.291-3.818c3.573,0-0.103-7.225,0.764-10.69
		c0.501-2.006-4.303-5.065-5.347-6.108c-1.909-1.909-5.728-1.909-7.637-3.818c-2.053-2.052,6.17-2.529,6.873-5.346
		c0.147-0.588-4.153-6.016-4.582-6.872c-1.93-3.859-1.768-5.585-4.582-8.399c-1.802-1.802,3.993-6.459,4.582-7.637
		c1.943-3.886,3.053-4.01-2.291-5.345c-3.71-0.927-6.993-1.647-9.165-3.818c-2.839-2.839-4.703-5.437-7.637-7.636
		c-2.52-1.889-0.884,6.347-2.292,9.163c-0.012,0.025-10.683,0.762-10.691,0.764c-1.083,0.271-7.247,2.478-8.401,3.055
		c-2.04,1.02-3.261,6.315-4.582,7.636c-3.11,3.109-7.978-1.359-8.401-3.055c-1.101-4.402-4.432-0.914-6.11,0.764
		c-1.749,1.749-2.26,6.811-3.055,8.399c-1.691,3.383-5.984-0.263-4.582,5.346c0.622,2.49,6.492,2.577,8.401,3.055
		c4.13,1.032-6.716,3.015-6.874,3.054c-3.467,0.867,0.103,7.226-0.764,10.691c-0.376,1.502-0.389,3.079-0.764,4.582
		c-0.704,2.814,3.294-4.821,5.346-6.873c3.426-3.425,3.071-5.338,7.638-3.055c3.961,1.98,3.946,4.833,3.055,8.4
		c-0.698,2.793,3.806,4.381,6.11,6.108c4.468,3.351,7.342,5.051,10.691,8.399c2.616,2.616,5.637,7.927,7.638,9.928
		c3.184,3.183,3.962-0.906,6.873-3.818c3.039-3.038,0.263-4.319,6.874,2.291c2.375,2.374,5.346,4.391,7.638,6.109
		c0.996,0.747,0,10.827,0,12.217c0,2.728,5.818,2.764,7.637,4.582C472.21,481.73,471.681,485.074,473.098,487.201"/>
	
		<path id="path2224" sodipodi:nodetypes="cssssssssssssssssssssssssssssssssscssssssssssssssssssssssssssssssssssssssssssssssssssssssssssssssssssssssssssssssssc" fill="#FFFFFF" stroke="#010000" d="
		M635.008,422.293c0.764,1.782,1.527,3.564,2.291,5.346c0.916,2.135,10.303,2.002,11.457,2.291c2.762,0.69-6.365,1.272-7.637,3.818
		c-1.361,2.72,2.322,6.936,3.055,8.399c1.438,2.876,0.764,7.273,0.764,10.69c0,3.844,0.764,6.965,0.764,11.454
		c0,5.762,1.117,5.053,5.346,6.109c3.605,0.901,3.154,5.444,5.346,7.636c2.768,2.767,1.75,6.33,3.818,8.4
		c2.434,2.432,1.527,7.264,1.527,10.69c0,5.084,5.34,1.529,8.402,0.764c1.248-0.313,6.031,5.669,7.637,6.872
		c1.752,1.314,4.033,2.066,5.346,3.818c3.006,4.007-5.764,4.305-6.873,4.582c-3.094,0.773,3.809,5.306,4.582,8.399
		c0.137,0.544-3.656,4.257-4.582,6.109c-1.287,2.572,3.852,14.375,3.852,17.997c0,5.577-8.256,1.13-10.922-0.203
		c-4.1-2.05-2.252-5.001-5.33-1.923c-0.893,0.892-10.111-2.126-11.275-2.126c-2.023,0,9.908,6.799,9.973,6.861
		c2.332,2.333,5.092,4.352,7.059,6.317c3.309,3.307,12.391,32.257-1.746,10.724c-2.701-4.114-9.176-8.695-9.176-1.758
		c0,5.265,6.186,5.367,8.637,7.817c3.256,3.256,5.986,8.729,7.455,11.669c2.193,4.383,0.137,0.631-1.762,8.224
		c-1.068,4.269-3.773,4.978-7.621,4.978c-3.451,0-9.764,0.939-9.764,3.202c0,5.776,9.016,6.091,13.604,8.384
		c1.248,0.624,7.188,10.378,8.016,12.036c1.463,2.925-5.213,4.383-2.525,7.07c3.484,3.483,1.26,5.346,7.637,5.346
		c3.791,0,5.477,2.81,6.109,5.345c2.521,0-5.346,2.826-5.346,5.346c0,3.146-4.41,2.975-3.055,8.4
		c0.508,2.027,1.934,10.24,1.934,13.965c0,0.414-10.697,0.143-11.098,0.543c-1.27,1.271-6.195,1.023-7.814,0.215
		c-5.234-2.617-2.844,1.131-3.418,3.422c-0.793,3.176,8.006,1.275,9.758,3.027c3.611,3.609-1.748,13.8-8.455,13.8
		c-3.668,0-4.859-2.343-6.109,0.154c-2.285,4.572-5.451,3.084-6.303,1.385c-2.188-4.379-5.152-3.53-5.152-1.385
		c0,1.019,0,2.036,0,3.055c0,1.114-5.109-2.937-9.93-5.346c-3.121-1.561-4.828-4.767-7.637-6.872
		c-3.338-2.503-4.674-4.674-6.873-6.873c-2.752-2.751-4.141-3.979-6.875-5.346c-3.09-1.544-4.287-4.816-6.873-6.108
		c-3.146-1.573-4.76-3.996-6.873-6.108c-2.373-2.372-5.178-4.88-7.637-6.109c-3.831-1.915-7.914-4.789-10.692-6.873
		c-3.062-2.295-7.04-4.282-9.165-5.345c-4.232-2.116-4.937-3.995-9.164-6.109c-5.547-2.772-4.462-3.466-3.056-3.817
		c3.015-0.754-4.857-3.956-7.637-5.346c-2.479-1.24-5.58-3.803-7.638-5.346c-2.6-1.949-5.075-2.986-8.401-3.817
		c-2.167-0.542-4.767-3.911-7.637-5.346c-3.043-1.521-6.094-5.329-7.638-6.872c-2.26-2.26-5.401-3.465-7.637-4.582
		c-3.129-1.564-4.583-3.504-4.583-7.637c0-2.846,7.638,0.973,7.638,3.818c0,0.887,7.234,3.617,7.637,3.818
		c2.38,1.189,5.339,3.051,8.401,4.582c1.495,0.747,4.576,4.96,6.874,6.108c2.744,1.372,4.792,3.265,6.873,5.346
		c2.826,2.825,2.397,3.817,7.638,3.817c5.345,0,5.156,1.338,7.637,3.818c2.132,2.131,5.285,4.17,7.638,5.346
		c1.838,0.919,0.247-0.494,2.291-4.582c1.438-2.877,0.764-7.273,0.764-10.69c0-4.892-1.019-6.448-3.055-9.163
		c-1.723-2.297-3.267-4.242-4.582-6.873c-2-3.998-2.885-1.668-1.923-5.516c1.001-4.003-17.633-14.715-1.335-13.592
		c2.396,0.166-2.447-2.23-1.373-4.378c1.541-3.083-0.434-2.236,7.686-6.296c4.691-2.346,5.626-4.224,4.582-8.399
		c-0.656-2.625,4.689-3.484,5.346-6.109c0.983-3.931-4.028-6.469-4.988-8.389c-1.156-2.313-3.449-1.954-5.521-2.472
		c-1.785-0.446-3.778-5.631-7.253-6.499c-2.974-0.743-2.407-7.232-5.148-8.604c-3.076-1.537-8.121,0.448-6.11-6.108
		c0.684-2.228-5.441-0.058-7.45-2.066c-2.246-2.246-6.716-3.831-9.95-7.064c-4.434-4.434-3.961-9.91-3.455-10.922
		c1.507-3.014,13.174,3.431,14.746-2.856c0.702-2.81,3.054-4.577,3.818-7.636c0.72-2.88,6.31-1.927,7.638-4.582
		c1.144-2.288-1.385-5.154-0.764-7.636c0.757-3.03,2.711-5.766,4.582-7.637c2.34-2.339,3.477-4.028,6.11-5.345
		c3.268-1.634,3.861-3.076,6.873-4.582c2.181-1.09,6.302,6.063,8.401,7.637c2.674,2.005,6.684,2.29,10.692,2.29
		c2.333,0,7.977,2.461,9.165,3.055c3.037,1.519-0.771-6.89-2.291-9.927c-1.709-3.415,7.637,0,11.455,0
		c5.871,0-1.219-5.802-2.291-6.873c-1.781-1.78-5.992-2.995-7.637-3.817c-2.75-1.376-4.037-3.489-5.346-6.109
		c-1.137-2.272,8.178-1.527,9.928-1.527c4.154,0,6.873-2.878,6.873,3.055c0,2.603,8.703,1.527,10.693,1.527
		c5.662,0,6.109,0.409,6.109-5.346c0-3.075-2.188-6.005-3.818-7.636c-1.529-1.529-3.143-6.479-4.582-8.4
		c-2.115-2.819-4.074-4.327-5.348-6.872c-1.359-2.722,5.424,2.367,6.111,3.055c2.514,2.514,3.166,3.874,6.109,5.345
		C626.887,425.487,631.706,424.771,635.008,422.293z"/>
	<path id="path2226" fill="#FFFFFF" stroke="#010000" d="M562.455,588.762c3.6,1.8-6.023-5.896-9.929-6.872
		c-4.802-1.2-7.066,0.385-8.401,3.054c-0.868,1.736,6.244,4.268,6.874,4.582c2.596,1.298-4.058,4.642-6.874,5.346
		c-3.146,0.786-5.469-3.941-6.873-5.346c-3.591-3.59-4.656,0.468-6.11-5.346c-1.378-5.51-0.266-6.424-4.582-5.345
		c-2.31,0.577-4.082,7.398-4.583,8.399c-1.094,2.188-5.346-6.408-5.346-8.399c0-3.616-5.058-1.137-6.11-5.346
		c-0.582-2.328-7.404-5.992-9.164-6.872c-3.788-1.895-6.022-3.033-9.165-3.818c-2.801-0.7-5.244-3.003-8.401-4.582
		c-2.242-1.121,2.447,4.441,3.056,6.873c0.235,0.941,7.935,4.232,8.4,4.582c2.73,2.047,2.291,5.804,2.291,6.872
		c0,3.189-5.548-3.155-8.4-4.582c-3.287-1.643-4.549-2.257-6.874-4.581c-2.438-2.439-3.941-3.301-5.346-6.109
		c-1.794-3.587-4.299-5.061-6.874-7.636c-2.257-2.257-4.129-4.892-6.109-6.873c-2.107-2.106,2.332-5.509,3.055-8.399
		c0.206-0.825-5.817-7.344-6.109-7.637c-3.198-3.197-1.063-4.913-0.764-6.108c0.656-2.625,5.104,2.833,6.109,5.345
		c1.916,4.79,6.688,5.872,10.692,6.873c3.405,0.852,4.808,3.38,9.165,2.291c5.006-1.252-0.705-6.109-3.819-6.109
		c-5.477,0-4.826-5.621-3.818-7.636c1.272-2.546,5.855-0.255,8.401-1.527c0.287-0.144-6.482-4.386-6.874-4.582
		c-2.828-1.413-4.942-2.471-7.638-3.817c-4.104-2.052-4.143-2.73-1.527-5.346c2.05-2.049,7.948-1.074,10.692-3.818
		c1.731-1.73,6.458,0,10.692,0c5.803,0-0.197-4.059-2.291-4.582c-3.33-0.832-8.003,0-11.456,0c-5.669,0-5.8-0.452-8.401-3.054
		c-2.276-2.276,1.615-6.284,3.055-9.163c0.537-1.072,4.963-3.627,6.874-4.582c3.147-1.574,4.532-2.291,9.929-2.291
		c5.064,0,4.682-1.923,5.346-4.582c0.188-0.754,3.259-4.684,4.583-5.345c4.429-2.215,5.346,1.452,5.346,5.345
		c0,2.898,3.626,3.049,4.583,6.873c1.248,4.993,1.93,3.818,7.637,3.818c1.97,0,4.661,3.073,7.637,3.817
		c2.934,0.733,4.639,3.277,5.347,6.109c1.064,4.258,2.369,4.66,4.582,6.872c3.004,3.003,4.952,4.003,7.638,5.346
		c2.469,1.234,5.824,4.296,7.637,6.109c2.706,2.704,4.252,3.376,6.874,6.872c1.909,2.545,3.882,4.646,6.11,6.872
		c1.601,1.602,5.226,3.216,7.637,3.818c2.921,0.73,3.994,4.519,4.582,6.873c0.95,3.797,0.684,7.034-0.764,9.927
		c-1.521,3.041-3.818,1.041-3.818,7.636c0,0.262-7.188,4.132-7.637,4.582c-0.892,0.891,0.096,5.916-0.764,7.637
		c-1.441,2.882-1.528,5.696-1.528,9.927C560.927,582.428,562.222,587.597,562.455,588.762z"/>
	<path id="path3126" fill="#FFFFFF" stroke="#010000" d="M681.596,521.563c0,3.694,7.332-4.275,7.639-4.581
		c0.289-0.291,7.377,7.376,7.637,7.636c2.334,2.333,4.143,3.379,6.109,5.345c2.516,2.516,3.508,4.168,6.109,7.637
		c1.955,2.604,4.59,3.824,6.875,6.109c2.332,2.332,2.615,4.905,4.582,6.872c3.115,3.115,5.346,2.825,5.346,8.399
		c0,3.045,2.094,6.477,3.055,8.4c1.633,3.266,1.971,7.114,3.055,11.454c0.793,3.168,3.686,5.573,4.582,9.163
		c1.096,4.377,3.285,4.582,8.402,4.582c3.186,0,6.184,4.115,6.873,6.872c0.904,3.617-1.887,6.109-5.346,6.109
		c-6.061,0-1.535,6.102,0,7.636c2.313,2.313,2.588,5.643,4.582,7.637c1.607,1.608,2.723,7.734,3.818,9.927
		c2.146,4.293,1.047,5.346,6.873,5.346c4.988,0,7.365,1.255,9.93,3.817c4.109,4.11,2.916,5.033-0.764,6.873
		c-2.994,1.496-5.658,1.527-9.93,1.527c-3.818,0-7.637,0-11.455,0c-5.365,0-4.203,2.101-7.637,3.818
		c-3.887,1.942-6.859-1.905-11.457-3.055c-4.66-1.165-3.697-3.879-8.4-1.527c-3.639,1.818-2.793,4.676-6.873-0.764
		c-1.529-2.036-3.891-5.627-4.584-8.4c-0.463-1.852-5.586-3.938-6.873-4.581c-2.699-1.351-4.219,0-9.164,0
		c-5.266,0-5.711,2.222-6.111,3.817c-0.666,2.672-4.119-4.581-6.873-4.581c-2.359,0-5.408-3.881-6.873-5.346
		c-2.289-2.288-3.055-4.584-3.818-7.636c-0.824-3.295-4.514-5.071-5.346-8.4c-0.412-1.641-5.834-4.062-6.875-4.581
		c-3.904-1.952-4.008-2.296-3.055-6.109c1.197-4.788-0.43-6.443,2.291-9.163c1.848-1.848,8.047-0.764,10.693-0.764
		c4.648,0,2.309-7.563,2.291-7.637c-0.449-1.793-5.25-5.917-6.109-7.636c-1.199-2.397-3.781-4.543-5.348-6.108
		c-2.41-2.411-1.408-6.587-0.764-9.164c0.813-3.248,6.934-0.029,9.93-1.527c0.314-0.157-4.426-6.715-4.582-6.872
		c-1.781-1.78-6.549-1.965-8.402-3.818c-2.102-2.102-2.115-5.169-4.582-7.636c-3.381-3.38,0.748-0.764,4.582-0.764
		c3.99,0,7.848,0.138,11.457-0.764c2.201-0.551,4.584,3.818,7.637,4.582c4.119,1.029,2.291-3.636,2.291-7.637
		c0-4.443-0.764-6.508-0.764-10.69C676.25,523.192,679.887,522.932,681.596,521.563z"/>
	<path id="path2248" sodipodi:nodetypes="csssssssssssssssssssssssssssssssssscssssssc" fill="#FFFFFF" stroke="#010000" d="
		M694.581,748.357c0-3.982,13.012,3.088,17.375,3.088c4.072,0,2.227-6.905,6.301-6.905c2.414,0,5.688-1.606-0.764-9.164
		c-3.539-4.144,5.51,1.842,8.799,1.02c1.473-0.368,2.553-9.854,4.264-11.137c2.193-1.645,1.211-6.456,1.877-9.115
		c1-3.997,9.775-4.095,2.34-7.812c-4.262-2.13-6.168-1.888-4.439-5.346c1.578-3.155,7.135-4.049,9.291-6.204
		c2.178-2.178-1.695-12.038-4.566-14.859c-2.068-2.034-4.82-3.293-6.873-5.345c-2.545-2.546-4.793-3.266-6.873-5.346
		c-2.521-2.52,15.02,4.439,18.584,4.439c2.764,0-2.496-10.765-0.256-9.785c9.953,4.354,1.529-6.72,1.529-9.927
		c0-5.169-3.277-3.683-6.875-4.581c-3.967-0.992-3.633-3.818-8.4-3.818c-4.213,0-8.086,0.988-9.164,1.527
		c-2.656,1.327-2.484-5.537-4.584-7.637c-2.982-2.981-3.611-5.242-6.873-6.872c-3.51-1.755-4.352-3.055-9.164-3.055
		c-2.627,0-7.986,1.042-9.93,1.527c-0.904,0.226,0.676,7.468-3.055,8.399c-1.6,0.4-3.482,6.292-3.818,7.637
		c-0.832,3.33,0,8.001,0,11.454c0,3.189-6.975,1.729-8.4,4.581c-0.883,1.767-6.963-1.74-9.166-2.29
		c-3.523-0.881-4.164,1.7-6.873,3.054c-4.463,2.231,3.832,4.971,4.582,5.346c3.129,1.564,5.371,4.63,6.875,7.637
		c1.492,2.986-7.287,2.775-8.402,3.054c-1.887,0.472-4.244,5.008-5.346,6.109c-2.1,2.099-2.482-5.537-4.582-7.636
		c-1.873-1.874-4.152,4.388-4.582,6.108c-0.324,1.291,0,3.223,0,4.582c-0.82,3.277,8.492,10.018,9.928,11.454
		c3.596,3.596,4.936,4.934,7.637,7.636c2.684,2.684,6.16,3.854,9.166,6.109c2.434,1.825,4.807,3.278,6.873,5.345
		c3.066,3.066,4.596,6.125,7.637,9.928c1.66,2.074,1.527,7.258,1.527,10.69C686.178,744.57,692.553,747.851,694.581,748.357z"/>
	
		<path id="path2250" sodipodi:nodetypes="cssssssssssssssssssssssssssssssssssssssssssssssssssssssssssssssssssssssssssssssssc" fill="#FFFFFF" stroke="#010000" d="
		M739.639,809.447c0,3.852,0.594-7.718,1.529-11.454c0.869-3.478,1.074-6.589,1.527-8.4c0.369-1.479,4.236-3.356,6.635-1.765
		c8.988,5.97,17.33,7.398,14.686-0.986c-2.07-6.559,2.594,0.237,3.15-0.318c2.107-2.106-1.082-12.325-1.082-15.305
		c0-5.585-8.244-7.589-2.77-7.589c4.479,0,7.449-0.094,10.693,1.527c3.068,1.534,8.584,0.764,12.219,0.764
		c2.053,0-7.918,9.429-7,11.265c1.568,3.137,9.596-4.088,12.348-1.338c1.658,1.66,3.686,2.923,5.346,4.582
		c1.732,1.732,5.615,4.582,8.4,4.582c3.766,0,8.215,5.47,10.104,3.58c2.334-2.333-0.613-13.068,1.354-15.034
		c3.5-3.501,1.584-5.522,8.4-3.818c0.234,0.059,1.504-9.838,1.527-9.927c0.428-1.715,9.367,4.661,10.963,4.661
		c5.945,0,11.938-5.334,10.453-8.305c-2.148-4.295-10.238-4.411-9.197-8.575c0.299-1.191,14.943,1.207,15.578,0.574
		c1.908-1.909,2.18-6.937,4.088-8.846c2.146-2.145-3.627-8.676-3.627-13.109c0-1.367,8.131,5.076,9.164,6.109
		c2.465,2.463,6.875,8.865,6.875,1.527c0-3.818,0-7.637,0-11.455c0-6.193,1.365-4.139,3.055-0.764
		c1.463,2.927,8.781,2.521,11.455,3.055c5.641,1.128,6.109-0.435,6.109-5.345c0-2.48-4.199-4.963-5.346-6.109
		c-1.877-1.878-6.219-2.509-8.4-3.055c-5.49-1.372-6.508-0.364-2.291-4.581c3.139-3.139,4.053-2.588,2.291-6.109
		c-1.441-2.881-5.783-0.872-7.637-4.582c-1.617-3.23-4.605-3.823-7.639-4.581c-4.324-1.081-2.281-6.129-1.527-7.637
		c2.164-4.325,3.818-3.789,3.818-9.927c0-3.005-2.689-7.271-3.818-8.399c-2.629-2.629-5.156-2.865-7.637-5.346
		c-2.953-2.953-0.863-5.014-4.582-6.872c-2.047-1.023-1.736-7.71-2.291-9.928c-0.396-1.581-5.682-4.916-6.875-6.108
		c-2.633-2.633-3.439-2.308-4.582-6.873c-0.996-3.983-3.363-4.581-7.637-4.581c-5.027,0-8.43-3.847-10.691-6.109
		c-2.248-2.247-9-0.424-10.693,0c-4.07,1.018-2.592,3.818-8.4,3.818c-4.416,0-3.055,4.363-3.055,8.399
		c0,4.38-4.928,3.818-9.166,3.818c-3.818,0-7.637,0-11.455,0c-2.189,0-3.818,3.155-3.818,5.345c0,2.16,1.098,3.473,1.623,5.568
		c0.793,3.171-3.557,1.305-6.207,1.305c-3.818,0-7.637,0-11.455,0c-5.029,0-6.293,0.855-9.164,2.291
		c-3.352,1.675-3.818,3.064-3.818,7.636c0,4.372-0.238,7.347-1.529,9.927c-1.721,3.442-2.453,4.432-6.109,5.346
		c-3.293,0.823-8.521-0.221-10.691-0.764c-3.889-0.972,1.449,3.397,3.818,4.582c3.219,1.608,6.637,3.449,9.164,5.345
		c0.951,0.714-2.299,5.363-3.055,6.873c-1.652,3.304-1.025,6.634-2.291,9.163c-1.287,2.574-3.682,4.444-5.346,6.109
		c-1.773,1.772,3.055,4.365,3.055,6.872c0,2.175-4.572,0.753-6.109,2.291c-0.184,0.184,2.836,7.961,3.055,8.399
		c1.521,3.042-2.006,7.352-3.055,8.4c-3.227,3.226-4.582,0.572-4.582,6.872c0,5.265,0.158,6.714-2.291,9.164
		c-1.143,1.141-9.643,0-11.457,0c-5.145,0-6.76-0.114-9.164,2.29c-3.043,3.042,1.256,7.365,3.055,9.164
		c3.977,3.976,6.109-0.693,6.109,6.872c0,4.566,3.566,5.346-3.818,5.346c-2.545,0,2.781,4.309,4.582,6.108
		c2.266,2.265,4.096,3.609,5.346,6.109c1.521,3.042,5.637,2.581,8.402,5.346c2.488,2.488,4.916,4.151,6.873,6.108
		c1.803,1.803,2.908,7.342,3.818,9.164C730.534,804.983,736.172,808.061,739.639,809.447z"/>
	
		<path id="path2252" sodipodi:nodetypes="csssssssssssssssssssssssssssssssssssssssssssssssssssssssssssssssc" fill="#FFFFFF" stroke="#010000" d="
		M871.002,738.431c1.268,2.536,4.582,2.222,4.582,9.927c0,5.841-2.463,3.055-6.873,3.055c-3.906,0,0.684,5.061-0.732,10.724
		c-1.576,6.3-1.418,3.206-7.32,6.156c-1.809,0.905-5.695,3.327-5.695,5.266c0,2.237-0.727,10.766-2.705,12.743
		c-2.816,2.816-7.234-1.284-10.277,0.238c-4.467,2.232,3.426,14.786-2.881,8.479c-3.287-3.287-6.582-3.458-7.637,0.764
		c-0.943,3.768,5.926,1.036-0.367,2.608c-3.686,0.922-7.445,1.539-7.445,4.947c0,2.764-5.352,3.034-3.818,9.164
		c1.648,6.596,2.287,3.514,6.635,7.858c2.742,2.743,2.783,13.338-5.107,7.414c-3.463-2.6,12.795,16.339,8.559,16.339
		c-6.521,0-2.697-4.301-0.715-3.311c5.582,2.792,0.311,1.861,3.197,7.637c1.439,2.876-4.168,8.753-4.168,12.17
		c0,4.062-2.369,5.385-5.346,6.873c-4.875,2.437-1.018,4.519,2.291,5.345c4.779,1.195,6.449-0.425,9.164,2.291
		c3.609,3.608,10.279,2.43,10.279,9.339c0,1.38-2.789,7.958-5.793,8.129c-5.266,0.301-5.074,2.562-9.068-1.432
		c-2.416-2.416-4.844-4.08-6.873-6.109c-2.363-2.362-7.115,4.06-7.639,4.582c-2.648,2.648-5.428,3.014-8.4,1.527
		c-1.953-0.977,0.211-8.32,0-9.163c-1.014-4.056-6.313,2.29-9.164,2.29c-4.271,0-5.582-4.054-7.639-6.108
		c-2.678-2.679-4.832-4.832-6.873-6.873c-1.809-1.809-3.279-5.57-5.346-7.636c-2.592-2.591-4.619-4.619-6.873-6.873
		c-2.291-2.289-4.604-3.838-6.875-6.108c-3.25-3.251-0.764-3.811-0.764-9.163c0-4.102-2.191-6.011-4.582-8.4
		c-2.809-2.808-4.895-4.894-7.637-7.636c-2.402-2.402-2.998-4.525-5.346-6.873c-2.389-2.389-4.348-5.109-6.111-6.872
		c-1.566-1.567-0.764-7.765-0.764-10.69c0-2.618,2.293-6.831,2.293-10.691c0-1.216,2.316-6.001,1.527-9.163
		c-0.064-0.252,11.924,0.764,12.982,0.764c5.799,0,5.346-0.487,5.346-6.109c0-3.572-2.453-4.907-3.818-7.636
		c-3.031-6.063,4.016-3.818,6.873-3.818c3.82,0,7.639,0,11.457,0c4.445,0,8.787-1.512,9.928,3.055
		c0.471,1.881-0.92,3.975-2.291,5.346c-2.447,2.448,6.832,1.506,9.93,3.054c4.08,2.041,4.863,5.226,8.4,6.109
		c3.355,0.839,3.594,3.055,8.4,3.055c3.576,0,3.527-4.762,4.582-6.873c2.004-4.004,3.82-2.333,3.82-8.399
		c0-0.868,6.127-3.092,6.873-4.582c1.688-3.374,0.76-5.917,4.582-6.872c3.527-0.882,8.551,0,12.221,0
		c4.98,0-0.289-4.871-1.529-6.109c-2.994-2.995-0.811-5.919-0.764-6.108c0.84-3.359,7.48-0.606,9.93-3.055
		c2.188-2.188,2.74-6.244,3.818-8.4c1.258-2.514,2.23-8.279,2.291-8.399c1.619-3.235,5.842,4.314,8.4,6.873
		C866.637,735.595,867.374,736.254,871.002,738.431z"/>
	
		<path id="path2254" sodipodi:nodetypes="cssssssssssssssssssssssssssssssssssssssssssssssssssssc" fill="#FFFFFF" stroke="#010000" d="
		M835.106,894.209c2.578,2.577,8.75,5.282,12.395,5.282c3.252,0,5.393-4.001,8.672-3.182c4.836,1.209,4.137-4.48,4.137-9.737
		c0-3.134,4.582,1.553,4.582,5.346c0,3.591,10.549,16.793,10.549,8.973c0-5.532,2.033-4.321,4.584-6.872
		c2.973-2.973,9.646-13.279,5.52-17.405c-2.182-2.183-3.75-2.935-5.027-5.488c-1.75-3.5-4.359-0.578-4.359-5.393
		c0-4.059-0.145-4.353,3.994-6.873c3.969-2.417,2.076,2.491,6.063-1.494c3.041-3.042-5.152-5.394,1.623-5.394
		c4.939,0,12.203,8.703,7.955,3.818c-1.602-1.841,0.654-4.835,7.59-3.102c6.064,1.516-0.17-9.146,1.988-13.46
		c1.406-2.813,6.494-2.291,9.928-2.291c5.816,0,3.42-0.072,2.291-4.582c-1.15-4.607,0.576-6.486-0.764-9.163
		c-1.734-3.471-2.291-5.023-2.291-9.927c0-4.902-1.84-5.972-3.818-9.928c-2.602-5.203,0.387-5.151-4.582-7.636
		c-2.637-1.317-5.299-6.062-7.637-8.399c-3.617-3.616-4.428-3.975-8.402,0c-2.088,2.089-3.818-3.669-3.818,5.345
		c0,4.081-6.109,3.41-6.109-1.527c0-4.784,0.799-6.802-0.764-9.927c-1.793-3.586-2.838-4.475-3.818-8.399
		c-0.982-3.93,0.648-8.171,1.527-9.928c1.592-3.183,2.854-4.541,3.818-8.399c0.68-2.718-5.469-3.276-7.637-3.818
		c-3.389-0.847-8.334,0.174-10.693,0.764c-2.723,0.681-2.291,6.225-2.291,9.164c0,2.883-5.346,0.697-5.346,6.108
		c0,4.333-0.381,7.636-1.527,9.927c-1.332,2.665-6.295,0.948-8.4,3.055c-3.111,3.109-2.814,4.379-3.82,8.4
		c-1.391,5.567-0.195,4.483-4.582,2.29c-3.813-1.905-4.762-3.392-9.164-2.29c-2.762,0.689-0.838,5.639-1.527,8.399
		c-1.252,5.008-0.656,4.91-4.582,6.872c-0.838,0.419-2.105,7.45-3.055,8.4c-3.104,3.103,2.785,8.131,3.818,9.163
		c1.141,1.142,0,9.64,0,11.454c0,5.603-2.15,4.355-6.109,5.346c-0.611,0.152,3.154,4.783,3.818,6.109
		c0.914,1.827,5.752,1.623,6.873,6.108c0.572,2.287,2.635,3.973,1.527,8.399c-0.98,3.923-0.74,6.085-3.055,8.4
		c-3.205,3.205-5.346-0.138-5.346,6.108c0,1.302,10.283,0.764,11.455,0.764c2.348,0,3.953,3.853,6.873,4.582
		c3.436,0.858,0.621,6.685,0,9.163C837.2,891.185,835.106,887.298,835.106,894.209z"/>
	
		<path id="path2256" sodipodi:nodetypes="csssssssssssssssssssssssssssssssssssscsssssssssssssssssssssssssssc" fill="#FFFFFF" stroke="#010000" d="
		M917.588,836.174c-0.746,2.983,3.82,5.324,3.82,8.399c0,5.035,3.527,5.817,6.109,8.4c2.334,2.333,4.143,3.379,6.109,5.345
		c1.141,1.142,0,9.641,0,11.455c0,4.486-0.1,7.073-1.527,9.927c-2.533,5.065,3.414,8.543,6.873,9.927
		c4.096,1.638,7.58-0.879,10.693,5.346c1.371,2.741,5.502-3.368,6.873-6.109c2.633-5.266,1.309-4.801,5.346-0.764
		c2.85,2.849,8.402,1.149,8.402-2.291c0-3.22,5.943,3.055,9.164,3.055c6.68,0,2.723,2.947-0.764,3.818
		c-4.746,1.187-1.205,5.668,0,6.872c4.637,4.638,0.051,3.818-4.582,3.818c-3.418,0-3.055,5.734-3.055,9.163
		c0,3.256-3.256,4.582-6.875,4.582c-3.33,0-4.957,3.043-6.109,5.346c-2.592,5.184,2.65,6.288,5.346,7.636
		c3.684,1.842,3.547,4.459,0,5.346c-0.396,0.099,0,10.42,0,11.454c0,5.797-10.352,9.784-15.975,9.784
		c-3.229,0,1.434-2.488,0.844-5.44c-0.979-4.896-1.389-3.595-4.678-3.595c-3.176,0-6.375,9.854-8.623-3.245
		c-0.719-4.183-3.061-4.034-3.422-3.31c-1.484,2.968-12.619,0.443-12.889,0.175c-2.359-2.359-4.029-11.281-5.123-7.906
		c-3.012,9.3-3.5-2.436-2.975-0.541c2.584,9.342-6.926-2.912-10.916-2.912c-3.752,0,3.412,2.507,3.898,4.454
		c0.854,3.415-5.521,3.078-14.988,3.373c-2.705,0.084,14.225,7.349,14.225,10.055c0,3.867-5.414,11.757-9.563,11.757
		c-5.109,0-11.928-12.944-9.658-10.007c6.707,8.68-4.914,6.074-5.393,6.555c-3.143,3.142-10.541-4.903-11.76-0.033
		c-0.086,0.35-0.508,0.51-0.764,0.764c-1.213,4.856-4.658-3.663-2.291-8.399c1.525-3.049,5.521-4.617-2.291-3.055
		c-2.172,0.435-0.742-3.823-6.873-2.291c-2.625,0.656,3.432-4.195,5.346-6.108c2.441-2.44,4.816-5.814,6.109-8.4
		c1.127-2.254-4.734-2.9-5.346-5.345c-1.094-4.38-1.41-4.905-5.346-6.873c-3.559-1.779-5.422-3.646-9.164-4.582
		c-1.566-0.391-7.334-3.666-9.166-4.581c-2.527-1.264-2.627-5.682-4.582-7.637c-1.609-1.609,1.445-4.499,3.055-6.108
		c1.18-1.179,8.281-1.467,9.93-2.291c2.877-1.438,7.273-0.764,10.691-0.764c2.402,0,4.412-2.12,6.109-3.818
		c2.697-2.696,3.645,6.935,3.818,7.637c1.207,4.826,2.9,3.896,6.111,2.291c2.545-1.273,1.805-5.624,3.818-7.637
		c3.328-3.327,5.383-1.453,3.055-6.108c-1.857-3.714-0.748-6.095-3.055-8.4c-2.723-2.721-4.582-2.652-4.582-7.636
		c0-4.348,4.195-4.205,0-8.4c-2.053-2.052,4.641-4.057,5.346-6.872c0.904-3.621,1.023-5.983,4.582-6.873
		c4.535-1.133,6.648,1.302,8.4,3.055c2.014,2.013,4.791-3.817,7.639-3.817c5.232,0,5.961-0.467,7.637-3.818
		c1.73-3.46,4.512-3.818,8.4-3.818C914.534,836.174,916.061,836.174,917.588,836.174z"/>
	<path id="path3133" fill="#FFFFFF" stroke="#010000" d="M959.594,952.244c2.727,0-2.232,7.518-3.055,9.163
		c-1.377,2.755-5.572-0.226-0.764,4.581c4.318,4.317-1.834,6.987,3.818,8.4c2.762,0.69,0.486,6.388-1.527,8.399
		c-1.549,1.549,1.693,4.814,3.818,5.346c2.439,0.609,5.947-5.458,3.818,3.055c-1.105,4.426,0.768,4.585,3.055,6.872
		c1.076,1.075,1.18,5.083,4.584,7.637c3.232,2.425-0.629,8.131-1.527,9.927c-2.395,4.786-2.988,5.412-6.111,2.291
		c-2.955-2.956-3.385-4.117-7.637-3.055c-1.557,0.389-6.715-2.14-9.164-1.527c-2.402,0.601-6.564-5.805-11.457-4.582
		c-0.555,0.14-7.023-7.022-7.637-7.636c-2.803-2.803-2.787-4.276-3.818-8.399c-0.422-1.685,5.918-4.582-3.055-4.582
		c-5.678,0-6.389,0.971-3.818,6.108c2.336,4.675-0.836,6.802,2.291,9.928c2.166,2.167-1.508,6.189-0.764,9.163
		c0.891,3.564,0.764,7.423,0.764,10.69c0,6.151-1.398,4.265-5.348,2.291c-3.75-1.875-3.07-6.174-3.818-9.163
		c-0.326-1.308-4.234-6.154-5.346-7.637c-1.512-2.016-2.797-5.595-3.818-7.636c-1.533-3.066-2.746-5.8-4.582-7.637
		c-2.025-2.024-3.232-6.054-3.818-8.399c-0.453-1.806-5.367-6.13-6.111-6.872c-2.627-2.627-5.205-4.441-7.637-6.873
		c-2.416-2.416-3.977-4.739-6.109-6.872c-2.85-2.849-3.645-4.407-6.109-6.873c-3.207-3.205-1.92-1.136,1.527-4.582
		c2.545-2.545,3.264-4.792,5.346-6.872c3.158-3.157,6.494-0.475,9.164,1.527c3.432,2.572,4.404,2.38,7.637,0.764
		c4.721-2.36,1.404-6.012-0.764-7.637c-3.291-2.468-5.953-2.521-0.764-3.817c3.49-0.872,3.184-5.856,3.82-8.4
		c1.271-5.087-0.021-5.345,6.109-5.345c4.205,0,9.178-0.004,12.219-0.764c0.111-0.028,5.947,5.263,7.639,6.108
		c4.057,2.028,5.996,2.828,7.637,6.109c1.33,2.661,3.652-5.776,3.818-6.109c1.715-3.43,8.801,5.836,9.164,6.109
		c3.92,2.938,2.717,3.16,8.402,4.581c0.371,0.093,3.428,7.246,3.818,7.637c2.766,2.767,2.842,2.947,9.164,6.108"/>
</g>
</svg>
