<?xml version="1.0" encoding="utf-8"?>
<!-- Generator: Adobe Illustrator 16.0.3, SVG Export Plug-In . SVG Version: 6.00 Build 0)  -->
<!DOCTYPE svg PUBLIC "-//W3C//DTD SVG 1.1//EN" "http://www.w3.org/Graphics/SVG/1.1/DTD/svg11.dtd">
<svg version="1.1"
	 id="svg2816" sodipodi:docname="Mexico_Zacatecas_location_map.svg" inkscape:version="0.46" sodipodi:version="0.32" inkscape:output_extension="org.inkscape.output.svg.inkscape" xmlns:dc="http://purl.org/dc/elements/1.1/" xmlns:cc="http://creativecommons.org/ns#" xmlns:rdf="http://www.w3.org/1999/02/22-rdf-syntax-ns#" xmlns:svg="http://www.w3.org/2000/svg" xmlns:sodipodi="http://sodipodi.sourceforge.net/DTD/sodipodi-0.dtd" xmlns:inkscape="http://www.inkscape.org/namespaces/inkscape"
	 xmlns="http://www.w3.org/2000/svg" xmlns:xlink="http://www.w3.org/1999/xlink" x="0px" y="0px" width="4024.248px"
	 height="5110.508px" viewBox="0 0 4024.248 5110.508" enable-background="new 0 0 4024.248 5110.508" xml:space="preserve">
<defs>
	
	
		<inkscape:perspective  id="perspective2824" inkscape:vp_z="1 : 0.5 : 1" sodipodi:type="inkscape:persp3d" inkscape:vp_x="0 : 0.5 : 1" inkscape:vp_y="0 : 1000 : 0" inkscape:persp3d-origin="0.5 : 0.33333333 : 1">
		</inkscape:perspective>
	
		<inkscape:perspective  id="perspective3958" inkscape:vp_z="1 : 0.5 : 1" sodipodi:type="inkscape:persp3d" inkscape:vp_x="0 : 0.5 : 1" inkscape:vp_y="0 : 1000 : 0" inkscape:persp3d-origin="0.5 : 0.33333333 : 1">
		</inkscape:perspective>
	
		<inkscape:perspective  id="perspective4056" inkscape:vp_z="1 : 0.5 : 1" sodipodi:type="inkscape:persp3d" inkscape:vp_x="0 : 0.5 : 1" inkscape:vp_y="0 : 1000 : 0" inkscape:persp3d-origin="0.5 : 0.33333333 : 1">
		</inkscape:perspective>
	
		<inkscape:perspective  id="perspective4182" inkscape:vp_z="1 : 0.5 : 1" sodipodi:type="inkscape:persp3d" inkscape:vp_x="0 : 0.5 : 1" inkscape:vp_y="0 : 1000 : 0" inkscape:persp3d-origin="0.5 : 0.33333333 : 1">
		</inkscape:perspective>
	
		<inkscape:perspective  id="perspective3362" inkscape:vp_z="1 : 0.5 : 1" sodipodi:type="inkscape:persp3d" inkscape:vp_x="0 : 0.5 : 1" inkscape:vp_y="0 : 1000 : 0" inkscape:persp3d-origin="0.5 : 0.33333333 : 1">
		</inkscape:perspective>
	
		<inkscape:perspective  id="perspective3362-7" inkscape:vp_z="1 : 0.5 : 1" sodipodi:type="inkscape:persp3d" inkscape:vp_x="0 : 0.5 : 1" inkscape:vp_y="0 : 1000 : 0" inkscape:persp3d-origin="0.5 : 0.33333333 : 1">
		</inkscape:perspective>
	
		<inkscape:perspective  id="perspective3362-0" inkscape:vp_z="1 : 0.5 : 1" sodipodi:type="inkscape:persp3d" inkscape:vp_x="0 : 0.5 : 1" inkscape:vp_y="0 : 1000 : 0" inkscape:persp3d-origin="0.5 : 0.33333333 : 1">
		</inkscape:perspective>
	
		<inkscape:perspective  id="perspective3362-4" inkscape:vp_z="1 : 0.5 : 1" sodipodi:type="inkscape:persp3d" inkscape:vp_x="0 : 0.5 : 1" inkscape:vp_y="0 : 1000 : 0" inkscape:persp3d-origin="0.5 : 0.33333333 : 1">
		</inkscape:perspective>
	
		<inkscape:perspective  id="perspective3362-8" inkscape:vp_z="1 : 0.5 : 1" sodipodi:type="inkscape:persp3d" inkscape:vp_x="0 : 0.5 : 1" inkscape:vp_y="0 : 1000 : 0" inkscape:persp3d-origin="0.5 : 0.33333333 : 1">
		</inkscape:perspective>
	
		<inkscape:perspective  id="perspective3362-45" inkscape:vp_z="1 : 0.5 : 1" sodipodi:type="inkscape:persp3d" inkscape:vp_x="0 : 0.5 : 1" inkscape:vp_y="0 : 1000 : 0" inkscape:persp3d-origin="0.5 : 0.33333333 : 1">
		</inkscape:perspective>
	
		<inkscape:perspective  id="perspective3362-1" inkscape:vp_z="1 : 0.5 : 1" sodipodi:type="inkscape:persp3d" inkscape:vp_x="0 : 0.5 : 1" inkscape:vp_y="0 : 1000 : 0" inkscape:persp3d-origin="0.5 : 0.33333333 : 1">
		</inkscape:perspective>
	
		<inkscape:perspective  id="perspective3438" inkscape:vp_z="1 : 0.5 : 1" sodipodi:type="inkscape:persp3d" inkscape:vp_x="0 : 0.5 : 1" inkscape:vp_y="0 : 1000 : 0" inkscape:persp3d-origin="0.5 : 0.33333333 : 1">
		</inkscape:perspective>
	
		<inkscape:perspective  id="perspective3438-1" inkscape:vp_z="1 : 0.5 : 1" sodipodi:type="inkscape:persp3d" inkscape:vp_x="0 : 0.5 : 1" inkscape:vp_y="0 : 1000 : 0" inkscape:persp3d-origin="0.5 : 0.33333333 : 1">
		</inkscape:perspective>
	
		<inkscape:perspective  id="perspective3438-2" inkscape:vp_z="1 : 0.5 : 1" sodipodi:type="inkscape:persp3d" inkscape:vp_x="0 : 0.5 : 1" inkscape:vp_y="0 : 1000 : 0" inkscape:persp3d-origin="0.5 : 0.33333333 : 1">
		</inkscape:perspective>
	
		<inkscape:perspective  id="perspective3438-6" inkscape:vp_z="1 : 0.5 : 1" sodipodi:type="inkscape:persp3d" inkscape:vp_x="0 : 0.5 : 1" inkscape:vp_y="0 : 1000 : 0" inkscape:persp3d-origin="0.5 : 0.33333333 : 1">
		</inkscape:perspective>
	
		<inkscape:perspective  id="perspective3438-23" inkscape:vp_z="1 : 0.5 : 1" sodipodi:type="inkscape:persp3d" inkscape:vp_x="0 : 0.5 : 1" inkscape:vp_y="0 : 1000 : 0" inkscape:persp3d-origin="0.5 : 0.33333333 : 1">
		</inkscape:perspective>
	
		<inkscape:perspective  id="perspective3438-21" inkscape:vp_z="1 : 0.5 : 1" sodipodi:type="inkscape:persp3d" inkscape:vp_x="0 : 0.5 : 1" inkscape:vp_y="0 : 1000 : 0" inkscape:persp3d-origin="0.5 : 0.33333333 : 1">
		</inkscape:perspective>
	
		<inkscape:perspective  id="perspective3438-8" inkscape:vp_z="1 : 0.5 : 1" sodipodi:type="inkscape:persp3d" inkscape:vp_x="0 : 0.5 : 1" inkscape:vp_y="0 : 1000 : 0" inkscape:persp3d-origin="0.5 : 0.33333333 : 1">
		</inkscape:perspective>
	
		<inkscape:perspective  id="perspective3438-61" inkscape:vp_z="1 : 0.5 : 1" sodipodi:type="inkscape:persp3d" inkscape:vp_x="0 : 0.5 : 1" inkscape:vp_y="0 : 1000 : 0" inkscape:persp3d-origin="0.5 : 0.33333333 : 1">
		</inkscape:perspective>
	
		<inkscape:perspective  id="perspective3438-9" inkscape:vp_z="1 : 0.5 : 1" sodipodi:type="inkscape:persp3d" inkscape:vp_x="0 : 0.5 : 1" inkscape:vp_y="0 : 1000 : 0" inkscape:persp3d-origin="0.5 : 0.33333333 : 1">
		</inkscape:perspective>
	
		<inkscape:perspective  id="perspective3438-95" inkscape:vp_z="1 : 0.5 : 1" sodipodi:type="inkscape:persp3d" inkscape:vp_x="0 : 0.5 : 1" inkscape:vp_y="0 : 1000 : 0" inkscape:persp3d-origin="0.5 : 0.33333333 : 1">
		</inkscape:perspective>
	
		<inkscape:perspective  id="perspective3438-3" inkscape:vp_z="1 : 0.5 : 1" sodipodi:type="inkscape:persp3d" inkscape:vp_x="0 : 0.5 : 1" inkscape:vp_y="0 : 1000 : 0" inkscape:persp3d-origin="0.5 : 0.33333333 : 1">
		</inkscape:perspective>
	
		<inkscape:perspective  id="perspective3438-33" inkscape:vp_z="1 : 0.5 : 1" sodipodi:type="inkscape:persp3d" inkscape:vp_x="0 : 0.5 : 1" inkscape:vp_y="0 : 1000 : 0" inkscape:persp3d-origin="0.5 : 0.33333333 : 1">
		</inkscape:perspective>
	
		<inkscape:perspective  id="perspective3438-13" inkscape:vp_z="1 : 0.5 : 1" sodipodi:type="inkscape:persp3d" inkscape:vp_x="0 : 0.5 : 1" inkscape:vp_y="0 : 1000 : 0" inkscape:persp3d-origin="0.5 : 0.33333333 : 1">
		</inkscape:perspective>
	
		<inkscape:perspective  id="perspective3438-4" inkscape:vp_z="1 : 0.5 : 1" sodipodi:type="inkscape:persp3d" inkscape:vp_x="0 : 0.5 : 1" inkscape:vp_y="0 : 1000 : 0" inkscape:persp3d-origin="0.5 : 0.33333333 : 1">
		</inkscape:perspective>
	
		<inkscape:perspective  id="perspective3438-93" inkscape:vp_z="1 : 0.5 : 1" sodipodi:type="inkscape:persp3d" inkscape:vp_x="0 : 0.5 : 1" inkscape:vp_y="0 : 1000 : 0" inkscape:persp3d-origin="0.5 : 0.33333333 : 1">
		</inkscape:perspective>
	
		<inkscape:perspective  id="perspective3438-86" inkscape:vp_z="1 : 0.5 : 1" sodipodi:type="inkscape:persp3d" inkscape:vp_x="0 : 0.5 : 1" inkscape:vp_y="0 : 1000 : 0" inkscape:persp3d-origin="0.5 : 0.33333333 : 1">
		</inkscape:perspective>
	
		<inkscape:perspective  id="perspective3438-28" inkscape:vp_z="1 : 0.5 : 1" sodipodi:type="inkscape:persp3d" inkscape:vp_x="0 : 0.5 : 1" inkscape:vp_y="0 : 1000 : 0" inkscape:persp3d-origin="0.5 : 0.33333333 : 1">
		</inkscape:perspective>
	
		<inkscape:perspective  id="perspective3438-24" inkscape:vp_z="1 : 0.5 : 1" sodipodi:type="inkscape:persp3d" inkscape:vp_x="0 : 0.5 : 1" inkscape:vp_y="0 : 1000 : 0" inkscape:persp3d-origin="0.5 : 0.33333333 : 1">
		</inkscape:perspective>
	
		<inkscape:perspective  id="perspective3438-5" inkscape:vp_z="1 : 0.5 : 1" sodipodi:type="inkscape:persp3d" inkscape:vp_x="0 : 0.5 : 1" inkscape:vp_y="0 : 1000 : 0" inkscape:persp3d-origin="0.5 : 0.33333333 : 1">
		</inkscape:perspective>
	
		<inkscape:perspective  id="perspective3438-90" inkscape:vp_z="1 : 0.5 : 1" sodipodi:type="inkscape:persp3d" inkscape:vp_x="0 : 0.5 : 1" inkscape:vp_y="0 : 1000 : 0" inkscape:persp3d-origin="0.5 : 0.33333333 : 1">
		</inkscape:perspective>
	
		<inkscape:perspective  id="perspective3438-138" inkscape:vp_z="1 : 0.5 : 1" sodipodi:type="inkscape:persp3d" inkscape:vp_x="0 : 0.5 : 1" inkscape:vp_y="0 : 1000 : 0" inkscape:persp3d-origin="0.5 : 0.33333333 : 1">
		</inkscape:perspective>
	
		<inkscape:perspective  id="perspective3438-34" inkscape:vp_z="1 : 0.5 : 1" sodipodi:type="inkscape:persp3d" inkscape:vp_x="0 : 0.5 : 1" inkscape:vp_y="0 : 1000 : 0" inkscape:persp3d-origin="0.5 : 0.33333333 : 1">
		</inkscape:perspective>
	
		<inkscape:perspective  id="perspective3649" inkscape:vp_z="1 : 0.5 : 1" sodipodi:type="inkscape:persp3d" inkscape:vp_x="0 : 0.5 : 1" inkscape:vp_y="0 : 1000 : 0" inkscape:persp3d-origin="0.5 : 0.33333333 : 1">
		</inkscape:perspective>
	
		<inkscape:perspective  id="perspective3671" inkscape:vp_z="1 : 0.5 : 1" sodipodi:type="inkscape:persp3d" inkscape:vp_x="0 : 0.5 : 1" inkscape:vp_y="0 : 1000 : 0" inkscape:persp3d-origin="0.5 : 0.33333333 : 1">
		</inkscape:perspective>
	
		<inkscape:perspective  id="perspective3693" inkscape:vp_z="1 : 0.5 : 1" sodipodi:type="inkscape:persp3d" inkscape:vp_x="0 : 0.5 : 1" inkscape:vp_y="0 : 1000 : 0" inkscape:persp3d-origin="0.5 : 0.33333333 : 1">
		</inkscape:perspective>
	
		<inkscape:perspective  id="perspective3693-1" inkscape:vp_z="1 : 0.5 : 1" sodipodi:type="inkscape:persp3d" inkscape:vp_x="0 : 0.5 : 1" inkscape:vp_y="0 : 1000 : 0" inkscape:persp3d-origin="0.5 : 0.33333333 : 1">
		</inkscape:perspective>
	
		<inkscape:perspective  id="perspective3724" inkscape:vp_z="1 : 0.5 : 1" sodipodi:type="inkscape:persp3d" inkscape:vp_x="0 : 0.5 : 1" inkscape:vp_y="0 : 1000 : 0" inkscape:persp3d-origin="0.5 : 0.33333333 : 1">
		</inkscape:perspective>
	
		<inkscape:perspective  id="perspective3724-9" inkscape:vp_z="1 : 0.5 : 1" sodipodi:type="inkscape:persp3d" inkscape:vp_x="0 : 0.5 : 1" inkscape:vp_y="0 : 1000 : 0" inkscape:persp3d-origin="0.5 : 0.33333333 : 1">
		</inkscape:perspective>
	
		<inkscape:perspective  id="perspective3724-3" inkscape:vp_z="1 : 0.5 : 1" sodipodi:type="inkscape:persp3d" inkscape:vp_x="0 : 0.5 : 1" inkscape:vp_y="0 : 1000 : 0" inkscape:persp3d-origin="0.5 : 0.33333333 : 1">
		</inkscape:perspective>
	
		<inkscape:perspective  id="perspective3724-8" inkscape:vp_z="1 : 0.5 : 1" sodipodi:type="inkscape:persp3d" inkscape:vp_x="0 : 0.5 : 1" inkscape:vp_y="0 : 1000 : 0" inkscape:persp3d-origin="0.5 : 0.33333333 : 1">
		</inkscape:perspective>
	
		<inkscape:perspective  id="perspective3724-2" inkscape:vp_z="1 : 0.5 : 1" sodipodi:type="inkscape:persp3d" inkscape:vp_x="0 : 0.5 : 1" inkscape:vp_y="0 : 1000 : 0" inkscape:persp3d-origin="0.5 : 0.33333333 : 1">
		</inkscape:perspective>
	
		<inkscape:perspective  id="perspective3782" inkscape:vp_z="1 : 0.5 : 1" sodipodi:type="inkscape:persp3d" inkscape:vp_x="0 : 0.5 : 1" inkscape:vp_y="0 : 1000 : 0" inkscape:persp3d-origin="0.5 : 0.33333333 : 1">
		</inkscape:perspective>
	
		<inkscape:perspective  id="perspective3782-3" inkscape:vp_z="1 : 0.5 : 1" sodipodi:type="inkscape:persp3d" inkscape:vp_x="0 : 0.5 : 1" inkscape:vp_y="0 : 1000 : 0" inkscape:persp3d-origin="0.5 : 0.33333333 : 1">
		</inkscape:perspective>
	
		<inkscape:perspective  id="perspective3782-9" inkscape:vp_z="1 : 0.5 : 1" sodipodi:type="inkscape:persp3d" inkscape:vp_x="0 : 0.5 : 1" inkscape:vp_y="0 : 1000 : 0" inkscape:persp3d-origin="0.5 : 0.33333333 : 1">
		</inkscape:perspective>
	
		<inkscape:perspective  id="perspective3782-4" inkscape:vp_z="1 : 0.5 : 1" sodipodi:type="inkscape:persp3d" inkscape:vp_x="0 : 0.5 : 1" inkscape:vp_y="0 : 1000 : 0" inkscape:persp3d-origin="0.5 : 0.33333333 : 1">
		</inkscape:perspective>
	
		<inkscape:perspective  id="perspective3782-7" inkscape:vp_z="1 : 0.5 : 1" sodipodi:type="inkscape:persp3d" inkscape:vp_x="0 : 0.5 : 1" inkscape:vp_y="0 : 1000 : 0" inkscape:persp3d-origin="0.5 : 0.33333333 : 1">
		</inkscape:perspective>
	
		<inkscape:perspective  id="perspective3782-36" inkscape:vp_z="1 : 0.5 : 1" sodipodi:type="inkscape:persp3d" inkscape:vp_x="0 : 0.5 : 1" inkscape:vp_y="0 : 1000 : 0" inkscape:persp3d-origin="0.5 : 0.33333333 : 1">
		</inkscape:perspective>
	
		<inkscape:perspective  id="perspective3782-42" inkscape:vp_z="1 : 0.5 : 1" sodipodi:type="inkscape:persp3d" inkscape:vp_x="0 : 0.5 : 1" inkscape:vp_y="0 : 1000 : 0" inkscape:persp3d-origin="0.5 : 0.33333333 : 1">
		</inkscape:perspective>
	
		<inkscape:perspective  id="perspective3782-73" inkscape:vp_z="1 : 0.5 : 1" sodipodi:type="inkscape:persp3d" inkscape:vp_x="0 : 0.5 : 1" inkscape:vp_y="0 : 1000 : 0" inkscape:persp3d-origin="0.5 : 0.33333333 : 1">
		</inkscape:perspective>
	
		<inkscape:perspective  id="perspective3782-2" inkscape:vp_z="1 : 0.5 : 1" sodipodi:type="inkscape:persp3d" inkscape:vp_x="0 : 0.5 : 1" inkscape:vp_y="0 : 1000 : 0" inkscape:persp3d-origin="0.5 : 0.33333333 : 1">
		</inkscape:perspective>
	
		<inkscape:perspective  id="perspective3782-1" inkscape:vp_z="1 : 0.5 : 1" sodipodi:type="inkscape:persp3d" inkscape:vp_x="0 : 0.5 : 1" inkscape:vp_y="0 : 1000 : 0" inkscape:persp3d-origin="0.5 : 0.33333333 : 1">
		</inkscape:perspective>
	
		<inkscape:perspective  id="perspective3782-75" inkscape:vp_z="1 : 0.5 : 1" sodipodi:type="inkscape:persp3d" inkscape:vp_x="0 : 0.5 : 1" inkscape:vp_y="0 : 1000 : 0" inkscape:persp3d-origin="0.5 : 0.33333333 : 1">
		</inkscape:perspective>
	
		<inkscape:perspective  id="perspective3782-12" inkscape:vp_z="1 : 0.5 : 1" sodipodi:type="inkscape:persp3d" inkscape:vp_x="0 : 0.5 : 1" inkscape:vp_y="0 : 1000 : 0" inkscape:persp3d-origin="0.5 : 0.33333333 : 1">
		</inkscape:perspective>
	
		<inkscape:perspective  id="perspective3782-14" inkscape:vp_z="1 : 0.5 : 1" sodipodi:type="inkscape:persp3d" inkscape:vp_x="0 : 0.5 : 1" inkscape:vp_y="0 : 1000 : 0" inkscape:persp3d-origin="0.5 : 0.33333333 : 1">
		</inkscape:perspective>
	
		<inkscape:perspective  id="perspective3782-17" inkscape:vp_z="1 : 0.5 : 1" sodipodi:type="inkscape:persp3d" inkscape:vp_x="0 : 0.5 : 1" inkscape:vp_y="0 : 1000 : 0" inkscape:persp3d-origin="0.5 : 0.33333333 : 1">
		</inkscape:perspective>
	
		<inkscape:perspective  id="perspective3782-733" inkscape:vp_z="1 : 0.5 : 1" sodipodi:type="inkscape:persp3d" inkscape:vp_x="0 : 0.5 : 1" inkscape:vp_y="0 : 1000 : 0" inkscape:persp3d-origin="0.5 : 0.33333333 : 1">
		</inkscape:perspective>
	
		<inkscape:perspective  id="perspective3782-98" inkscape:vp_z="1 : 0.5 : 1" sodipodi:type="inkscape:persp3d" inkscape:vp_x="0 : 0.5 : 1" inkscape:vp_y="0 : 1000 : 0" inkscape:persp3d-origin="0.5 : 0.33333333 : 1">
		</inkscape:perspective>
	
		<inkscape:perspective  id="perspective3782-26" inkscape:vp_z="1 : 0.5 : 1" sodipodi:type="inkscape:persp3d" inkscape:vp_x="0 : 0.5 : 1" inkscape:vp_y="0 : 1000 : 0" inkscape:persp3d-origin="0.5 : 0.33333333 : 1">
		</inkscape:perspective>
	
		<inkscape:perspective  id="perspective3782-8" inkscape:vp_z="1 : 0.5 : 1" sodipodi:type="inkscape:persp3d" inkscape:vp_x="0 : 0.5 : 1" inkscape:vp_y="0 : 1000 : 0" inkscape:persp3d-origin="0.5 : 0.33333333 : 1">
		</inkscape:perspective>
	
		<inkscape:perspective  id="perspective3782-25" inkscape:vp_z="1 : 0.5 : 1" sodipodi:type="inkscape:persp3d" inkscape:vp_x="0 : 0.5 : 1" inkscape:vp_y="0 : 1000 : 0" inkscape:persp3d-origin="0.5 : 0.33333333 : 1">
		</inkscape:perspective>
	
		<inkscape:perspective  id="perspective3782-78" inkscape:vp_z="1 : 0.5 : 1" sodipodi:type="inkscape:persp3d" inkscape:vp_x="0 : 0.5 : 1" inkscape:vp_y="0 : 1000 : 0" inkscape:persp3d-origin="0.5 : 0.33333333 : 1">
		</inkscape:perspective>
</defs>
<sodipodi:namedview  id="namedview2818" inkscape:pageshadow="2" inkscape:pageopacity="0" gridtolerance="10" inkscape:zoom="0.10625167" borderopacity="1" bordercolor="#666666" pagecolor="#ffffff" inkscape:cy="2555.2539" inkscape:cx="2012.124" guidetolerance="10" objecttolerance="10" inkscape:window-y="-8" inkscape:window-x="-8" inkscape:window-height="750" inkscape:window-width="1280" inkscape:current-layer="svg2816" showgrid="false" inkscape:snap-nodes="true" inkscape:object-nodes="true" inkscape:window-maximized="1">
	</sodipodi:namedview>
<path id="path2296-1-7-4-0-9-4-8-5-5-37-1" sodipodi:nodetypes="ccccccccccccccccccccccccccccccccccccccccccccccccccccc" fill="#FFFFFF" stroke="#282828" stroke-width="4" d="
	M2411.766,31.318l42.849,18.273l39.939-11.049l99.899,44.634l23.403,26.57l24.322-3.871l17.31,21.375l24.321,4.544l129.532,58.072
	l13.121,27.918l18.029,10.386l28.549,42.645l30.218,10.064l14.788,36.712l24.607,16.376l11.984,22.687l25.308-13.078l37.876,2.748
	l10.527,13.268l25.253-18.991l42.786,72.174l-4.901,20.279l-17.004,11.557l33.487,38.906l-17.004,56.438l-47.071,48.907
	l-41.068-9.208l12.229-30.246l-43.472-23.9l-42.068,8.358l-17.47,29.7l-262.914-100.036l-73.135-13.457l-26.852-37.301
	l-35.268,4.074l-58.428-67.686l3.985-34.025l-52.818-51.558l-20.56,28.388l-23.521-2.915l5.934-21.849l-35.442-8.525l-21.416,15.318
	l-34.04-7.122l2.427-24.654l-24.222-32.368l-39.171-21.749l-9.348-34.12l-64.153-70.742l10.522-48.71l57.26-13.102l49.264,14.68
	L2411.766,31.318L2411.766,31.318z"/>
<path id="path2296-1-7-4-0-9-4-8-5-5-37-4" sodipodi:nodetypes="cccccccccccccccccccccccccccccccc" fill="#FFFFFF" stroke="#282828" stroke-width="4" d="
	M3772.934,722.771l19.706,6.352l16.097-6.141l-1.785-17.779l42.338-33.738l40.451,5.435l63.841,29.802l23.674-13.938l1.233,21.827
	l-25.414,47.072l37.125,29.825l-4.951,61.383l21.696,7.386l1.919,17.8l-39.458,18.502l-16.314,69.694l-39.318,8.131l-4.955,49.507
	l-33.006,3.224l-17.193-26.72l-62.073,18.162l-59.971-56.874l-5.441-22.826l59.077-74.721l-11.897-59.26l-23.116-17.184
	l-5.14-36.925l-30.492-45.496l15.432-24.165l29.909,3.027l15.603,12.576L3772.934,722.771L3772.934,722.771z"/>
<path id="path2296-1-7-4-0-9-4-8-5-5-37-9" sodipodi:nodetypes="ccccccccccccccccccccccccccccccccccccccccccccccccccc" fill="#FFFFFF" stroke="#282828" stroke-width="4" d="
	M3491.021,448.574l28.122,2.145l20.304,25.416l25.023,3.563l15.906,28.107l10.997,75.093l53.882,37.438l1.287,26.919l46.869,14.295
	l11.807,40.243l14.346,3.478l30.492,45.496l5.14,36.925l23.116,17.184l11.897,59.26l-59.077,74.721l5.441,22.826l59.971,56.874
	l-54.611,7.037l8.275,46.211l17.392,4.836l8.274,37.094l-45.074,20.503l-24.035,52.061l-22.634-1.236l-29.646,54.865l-43.671-1.236
	l-63.689,49.131l-118.388-49.048l-19.509-44.84l-86.83-56.06l-9.31-23.678l-21.23-15.963l45.442-115.081l28.387-213.065
	l-55.516-0.432l-35.179-29.884l23.728-31.288l-32.482-36.409l-24.768-3.449l-10.742-26.592l37.646-8.358l31.117-44.258
	l-19.156-26.824l23.942-28.06l-38.8-38.327l10.182-38.482l84.155-52.217l14.482,9.339l16.304-9.163L3491.021,448.574
	L3491.021,448.574z"/>
<path id="path2296-1-7-4-0-9-4-8-5-5-37-8" sodipodi:nodetypes="ccccccccccccccccccccccccccccccccccccccccccccccccccccccccccccccccccccccccccccccccccccccccccccccccccccccccccccccccccc" fill="#FFFFFF" stroke="#282828" stroke-width="4" d="
	M3304.278,534.532l-23.942,28.06l19.156,26.824l-31.117,44.258l-37.646,8.358l10.742,26.592l24.768,3.449l32.482,36.409
	l-23.728,31.288l35.179,29.884l55.516,0.432l-28.387,213.065l-45.442,115.081l21.23,15.963l9.31,23.678l86.83,56.06l19.509,44.84
	l118.388,49.048l21.297,12.371l-16.243,17.601l18.82,44.951l16.603,57.643l-5.839,60.448l-95.402,106.662l-148.699,60.379
	l-124.856,9.186l-129.765-37.799l-55.582-2.321l-72.047,36.31l-210.899-35.221l-94.488,22.284l-32.776-56.96l-41.191,25.089
	l-28.568-68.18l-54.517,19.479l-6.828-101.841l-20.272,14.173l-112.84-53.148l11.987-26.5l-31.492-20.188l-4.844-107.146
	l-76.374-14.578l-8.351-93.121l-50.991-3.195l3.007-31.947l-98.678-67.011l-22.939-45.973l-18.733,8.726l-14.524-39.661
	l-46.783-23.532l113.807-11.61l26.158-19.25l-2.594-15.744l-23.633-2.42l-50.982-40.99l52.807-47.302l33.871,1.788l4.419-17.848
	l-23.633-13.641l-3.295-61.326l-110.591-96.391l33.171-66.235l0.912-60.626l-16.62-0.315l11.432-38.186l-37.658-15.043
	l35.762-53.162l-27.354-38.436l-39.975,7.147l-17.536-18.099l2.792-26.111l-26.662-33.825l1.389-25.41l-22.271,6.58l-1.936-15.16
	l10.688-31.289l-27.883-3.238l-4.74-24.978l16.999-35.496l-13.856-29.886l37.336-62.145l11.867,11.264l44.826-10.475l49.736-32.916
	l56.048,27.393l21.685-8.372l34.308,30.198l64.153,70.742l9.348,34.12l39.171,21.749L2280,242.221l-2.427,24.654l34.04,7.122
	l21.416-15.318l35.442,8.525l-5.934,21.849l23.521,2.915l20.56-28.388l52.818,51.558l-3.985,34.025l58.428,67.686l35.268-4.074
	l26.852,37.301l73.135,13.457l262.914,100.036l17.47-29.7l42.068-8.358l43.472,23.9l-12.229,30.246l41.068,9.208l47.071-48.907
	l17.004-56.438l137.994,29.505l19.514-16.817L3304.278,534.532L3304.278,534.532z"/>
<path id="path2296-1-7-4-0-9-4-8-5-5-37-2" sodipodi:nodetypes="ccccccccccccccccccccccccccccccccccccccccccccccccccccc" fill="#FFFFFF" stroke="#282828" stroke-width="4" d="
	M1994.314,954.797l46.783,23.532l14.524,39.661l18.733-8.726l22.939,45.973l98.678,67.011l-3.007,31.947l50.991,3.195l8.351,93.121
	l76.374,14.578l4.844,107.146l31.492,20.188l-11.987,26.5l-19.157,36.897l-54.221,1.834l-38.091,41.807l-20.56,65.65l-72.453,10.95
	l-40.195-27.62l-30.378,20.769l-13.73,55.859l-83.857,56.56l-111.613,4.424l-111.405-113.58l-22.343,20.363l-36.368-44.154
	l-185.74,14.052l-39.174-39.947l-75.64,33.688l-28.654-20.311l-112.827-168.098l23.922-153.37l-44.803-36.258l58.984-22.232
	l-37.089-57.998l-0.623-46.076l44.96-47.478l-9.893-78.281l44.806-17.27l53.923,12.184l6.938,35.325l42.001,8.678l18.157-46.724
	l78.468-8.854l42.194-42.717l26.766,23.903l56.92,4.97l47.104,51.955l26.311,8.502l79.247-26.27l23.599,17.754l18.408,33.614
	L1994.314,954.797L1994.314,954.797z"/>
<path id="path2296-1-7-4-0-9-4-8-5-5-37-5" sodipodi:nodetypes="cccccccccccccccc" fill="#FFFFFF" stroke="#282828" stroke-width="4" d="
	M1301.975,1004.655l-44.96,47.478l0.623,46.076l37.089,57.998l-58.984,22.232l44.803,36.258l-23.922,153.37l-169.293-237.212
	l-43.816-117.025l7.717-86.578l87.414-69.204l14.517,28.302l66.41,36.718l39.762-31.307l32.749,34.613L1301.975,1004.655
	L1301.975,1004.655z"/>
<path id="path2296-1-7-4-0-9-4-8-5-5-37-7" sodipodi:nodetypes="ccccccccccccccccccccccccccccc" fill="#FFFFFF" stroke="#282828" stroke-width="4" d="
	M1256.623,1368.067l-49.062,77.479l-39.944-34.022l-33.132,54.654l-56.846,1.392l-46.327-37.88l-67.365,44.87l-96.99-15.484
	l-1.574,23.798l-33.132,1.357l-83.623-43.524l-12.795-31.603l-52.065-14.771l3.533-44.542l73.661-22.802l-15.4-29.113l41.402-27.01
	l15.455,32.598l45.55-30.685l1.02-34.609l52.156-27.428l-4.43-49.966l-23.743-28.06l9.587-37.626l81.711-3.42l23.847-33.281
	l55.397-44.56l43.816,117.025L1256.623,1368.067L1256.623,1368.067z"/>
<path id="path2296-1-7-4-0-9-4-8-5-5-37-7-1" sodipodi:nodetypes="cccccccccccccccccccccccccccccccccc" fill="#FFFFFF" stroke="#282828" stroke-width="4" d="
	M1398.104,1556.476l75.64-33.688l39.174,39.947l185.74-14.052l36.368,44.154l22.343-20.363l111.405,113.58l-6.103,47.688
	l41.529,18.74l-8.262,73.439l-122.567-9.312l-28.714,73.936l-21.019,82.551l-36.446,23.644l-120.58-59.307l-68.687,19.236
	l-5.989-44.229l-66.3-10.568l8.036-41.425l-16.509-16.88l21.36-33.71l-120.297,31.508l-13.003-125.577l-158.866,51.144l6.781-26.341
	l0.471-42.471l-24.775-16.524l33.761-54.708l13.093-73.391l-18.57-31.471l50.442-76.48l49.062-77.479l112.827,168.098
	L1398.104,1556.476L1398.104,1556.476z"/>
<path id="path2296-1-7-4-0-9-4-8-5-5-37-7-5" sodipodi:nodetypes="cccccccccccccccccccccccccccccccccccccccccccccccccccccccccccccccccc" fill="#FFFFFF" stroke="#282828" stroke-width="4" d="
	M2486.143,1457.9l6.828,101.841l54.517-19.479l28.568,68.18l41.191-25.089l32.776,56.96l94.488-22.284l210.899,35.221l72.047-36.31
	l55.582,2.321l129.765,37.799l6.799,41.026l-25.337,16.622l-44.272,160.382l-164.189,143.552l-110.893-32.468l-174.007,98.671
	l-1.494,99.371l-104.455,42.802l-123.39-0.678l25.98-57.48l-17.498-12.599l-28.017,17.556l-29.419-7.69l-59.574,95.397
	l44.452,21.882l9.711,60.17l-51.3,27.211l81.941,72.091l2.697,23.003l-45.797,78.263l15.915,77.563l-45.311,54.141l-69.854,3.649
	l-55.129-131.695l-75.465-6.169l-22.869,35.206l-118.44-10.075l85.63-111.059l26.021-0.258l-85.48-58.464l37.943-106.149
	l-47.611-50.749l-0.627-27.608l87.734-97.734l-79.169-72.489l-11.146-72.488l-32.184-21.997l-44.105-93.527l-40.6,13.066
	l-34.059-41.384l8.262-73.439l-41.529-18.74l6.103-47.688l111.613-4.424l83.857-56.56l13.73-55.859l30.378-20.769l40.195,27.62
	l72.453-10.95l20.56-65.65l38.091-41.807l54.221-1.834l19.157-36.897l112.84,53.148L2486.143,1457.9L2486.143,1457.9z"/>
<path id="path2296-1-7-4-0-9-4-8-5-5-37-7-7" sodipodi:nodetypes="ccccccccccccccccc" fill="#FFFFFF" stroke="#282828" stroke-width="4" d="
	M1929.998,1867.306l40.6-13.066l44.105,93.527l32.184,21.997l11.146,72.488l-58.646,27.588l-67.061-17.294l-17.009,34.837
	l-21.918-11.445l-155.86,32.733l-50.392-14.034l0.045-97.896l36.446-23.644l21.02-82.551l28.713-73.936l122.568,9.312
	L1929.998,1867.306L1929.998,1867.306z"/>
<path id="path2296-1-7-4-0-9-4-8-5-5-37-7-14" sodipodi:nodetypes="ccccccccccccccccccccccccccccccc" fill="#FFFFFF" stroke="#282828" stroke-width="4" d="
	M1566.613,1937.434l42.475,19.926l1.801,150.361l-62.316-2.227l-167.637,78.013l-27.031-22.688l-17.971,24.467l-38.092-13.5
	l-2.985-43.344l-90.685-0.316l-34.583,55.084l-66.14,8.098l-28.271,39.656l-81.528-18.098l8.234-60.174l39.95-67.482l-43.501-68.184
	l1.38-73.093l73.545,6.372l58.117-37.107l-50.581-77.781l65.565-68.483l158.866-51.144l13.003,125.577l120.297-31.508l-21.36,33.71
	l16.509,16.88l-8.036,41.425l66.3,10.568l5.989,44.229L1566.613,1937.434L1566.613,1937.434z"/>
<path id="path2296-1-7-4-0-9-4-8-5-5-37-7-2" sodipodi:nodetypes="ccccccccccccccccccccccccccccccccccccccccccccccccccccccccccccccccccc" fill="#FFFFFF" stroke="#282828" stroke-width="4" d="
	M1157.119,1522.027l18.57,31.471l-13.093,73.391l-33.761,54.708l24.775,16.524l-0.471,42.471l-6.781,26.341l-65.565,68.483
	l50.581,77.781l-58.117,37.107l-73.545-6.372l-1.38,73.093l43.501,68.184l-39.95,67.482l-8.234,60.174l-36.978-2.389l-9.245,41.129
	l30.026,36.22l38.013,14.314l-0.558,144.05l-54.138,53.193l-94.812,9.715l-4.277,25.194l-47.002,33.999l-139.211-0.533
	l13.666-74.867l89.728-42.803l-5.75-68.828l-53.153-8.126l20.209-51.439L720.021,2150.3l-88.17,38.286l-26.459-59.893l64.005-45.166
	l16.319-69.711l-105.702-66.904l23.775-15.394l-28.119-51.859l19.567-42.041l-54.274-81.25l54.422-20.239l-5.888-13.928
	L571.688,1723l-25.523-53.199l41.8-37.07l19.358-43.381l-12.751-28.549l13.867-7.923l11.062-50.7l-35.924-22.649l-4.366-38.778
	l48.931,1.896l-15.587-33.87l25.789-35.271l45.424,20.829l52.065,14.771l12.795,31.603l83.623,43.524l33.132-1.357l1.574-23.798
	l96.99,15.484l67.365-44.87l46.327,37.88l56.846-1.392l33.132-54.654l39.944,34.022L1157.119,1522.027L1157.119,1522.027z"/>
<path id="path2296-1-7-4-0-9-4-8-5-5-37-7-6" sodipodi:nodetypes="ccccccccccccccccccccccccc" fill="#FFFFFF" stroke="#282828" stroke-width="4" d="
	M669.396,2083.527l-64.005,45.166l26.459,59.893l88.17-38.286l20.147,171.395l-101.521,8.578l2.203-39.981l-87.89,11.463
	l-1.038,47.773l-70.124,6.69l-56.89-47.328l-57.591-4.551l-24.741,16.92l-16.326-15.339l33.267-67.143l-9.904-15.771l1.758-75.707
	l37.523-93.24l31.211,11.951l79.599-57.475l22.095-46.956l24.198,13.354l34.017-28.021l105.702,66.904L669.396,2083.527
	L669.396,2083.527z"/>
<path id="path2296-1-7-4-0-9-4-8-5-5-37-7-57" sodipodi:nodetypes="ccccccccccccccccccccccccccccccccccccccc" fill="#FFFFFF" stroke="#282828" stroke-width="4" d="
	M719.959,2373.134l53.153,8.126l5.75,68.828l-89.728,42.803l-13.666,74.867l-11.576,28.998l-58.105,16.821l-75.968-3.965
	l-39.608,27.437l-53.997-2.359l-25.771-11.285l-44.137,22.601l-12.579,19.094l-42.032,10.679l-13.839-22.051l-22.956,3.195
	l10.004,43.168l-26.906,32.104l-103.645,26.453l9.961-132.033l-10.233-13.714l31.142-79.633l54.284,3.817l15.604-56.165
	l38.746-6.376l-13.323-62.668l21.74-8.672l-7.933-68.721l31.91-28.563l16.326,15.339l24.741-16.92l57.591,4.551l56.89,47.328
	l70.124-6.69l1.038-47.773l87.89-11.463l-2.203,39.981l101.521-8.578L719.959,2373.134L719.959,2373.134z"/>
<path id="path2296-1-7-4-0-9-4-8-5-5-37-7-8" sodipodi:nodetypes="ccccccccccccccccccccccccccccccccccccccccccccccccccccccc" fill="#FFFFFF" stroke="#282828" stroke-width="4" d="
	M1169.589,2183.209l34.583-55.084l90.685,0.316l2.985,43.344l38.092,13.5l17.971-24.467l27.031,22.688l167.637-78.013l62.316,2.227
	l-1.801-150.361l78.104,39.381l-0.045,97.896l50.392,14.034l155.86-32.733l21.918,11.445l17.009-34.837l67.061,17.294l58.646-27.588
	l79.169,72.489l-87.734,97.734l0.627,27.608l47.611,50.749l-37.943,106.149l85.48,58.464l-26.021,0.258l-85.63,111.059l-41.864,4.28
	l-57.733-62.021l-41.604,86.646l-65.448-17.141l-73.863,17.923l-54.854,42.744l-0.156,46.951l-31.012,89.729l-30.311-0.735
	l-58.887,36.257l-16.812-38.778l-38.55-0.91l-126.21,81.84l-114.853-47.254l0.857-144.029l-99.424-45.15l-75.581-3.775
	l-42.38-61.773l-90.768-7.776l-13.368-44.406l54.138-53.193l0.558-144.05l-38.013-14.314l-30.026-36.22l9.245-41.129l36.978,2.389
	l81.528,18.098l28.271-39.656L1169.589,2183.209L1169.589,2183.209z"/>
<path id="path2296-1-7-4-0-9-4-8-5-5-37-7-27" sodipodi:nodetypes="cccccccccccccccccccccccccccccccccccccccccccccccccccccccccccccccccccccccccccccccccccccccccccccccccccccc" fill="#FFFFFF" stroke="#282828" stroke-width="4" d="
	M605.787,2613.577l58.105-16.821l11.576-28.998l139.211,0.533l47.002-33.999l4.277-25.194l94.812-9.715l13.368,44.406l90.768,7.776
	l42.38,61.773l75.581,3.775l99.424,45.15l-0.857,144.029l49.823,20.471l0.024,50.948l-47.615,62.221l6.383,99.389l36.538,29.962
	l-89.691,17.34l-27.764,34.995l-55.114,4.139l-22.055-31.391l-37.481,33.127l-5.224,63.982l-93.584,45.048l-93.584,0.167
	l-19.539-45.717l-74.238,28.619l-58.108-28.185l-6.916,17.397l-30.47-14.56l-33.525,99.602l0.137,35.085l-27.214,53.316
	l-19.5,104.511l-23.984,19.114l19.494,68.204l-38.29,129.476l-18.443-46.064l-40.184-53.777l-9.853-116.015l57.469-109.704
	l-24.58-20.643l18.899-5.214l5.644-35.935l18.969-12.793l-9.784-91.336l26.481-38.086l81.882-46.502l21.573-111.721l-17.699-26.164
	l-28.616,11.24l-112.067,0.021l-23.364-21.914l-119.817,16.821l-30.738,24.255l14.845,140.665l47.804,7.424l-5.756,47.088
	l15.282,23.946l-21.886,5.713l0.139,30.005l68.162,30.706l5.048,23.694l-32.925,19.423l-13.991,48.876l-42.742,18.722
	l-10.515,53.183l-37.864,51.078l-66.617,5.496L48.029,3641.64l9.822-30.971l46.288-43.593l-21.034-49.203l7.714-31.046
	l-35.764-49.278l-1.402-53.486l-21.038-19.825l0-51.382l80.647-113.095l-25.947-31.747l23.844-51.382l4.299-85.709l33.752-5.764
	l18.431-61.225l53.495,25.733l100.48-1.616l-15.932-59.12l-9.025-108.851l-142.307-61.435l103.645-26.453l26.906-32.104
	l-10.004-43.168l22.955-3.195l13.84,22.051l42.032-10.679l12.579-19.094l44.136-22.6l25.771,11.284l53.997,2.359l39.608-27.437
	L605.787,2613.577L605.787,2613.577z"/>
<path id="path2296-1-7-4-0-9-4-8-5-5-37-7-4" sodipodi:nodetypes="cccccccccccccccccccccccccccccccccccccccccccccccccccc" fill="#FFFFFF" stroke="#282828" stroke-width="4" d="
	M1235.734,3322.861l-0.631,85.595l-15.461-1.231l-53.68,38.322l-5.348,45.505l15.316,11.133l-11.977,54.655l59.931-20.358
	l38.381,59.246l-24.99,21.909l-24.48-14.509l-58.142,34.58l1.467,20.555l-16.113,11.801l-29.438,3.386l-13.308,84.031
	l-31.906,18.043l-76.787-0.19l-1.05-16.319l-50.84-8.606l-52.243,42.587l-85.202-9.307l-11.569-27.54l12.404-32.983l32.741-25.27
	l21.521-69.449l40.454-34.387l-31.074-44.905l-15.647-3.53l-0.219-28.074l17.478-1.408l-9.873-30.862l42.021-2.812l-6.149-26.299
	l21.2-1.754l7.281-103.922l-21.631-32.74l17.747-28.314l-19.42-17.795l14.942-28.314l-9.352-6.637l93.584-0.167l93.584-45.048
	l5.224-63.982l37.481-33.127l22.055,31.391l55.114-4.139l11.548,52.233l26.029,10.954l17.613,53.732l-9.736,57.939
	L1235.734,3322.861L1235.734,3322.861z"/>
<path id="path2296-1-7-4-0-9-4-8-5-5-37-7-12" sodipodi:nodetypes="ccccccccccccc" fill="#FFFFFF" stroke="#282828" stroke-width="4" d="
	M1922.278,2641.226l-15.356,50.531l-56.836,22.612l-68.406,0.453l-13.063-16.207l-33.883-0.175l-10.42-12.632l-26.248,0.337
	l0.156-46.951l54.854-42.744l73.863-17.923l65.448,17.141L1922.278,2641.226L1922.278,2641.226z"/>
<path id="path2296-1-7-4-0-9-4-8-5-5-37-7-41" sodipodi:nodetypes="cccccccccccccccccccccccccccc" fill="#FFFFFF" stroke="#282828" stroke-width="4" d="
	M1981.887,2637.018l2.174,125.567l-43.512-4.036l-5.992,17.284l-24.283,2.026l-0.923,26.473l-20.427-0.05l-1.492,28.702
	l-77.93,2.054l0.328,46.271l-71.799,2.803l-30.423-5.613l-1.671-70.131l-34.631-5.613l-4.252-26.879l31.012-89.729l26.248-0.337
	l10.42,12.632l33.883,0.175l13.063,16.207l68.406-0.453l56.836-22.612l15.356-50.531l-29.89-45.558l41.604-86.646l57.733,62.021
	L1981.887,2637.018L1981.887,2637.018L1981.887,2637.018z"/>
<path id="path2296-1-7-4-0-9-4-8-5-5-37-7-87" sodipodi:nodetypes="ccccccccccccccccccccc" fill="#FFFFFF" stroke="#282828" stroke-width="4" d="
	M2174.9,2541.632l75.465,6.169l55.129,131.695l-9.082,54.261l-40.411-0.779l-6.534-21.915l-17.432,2.797l-4.489,29.012
	l-36.748,5.169l29.172,38.83l-55.471,56.342l-127.702-1.162l-29.523-36.927l-17.217,16.6l-49.508-63.174l43.512,4.036
	l-2.174-125.567l9.84-65.975l41.864-4.28l118.44,10.075L2174.9,2541.632z"/>
<path id="path2296-1-7-4-0-9-4-8-5-5-37-7-277" sodipodi:nodetypes="ccccccccccccccccc" fill="#FFFFFF" stroke="#282828" stroke-width="4" d="
	M2009.938,2930.149l-23.772-38.53l-91.899,26.819l-84.436-37.13l-0.328-46.271l77.93-2.054l1.492-28.702l20.427,0.05l0.923-26.473
	l24.283-2.026l5.992-17.284l49.508,63.174l17.217-16.6l29.523,36.927l-18.566,55.626l9.879,13.081L2009.938,2930.149
	L2009.938,2930.149z"/>
<path id="path2296-1-7-4-0-9-4-8-5-5-37-7-19" sodipodi:nodetypes="cccccccccccccc" fill="#FFFFFF" stroke="#282828" stroke-width="4" d="
	M2238.552,2796.908l32.329-0.312l-28.785,77.662l-30.537,2.207l-42.516,37.79l-34.234-3.33l-30.055,21.379l-94.816-2.155
	l18.172-19.393l-9.879-13.081l18.566-55.626l127.702,1.162l55.471-56.342L2238.552,2796.908z"/>
<path id="path2296-1-7-4-0-9-4-8-5-5-37-7-50" sodipodi:nodetypes="ccccccccccccccccccccccccccc" fill="#FFFFFF" stroke="#282828" stroke-width="4" d="
	M2009.938,2930.149l94.816,2.155l-13.781,45.392l-22.123,3.96l-9.205,53.92l-15.65,12.098l-2.004,27.34l-35.384,4.795l0.884,23.551
	l-15.245,20.045l-79.854,1.783l0.091-12.242l-42.595,0.76l4.237-17.997l-74.654-8.53l37.113-59.307l-26.352-3.907l3.804-43.179
	l24.14-24.944l-64.219-28.101l-19.339,5.91l-23.897-30.204l7.311-19.335l71.798-2.803l84.437,37.13l91.898-26.819L2009.938,2930.149
	L2009.938,2930.149z"/>
<path id="path2296-1-7-4-0-9-4-8-5-5-37-7-60" sodipodi:nodetypes="ccccccccccccccccccccccccccccccccccccccccccccccccccccccc" fill="#FFFFFF" stroke="#282828" stroke-width="4" d="
	M2375.349,2675.847l4.229,16.261l20.654-12.451l11.188,5.362l12.184,62.686l-49.662,33.136l0.164,9.276l73.612,33.659l0.329,18.232
	l11.55-4.91l8.744,6.311l-0.021,19.984l14.004,11.92l-8.787,53.646l-5.438,20.161l-19.112-6.486l-43.306-33.486l-52.072-1.578
	l-42.955,6.136l-48.94,38.119l-27.3,37.719l0.4,101.184l-24.673,70.661l-44.309-22.257l-5.118,64.016l-37.559,30.906l-55.674-27.073
	l-15.351-17.607l28.907-31.707l-88.752,0.401l-0.041-34.662l15.244-20.045l-0.884-23.551l35.384-4.795l2.005-27.34l15.65-12.098
	l9.205-53.92l22.122-3.96l13.782-45.392l30.055-21.379l34.234,3.33l42.515-37.79l30.538-2.207l28.785-77.662l-32.33,0.312
	l-18.581-10.038l-29.172-38.83l36.747-5.169l4.489-29.012l17.432-2.797l6.534,21.915l40.412,0.779l9.081-54.261L2375.349,2675.847
	L2375.349,2675.847L2375.349,2675.847z"/>
<path id="path2296-1-7-4-0-9-4-8-5-5-37-7-86" sodipodi:nodetypes="ccccccccccccccccc" fill="#FFFFFF" stroke="#282828" stroke-width="4" d="
	M2356.716,3021.314l-28.681-5.22l13.642,23.664l-17.563,6.063l-10.608-14.104l-36.338,21.214l-11.471,30.146l-30.882,7.648
	l-0.4-101.184l27.3-37.719l48.94-38.119l42.955-6.136l52.072,1.578l43.306,33.486l-3.259,26.621l-82.139,23.191L2356.716,3021.314
	L2356.716,3021.314z"/>
<path id="path2296-1-7-4-0-9-4-8-5-5-37-7-0" sodipodi:nodetypes="ccccccccccccccccccccccccccccccccccc" fill="#FFFFFF" stroke="#282828" stroke-width="4" d="
	M2583.227,2916.124l16.901,21.429l7.53,39.401l25.311-22.95l8.129,1.594l0.416,37.71l27.928,5.94l-7.044-31.035l12.942-13.505
	l44.851,25.416l17.086-8.197l17.787,24.763l-33.852,21.474l33.537,66.25l-44.653-6.682l-103.211,133.923l-2.227,22.07l-49.914-0.722
	l-4.331-32.629l-52.181-52.403l2.169-15.587l-18.869-12.432l17.597-30.313l-8.6-12.492l33.478-42.297l-14.407-14.975l16.391-19.012
	l-43.351-31.382l-25.146,8.406l-11.766-8.633l3.259-26.621l19.112,6.486l5.438-20.161l65.02-24.873L2583.227,2916.124
	L2583.227,2916.124z"/>
<path id="path2296-1-7-4-0-9-4-8-5-5-37-7-06" sodipodi:nodetypes="ccccccccccccccccccccccccccc" fill="#FFFFFF" stroke="#282828" stroke-width="4" d="
	M2856.723,3311.641l-37.447-22.05l-54.732,33.131l-7.396-12.52l-37.957,2.025l-14.432,24.938l-51.95,32.303l3.101-41.682
	l-27.405-24.852l-2.004-28.06l37.988-0.107l2.582-37.538l-60.186-25.576l103.211-133.923l44.653,6.682l87.433,15.079l3.393,14.903
	l-8.178,10.345l14.933,24.808l-0.495,17.796l36.672,39.885l-12.065,14.99l25.72,31.91l18.357-3.504l-7.24,25.247l-28.628-2.803
	L2856.723,3311.641L2856.723,3311.641z"/>
<path id="path2296-1-7-4-0-9-4-8-5-5-37-7-9" sodipodi:nodetypes="ccccccccccccccccccc" fill="#FFFFFF" stroke="#282828" stroke-width="4" d="
	M2770.854,3462.274l-142.039-13.571l-27.789-23.571l51.782-55.663l51.95-32.303l14.432-24.938l37.957-2.025l7.396,12.52
	l54.732-33.131l37.447,22.05l27.927-38.571l28.628,2.803l12.428,20.208l21.982,8.691l-28.159,86.533l5.847,65.813l20.218,34.815
	l-61.171,9.576L2770.854,3462.274L2770.854,3462.274z"/>
<path id="path2296-1-7-4-0-9-4-8-5-5-37-7-46" sodipodi:nodetypes="cccccccccccccccccccccc" fill="#FFFFFF" stroke="#282828" stroke-width="4" d="
	M2829.373,3630.719l45.303,48.077l77.457-4.387l-2.136,40.075l22.703,81.27l20.114,8.591l-12.523,45.573l-21.619-0.458
	l-5.246-11.484l-62.829,3.771l-30.263-28.302l-37.935,3.421l-44.947-16.216l-63.881-49.175l-3.572-12.007l23.077-52.331
	l-3.923-16.215l-14.441-8.15l-9.183-28.137l7.47-20.466l117.287-7.41L2829.373,3630.719L2829.373,3630.719z"/>
<path id="path2296-1-7-4-0-9-4-8-5-5-37-7-9-0" sodipodi:nodetypes="cccccccccccccccccccccc" fill="#FFFFFF" stroke="#282828" stroke-width="4" d="
	M2925.375,3457.118l-5.847-65.813l28.159-86.533l29.453-0.701l4.45-17.605l39.858-7.82l57.39-28.508l16.247,0.824l0.819,17.654
	l28.287,11.814l31.8,69.002l-29.21,31.133l0.243,22.016l-19.043,17.107l30.047,44.106l-11.379,8.174l-7.875-10.76l-16.289-0.591
	l-32.067,35.874l-52.404,13.083l-72.422-17.641L2925.375,3457.118L2925.375,3457.118z"/>
<path id="path2296-1-7-4-0-9-4-8-5-5-37-7-9-0-6" sodipodi:nodetypes="ccccccccccccccccccccccccccccccccccccccccccccccccccccccccccccccccccccccccccccccccccccccccc" fill="#FFFFFF" stroke="#282828" stroke-width="4" d="
	M2945.593,3491.934l72.422,17.641l52.404-13.083l32.067-35.874l16.289,0.591l7.875,10.76l11.379-8.174l-30.047-44.106l19.043-17.107
	l-0.243-22.016l29.21-31.133l-31.8-69.002l-28.287-11.814l-0.819-17.654l93.568-137.354l6.644-66.711l86.939-55.49l17.514-0.09
	l21.37,7.273l19.719-0.023l31.29-7.386l56.886,32.937l0.108,30.412l18.342,13.231l20.445-1.496l7.472,8.673l-1.497,29.514
	l27.956,15.84l-0.094,63.526l14.633,11.282l-10.965,18.995l12.529,8.476l-0.094,10.23l-15.922,9.431l5.816,22.054l-9.961,29.066
	l-36.258,25.911l-19.779,38.885l-29.597,16.794l3.363,22.054l-16.272,28.015l7.512,12.166l11.645,1.35l0.808,25.232l-20.932,46.271
	l-13.919,5.948l0.105,8.752l18.47,9.011l7.599,30.048l26.885,3.4l21.625,16.725l12.516,27.627l-10.978,45.858l-34.47,45.158
	l7.904,47.095l19.826,20.447l-8.225,21.148l16.671,22.9l-44.737,17.729l14.52,16.327l0.844,41.924l-45.088,61.559l-63.386,48.98
	l-9.674,57.352l-28.96-3.309l-18.09,20.885l-11.427,0.198l-3.013-32.061l-13.882-7.517l-4.415-41.879l-37.725,5.458l-17.389-12.776
	l-11.547,20.338l-28.027,2.105l-12.599-75.035l-33.638-7.713l-64.142-55.049l-33.988-1.752l-15.631-19.994l12.523-45.573
	l-20.114-8.591l-22.703-81.27l2.136-40.075l-25.829-58.803l33.942-39.181l-21.458-3.416l7.294-27.61l-15.848-2.364
	L2945.593,3491.934L2945.593,3491.934z"/>
<path id="path2296-1-7-4-0-9-4-8-5-5-37-7-46-6" sodipodi:nodetypes="cccccccccccccccccccccccccccccccccc" fill="#FFFFFF" stroke="#282828" stroke-width="4" d="
	M2770.854,3462.274l113.567,39.235l61.171-9.576l-15.357,51.102l15.848,2.364l-7.294,27.61l21.458,3.416l-33.942,39.181
	l25.828,58.803l-77.457,4.387l-45.303-48.077l0.913-23.959l-117.287,7.41l-0.68-18.699l-28.116-47.422l-33.025,0.266l-3.221-8.502
	l21.322-14.461l-62.479-17.618l-13.919,32.831l-27.22,4.121l-0.571,13.238l-9.338,6.926l-10.136-7.647l-2.422-27.284l-15.746-11.855
	l10.264-16.288l-15.332-8.573l15.174-14.886l5.984-22.831l20.01-20.377l37.478-9.976l27.789,23.571L2770.854,3462.274
	L2770.854,3462.274z"/>
<path id="path2296-1-7-4-0-9-4-8-5-5-37-7-46-8" sodipodi:nodetypes="ccccccccccccccccccccccc" fill="#FFFFFF" stroke="#282828" stroke-width="4" d="
	M2486.251,3285.371l5.331,52.635l-19.318,23.664l4.877,27.804l115.271,13.246l8.615,22.412l-37.478,9.976l-20.01,20.377
	l-5.984,22.831l-15.174,14.886l-13.584,0.143l-27.031-30.198l-52.277-16.873l-1.469-29.891l-43.544-33.045l-10.234-52.682
	l-12.688,2.019l-3.572-53.733l13.609-11.307l40.608,1.667l20.443-20.114l15.252,25.9L2486.251,3285.371L2486.251,3285.371z"/>
<path id="path2296-1-7-4-0-9-4-8-5-5-37-7-19-4" sodipodi:nodetypes="ccccccccccccccccccccccccccccc" fill="#FFFFFF" stroke="#282828" stroke-width="4" d="
	M2086.655,3436.723l36.721-71.617l50.746-31.645l28.656,31.821l46.188-2.191l-6.759-27.437l15.683-20.424l-1.498-31.995
	l-19.835-18.956l30.657-11.594l7.164-70.148l96.643,40.444l0.568,44.652l-13.609,11.307l3.572,53.733l-35.057,8.99l31.818,62.335
	l-76.66,21.214l-1.654,13.314l-12.066,8.715l-36.177-7.121l-8.126,22.684l-34.379,2.58l-28.734,22.468l-13.657-10.842l4.576-22.413
	l-19.618-15.05l-14.656,17.993L2086.655,3436.723z"/>
<path id="path2296-1-7-4-0-9-4-8-5-5-37-7-19-6" sodipodi:nodetypes="cccccccccccccccccccccccccccccccccccccccccccc" fill="#FFFFFF" stroke="#282828" stroke-width="4" d="
	M2363.59,2992.446l82.139-23.191l11.766,8.633l25.146-8.406l43.351,31.382l-16.391,19.012l14.407,14.975l-33.478,42.297l8.6,12.492
	l-17.597,30.313l18.869,12.432l-2.169,15.587l52.181,52.403l4.331,32.629l49.914,0.722l2.227-22.07l60.186,25.576l-2.582,37.538
	l-37.988,0.107l2.004,28.06l27.405,24.852l-3.101,41.682l-51.782,55.663l-8.615-22.412l-115.271-13.246l-4.877-27.804l19.318-23.664
	l-5.331-52.635l-38.357-10.284l-15.252-25.9l-20.443,20.114l-40.608-1.667l-0.568-44.652l-96.643-40.444l-64.237-21.149
	l24.673-70.661l30.882-7.648l11.471-30.146l36.338-21.214l10.608,14.104l17.563-6.063l-13.642-23.664l28.681,5.22L2363.59,2992.446
	L2363.59,2992.446z"/>
<path id="path2296-1-7-4-0-9-4-8-5-5-37-7-19-7" sodipodi:nodetypes="ccccccccccccccccccccccccccccccccccccccc" fill="#FFFFFF" stroke="#282828" stroke-width="4" d="
	M1971.296,3490.02l-16.76-67.633l-39.138-36.762l13.458-45.877l20.471-30.449l-18.2-30.229l-77.808-28.826l28.085-105.965
	l30.987-19.092l79.854-1.783l0.041,34.662l88.752-0.401l-28.907,31.707l15.352,17.607l55.673,27.073l37.56-30.906l5.118-64.016
	l44.308,22.257l64.237,21.149l-7.164,70.148l-30.656,11.594l19.835,18.956l1.498,31.995l-15.683,20.424l6.758,27.437l-46.188,2.191
	l-28.656-31.821l-50.746,31.645l-36.721,71.617l30.508,20.818l14.656-17.993l19.617,15.05l-4.575,22.413l13.657,10.842l25.945,23.69
	l-17.898,18.709l-152.105-7.253l-10.449-33.2L1971.296,3490.02L1971.296,3490.02z"/>
<path id="path2296-1-7-4-0-9-4-8-5-5-37-7-19-8" sodipodi:nodetypes="ccccccccccccccccccccccccccccccccccccccccccccccccccccccc" fill="#FFFFFF" stroke="#282828" stroke-width="4" d="
	M1551.936,3385.529l-10.072-24.057l77.588-12.137l-12.877-17.745l10.966-30.369l43.926-70.341l104.235-0.215l33.77-143.488
	l74.654,8.53l-4.237,17.997l42.595-0.76l-0.091,12.242l-30.987,19.092l-28.085,105.965l77.808,28.826l18.2,30.229l-20.471,30.449
	l-13.458,45.877l39.138,36.762l16.76,67.633l34.714-0.221l10.449,33.2l-78.627,43.372l-28.251,65.32l23.743,13.025l2.704,111.904
	l-84.255,56.511l-53.698,93.825l-37.569,12.477l-54.443-46.258l-28.498,14.051l1.658-58.18l-17.971-25.323l-35.637-1.228
	l1.502-45.24l-31.703-21.792l-70.889,52.839l-11.281,57.746l-41.743,15.904l3.174-39.857l-36.983,8.123l-7.143-28.476l20.909-24.267
	l15.299,11.498l20.909-2.528l19.303-41.961l-26.732-4.179l-14.81-26.619l59.524-81.319l-0.784-36.437l30.173-39.332l-31.54-3.566
	l-32.241-112.264l32.276-4.268L1551.936,3385.529L1551.936,3385.529z"/>
<path id="path2296-1-7-4-0-9-4-8-5-5-37-7-19-9" sodipodi:nodetypes="cccccccccccccccccccccccccccccccccccccc" fill="#FFFFFF" stroke="#282828" stroke-width="4" d="
	M1564.559,3273.326l52.981,27.896l-10.966,30.369l12.877,17.745l-77.588,12.137l10.072,24.057l-29.101,50.973l-32.276,4.268
	l32.241,112.264l31.54,3.566l-30.173,39.332l-16.831,0.453l-15.781-37.061l-28.404-16.023l-81-1.997l-20.951,19.837l-30.813-7.612
	l-18.211-17.131l10.529-15.578l30.166,4.058l7.186-29.05l38.889-13.846l-10.902-54.521l-18.127-3.106l-33.556-28.353l-34.958,27.049
	l-33.555-32.561l-32.744,17.966l0.631-85.595l18.852-26.383l9.736-57.939l67.414-14.302l1.342-62.171l127.57,61.254l49.423,22.216
	l-17.462,36.226l58.978,3.266L1564.559,3273.326L1564.559,3273.326z"/>
<path id="path2296-1-7-4-0-9-4-8-5-5-37-7-12-1" sodipodi:nodetypes="cccccccccccccccc" fill="#FFFFFF" stroke="#282828" stroke-width="4" d="
	M1326.587,3069.284l61.962-5.872l8.383,34.533l33.277,29.206l38.131,1.324l13.871,19.618l1.248,34.345l-7.167,47.845
	l-143.214-68.217l-1.342,62.171l-67.414,14.302l-17.613-53.732l-26.029-10.954l-11.548-52.233l27.764-34.995L1326.587,3069.284
	L1326.587,3069.284z"/>
<path id="path2296-1-7-4-0-9-4-8-5-5-37-7-12-5" sodipodi:nodetypes="cccccccccccccccccccccccccccccccccccccc" fill="#FFFFFF" stroke="#282828" stroke-width="4" d="
	M1331.257,2826.765l65.029,26.783l126.21-81.84l38.55,0.91l16.812,38.778l58.887-36.257l30.311,0.735l4.252,26.879l34.631,5.613
	l1.671,70.131l30.423,5.613l-7.311,19.335l23.897,30.204l19.339-5.91l64.219,28.101l-24.14,24.944l-3.804,43.179l26.352,3.907
	l-37.113,59.307l-33.77,143.488l-104.235,0.215l-43.926,70.341l-52.981-27.896l-12.972,11.701l-58.978-3.266l17.462-36.226
	l-33.779-15.253l7.167-47.845l-1.248-34.345l-13.871-19.618l-38.131-1.324l-33.277-29.206l-8.383-34.533l-61.962,5.872
	l-36.538-29.962l-6.383-99.389l47.615-62.221L1331.257,2826.765L1331.257,2826.765z"/>
<path id="path2296-1-7-4-0-9-4-8-5-5-37-7-12-8" sodipodi:nodetypes="cccccccccccccccccccccc" fill="#FFFFFF" stroke="#282828" stroke-width="4" d="
	M1760.506,3919.434l-5.894,21.97l13.992,11.392l-44.563,114.061l-20.075,5.531l15.197,13.456l-57.735,63.246l-37.371,1.595
	l-30.358-30.664l-124.534-29.771l11.017-18.042l68.521-22.249l0.497-11.729l-31.061-15.236l-0.23-14.595l31.656-16.84
	l41.074-143.424l70.613-44.409l17.971,25.323l-1.658,58.18l28.498-14.051L1760.506,3919.434L1760.506,3919.434z"/>
<path id="path2296-1-7-4-0-9-4-8-5-5-37-7-12-0" sodipodi:nodetypes="cccccccccccccccccccccc" fill="#FFFFFF" stroke="#282828" stroke-width="4" d="
	M1627.117,3757.256l-1.502,45.24l35.637,1.228l-70.613,44.409l-41.074,143.424l-31.656,16.84l0.23,14.595l31.061,15.236
	l-0.497,11.729l-68.521,22.249l-11.017,18.042l-71.016-40.761l1.917-60.396l6.638-35.236l-28.685-17.241l-10.452-21.449
	l86.323-14.437l17.61-38.775l41.743-15.904l11.281-57.746l70.889-52.839L1627.117,3757.256L1627.117,3757.256z"/>
<path id="path2296-1-7-4-0-9-4-8-5-5-37-7-12-6" sodipodi:nodetypes="ccccccccccccccccccccc" fill="#FFFFFF" stroke="#282828" stroke-width="4" d="
	M1378.02,3936.614l28.685,17.241l-6.638,35.236l-39.283,16.051l-19.373,32.882l-80.168-19.109l-19.535,35.756l-33.262,6.649
	l-39.115-9.785l-37.713,9.852l-20.809-12.313l36.139-32.074l56.477-20.153l-8.743-11.738l71.974-59.562l7.457,19.681l39.143-1.028
	l30.727,22.814l5.482-37.846l18.104-14.003L1378.02,3936.614L1378.02,3936.614z"/>
<path id="path2296-1-7-4-0-9-4-8-5-5-37-7-12-15" sodipodi:nodetypes="cccccccccccccccccc" fill="#FFFFFF" stroke="#282828" stroke-width="4" d="
	M1719.164,4085.843l25.518,69.257l40.04,47.117l93.337,61.144l-61.576,47.952l-26.377-6.48l-39-56.973l-117.846,15.599
	l-27.031-21.286l-38.309-4.285l-38.09-5.785l-20.939-30.164l-30.455-2.467l-9.271-109.223l124.534,29.771l30.358,30.664
	l37.371-1.595L1719.164,4085.843L1719.164,4085.843z"/>
<path id="path2296-1-7-4-0-9-4-8-5-5-37-7-12-09" sodipodi:nodetypes="cccccccccccccccccccccc" fill="#FFFFFF" stroke="#282828" stroke-width="4" d="
	M1149.344,4174.887l-53.104,20.172l12.816,39.105l-108.504,116.947l-13.832-1.568l18.918-24.809l23.125-82.314l-80.328-38.817
	l-5.348-31.636l25.023-7.188l-10.42-18.943l34.763-17.896l40.128,25.279l59.765-110.767l18.462,6.621l20.809,12.313l4.202,21.153
	l67.964,15.905l12.944,28.289l-17.912,33.899l-46.401-12.37L1149.344,4174.887L1149.344,4174.887z"/>
<path id="path2296-1-7-4-0-9-4-8-5-5-37-7-12-7" sodipodi:nodetypes="ccccccccccccccccccccccccccccc" fill="#FFFFFF" stroke="#282828" stroke-width="4" d="
	M1469.165,4090.248l9.271,109.223l10.361,47.858l-41.056,42.53l10.78,13.947l-24.766,65.043l-50.393-0.711l-62.967-48.921
	l-27.201,8.583l-86.81-53.13l-122.999-12.89l25.67-27.617l-12.816-39.105l53.104-20.172l3.07-26.623l46.401,12.37l17.912-33.899
	l-12.944-28.289l-67.964-15.905l-4.202-21.153l37.713-9.852l39.115,9.785l33.262-6.649l19.535-35.756l80.168,19.109l19.373-32.882
	l39.283-16.051l-1.917,60.396L1469.165,4090.248L1469.165,4090.248z"/>
<path id="path2296-1-7-4-0-9-4-8-5-5-37-7-12-60" sodipodi:nodetypes="ccccccccccccccccccc" fill="#FFFFFF" stroke="#282828" stroke-width="4" d="
	M1320.396,4319.218l62.967,48.921l-54.455,50.301l21.355,26.4l-31.295,68.646l-108.919-1.578l-0.602-20.346l-51.494-61.374
	l-24.624,37.735l-28.771-12.307l-77.16,17.85l-39.291-6.695l-14.045-29.838l12.658-87.391l13.832,1.568l82.834-89.33l122.999,12.89
	l86.81,53.13L1320.396,4319.218L1320.396,4319.218z"/>
<path id="path2296-1-7-4-0-9-4-8-5-5-37-7-12-65" sodipodi:nodetypes="ccccccccccccccccccccccccccccc" fill="#FFFFFF" stroke="#282828" stroke-width="4" d="
	M1478.436,4199.471l30.455,2.467l20.939,30.164l76.398,10.07l27.031,21.286l117.846-15.599l39,56.973l26.377,6.48l-32.279,71.549
	l-36.962-5.165l-40.272,62.875l0.402,39.032l-66.219,36.928l-16.555,39.387l-20.062-23.027l-62.839-7.598l-24.269-23.027
	l-56.167-17.161l-20.02,22.626l-48.069-25.762l-4.273-18.564l-38.636-18.564l-21.355-26.4l54.455-50.301l50.393,0.711l24.766-65.043
	l-10.78-13.947l41.056-42.53L1478.436,4199.471L1478.436,4199.471z"/>
<path id="path2296-1-7-4-0-9-4-8-5-5-37-7-12-4" sodipodi:nodetypes="cccccccccccccccccccccccccccccccccccccc" fill="#FFFFFF" stroke="#282828" stroke-width="4" d="
	M1747.241,4377.696l36.962,5.165l32.279-71.549l26.191,11.496l-11.789,28.531l16.514,6.256l-0.318,31.501l59.992,31.502
	l-43.908,37.329l12.894,35.225l-24.975,26.81l1.646,55.266l58.449,15.293l19.879,37.032l-22.197,25.813l-13.986,46.691
	l-28.011,15.835l-0.918,33.424l-64.032,15.19l-3.021,37.631l-31.073-4.445l-26.029,18.109l-5.692,24.42l-25.763-2.354
	l-13.139,43.932l-103.417-52.392l-36.797,6.515l-14.647-18.82l-3.427-36.353l67.584-91.243l37.646-44.355l-23.744-31.566
	l19.335-37.531l-15.13-20.135l16.555-39.387l66.219-36.928l-0.402-39.032L1747.241,4377.696L1747.241,4377.696z"/>
<path id="path2296-1-7-4-0-9-4-8-5-5-37-7-12-00" sodipodi:nodetypes="ccccccccccccccccc" fill="#FFFFFF" stroke="#282828" stroke-width="4" d="
	M1997.182,4475.732l11.992,32.299l-27.383,126.399l17.531,22.091l-27.875,61.623l-36.291-0.088l-26.297-64.691l22.197-25.813
	l-19.879-37.033l-58.449-15.293l-1.646-55.265l24.975-26.81l-12.894-35.226l43.908-37.329l31.938,2.254l-7.483,36.776
	L1997.182,4475.732L1997.182,4475.732z"/>
<path id="path2296-1-7-4-0-9-4-8-5-5-37-7-12-607" sodipodi:nodetypes="cccccccccccccccccccccccc" fill="#FFFFFF" stroke="#282828" stroke-width="4" d="
	M1441.242,4507.73l20.02-22.626l56.167,17.161l24.269,23.027l62.839,7.598l20.062,23.027l15.13,20.135l-19.335,37.531l23.744,31.566
	l-37.646,44.355l-17.021-17.993l4.113-22.321l-43.527-26.588l-68.771,0.061l-63.721-35.009l-44.483-16.803l-6.813,35.428
	l-44.682-6.647l14.822-38.516l-17.438-47.631l31.295-68.646l38.636,18.564l4.273,18.564L1441.242,4507.73L1441.242,4507.73z"/>
<path id="path2296-1-7-4-0-9-4-8-5-5-37-7-12-77" sodipodi:nodetypes="cccccccccccccccc" fill="#FFFFFF" stroke="#282828" stroke-width="4" d="
	M1550.055,4622.604l43.527,26.588l-4.113,22.321l17.021,17.993l-67.584,91.243l-113.566-45.135l-121.22,2.796l-25.548-12.285
	l5.795-72.037l36.649-22.248l0.567-32.207l44.682,6.647l6.813-35.428l44.483,16.803l63.721,35.009L1550.055,4622.604
	L1550.055,4622.604z"/>
<path id="path2296-1-7-4-0-9-4-8-5-5-37-7-12-59" sodipodi:nodetypes="cccccccccccccccccccccc" fill="#FFFFFF" stroke="#282828" stroke-width="4" d="
	M1542.333,4817.102l-45.087,85.043l18.049,50.886l-39.142,27.798l6.169,14.84l73.49,9.93l-47.129,37.98l-16.271,30.268
	l-112.074-21.291l-2.676-17.082l-79.427,7.406l10.335-40.982l-53.679-28.298l-10.257-68.803l81.125-38.745l-51.795-62.422
	l1.102-26.311l37.323-15.395l-8.27-23.514l121.22-2.796l113.566,45.135L1542.333,4817.102L1542.333,4817.102z"/>
<path id="path2296-1-7-4-0-9-4-8-5-5-37-7-12-18" sodipodi:nodetypes="cccccccccccccccccccccccccc" fill="#FFFFFF" stroke="#282828" stroke-width="4" d="
	M1244.635,4904.796l10.257,68.803l53.679,28.298l-10.335,40.982l-4.875,25.106l-119.183,14.588l-7.881-20.372l-54.741-58.564
	l4.538-29.983l-24.38-14.992l-40.241,7.933l15.861-38.353l22.399-0.358l0.659-27.008l-21.205-6.347l4.742-10.554l30.89-9.957
	l14.989-40.752l81.125-117.287l77.639,10.146l25.548,12.285l8.27,23.514l-37.323,15.395l-1.102,26.311l51.795,62.422
	L1244.635,4904.796L1244.635,4904.796z"/>
<path id="path2296-1-7-4-0-9-4-8-5-5-37-7-12-603" sodipodi:nodetypes="ccccccccccccccccccccc" fill="#FFFFFF" stroke="#282828" stroke-width="4" d="
	M1119.809,4833.266l-14.989,40.752l-30.89,9.957l-4.742,10.554l21.205,6.347l-0.659,27.008l-22.399,0.358l-15.861,38.353
	l-39.61,27.725l-4.117-26.904l-25.155,10.963l-20.49,24.306l-28.904,1.864l-55.005-62.191l-0.61-21.996l38.229-22.064l-0.339-62.037
	l42.231-34.328l49.319-27.74l73.161-21.43L1119.809,4833.266L1119.809,4833.266z"/>
<path id="path2296-1-7-4-0-9-4-8-5-5-37-7-12-01" sodipodi:nodetypes="cccccccccccccccccc" fill="#FFFFFF" stroke="#282828" stroke-width="4" d="
	M1027.398,4473.467l-26.299,32.484l38.219,63.34l-43.13,90.689l-95.285,31.438l-168.218,34.243l4.382-52.131l-21.772-69.957
	l57.823-113.151l26.209-24.622l50.971-2.98l4.308-23.853l50.891,24.181l21.896-2.07l12.077-38.537l34.594,14.393l14.045,29.838
	L1027.398,4473.467L1027.398,4473.467z"/>
<path id="path2296-1-7-4-0-9-4-8-5-5-37-7-12-094" sodipodi:nodetypes="cccccccccccccccccccccc" fill="#FFFFFF" stroke="#282828" stroke-width="4" d="
	M1007.021,4774.189l-49.319,27.74l-42.231,34.328l0.339,62.037l-38.229,22.064l-3.439-16.439l-39.171-14.736l-147.568,27.688
	l45.284-191.209l168.218-34.243l95.285-31.438l43.13-90.689l48.891-5.989l66.195,37.1l167.18-0.769l-0.567,32.207l-36.649,22.248
	l-5.795,72.037l-77.639-10.146l-81.125,117.287l-39.626-80.506L1007.021,4774.189z"/>
<path id="path2296-1-7-4-0-9-4-8-5-5-37-7-12-3" sodipodi:nodetypes="cccccccccccccc" fill="#FFFFFF" stroke="#282828" stroke-width="4" d="
	M1209.448,4491.563l0.602,20.346l108.919,1.578l17.438,47.631l-14.822,38.516l-167.18,0.769l-66.195-37.1l-48.891,5.989
	l-38.219-63.34l26.299-32.484l77.16-17.85l28.771,12.307l24.624-37.735L1209.448,4491.563L1209.448,4491.563z"/>
<path id="path4809" fill="#FFFFFF" stroke="#282828" stroke-width="3" d="M1116.829,4629.126l-3.472-5.454l-3.471-7.438h-4.463
	l-2.479-3.968l-1.487-7.934l-2.976-3.967l-4.959-6.446l-3.471-0.495l0.496,8.926l0.991,5.454l3.472,4.462l-3.472,1.488l-8.43-2.975
	l0.496,4.463l5.95,1.486l10.909-0.495l4.463,3.472l3.472,4.958l-0.992,3.968l4.959,3.967L1116.829,4629.126L1116.829,4629.126z"/>
<path id="path4815" fill="#FFFFFF" stroke="#282828" stroke-width="3" d="M1164.185,4391.354l1.983-1.239l-0.743-3.471v-2.729
	l0.495-2.727l2.728-1.488h2.976l2.479-1.487l0.991-2.231l0.496-2.231l0.744-2.479l-0.992-2.479l-1.239-2.729l-1.983-2.975
	l0.743-2.975l0.496-2.977l1.983-2.23l2.231-1.736l1.983,0.496l1.488,2.479v2.728l1.983,2.975l1.983,0.496l0.991-1.983v-2.728
	l-0.248-2.479l-1.983-2.232l-1.239-1.982l-0.992-1.984l0.248-1.982l-0.248-2.232l-0.743-1.239h-2.479l-1.735,0.743l-1.24,1.488
	l-0.248,1.735v2.728l-1.735,1.24l-3.471-1.736h-1.983h-1.736l-1.983-0.248l-2.231-1.487l-1.735,0.495l-0.992,1.24l0.496,2.231
	l1.983,0.248l1.736,1.239l2.23,0.992l1.24,2.479l0.744,1.983v2.231l-1.24,2.728l-1.983,2.23l-1.735,1.984l-1.735,2.23v1.984
	l-0.248,3.471v3.224v2.479l-1.735,1.735l-1.736,1.735l-3.719,1.983l-2.728,1.487l-3.719,1.984l4.959,1.239l4.463-0.743l2.231-2.977
	l2.479-0.743l2.232,1.487L1164.185,4391.354L1164.185,4391.354z"/>
<path id="path5565" fill="#FFFFFF" stroke="#282828" d="M48.031,3641.625c-0.008,0.048,0.005-0.033-0.002,0.015
	c-3.208,19.823-37.244,17.152-51.443,31.353"/>
<path id="path5578" fill="#FFFFFF" stroke="#282828" d="M4008.863,878.056c0.004,0.002,0.008,0.005,0.012,0.007
	c0.427,0.23,9.758-1.015,12.018-1.015c3.18,0,2.717-0.526,3.328-0.831"/>
<path id="path6038" fill="#FFFFFF" stroke="#282828" d="M0.971,3265.346C1.294,3265.346,1.618,3265.346,0.971,3265.346z"/>
<path id="path6040" fill="#FFFFFF" stroke="#282828" d="M0.971,3265.346c3.235,0.646,6.471,1.294,9.706,1.941
	c5.888,1.178,14.969,11.494,17.472,16.5c1.68,3.361,9.367,5.883,11.647,6.795c1.633,0.653,0.971,5.437,0.971,6.794"/>
</svg>
